G75*
%MOIN*%
%OFA0B0*%
%FSLAX24Y24*%
%IPPOS*%
%LPD*%
%AMOC8*
5,1,8,0,0,1.08239X$1,22.5*
%
%ADD10C,0.1340*%
%ADD11C,0.0820*%
%ADD12R,0.0316X0.0946*%
%ADD13R,0.0592X0.0671*%
%ADD14R,0.0671X0.0592*%
%ADD15R,0.0300X0.0580*%
%ADD16R,0.0580X0.0300*%
%ADD17R,0.4332X0.3623*%
%ADD18R,0.0680X0.1580*%
%ADD19R,0.0356X0.0749*%
%ADD20C,0.0680*%
%ADD21R,0.0671X0.0671*%
%ADD22R,0.0474X0.0631*%
%ADD23R,0.0631X0.0474*%
%ADD24R,0.0789X0.0552*%
%ADD25R,0.0580X0.0659*%
%ADD26C,0.0634*%
%ADD27C,0.0940*%
%ADD28R,0.0552X0.0789*%
%ADD29R,0.0474X0.0867*%
%ADD30R,0.0297X0.0552*%
%ADD31R,0.0710X0.1458*%
%ADD32R,0.1025X0.1182*%
%ADD33C,0.0880*%
%ADD34C,0.0830*%
%ADD35C,0.1130*%
%ADD36R,0.0680X0.0380*%
%ADD37R,0.0631X0.0789*%
%ADD38R,0.0789X0.0395*%
%ADD39R,0.0789X0.0356*%
%ADD40R,0.0316X0.0277*%
%ADD41R,0.0277X0.0316*%
%ADD42OC8,0.0476*%
%ADD43C,0.0476*%
D10*
X001600Y003000D03*
X020600Y002500D03*
X020600Y026125D03*
D11*
X020600Y022000D03*
X020600Y021000D03*
X020600Y020000D03*
X020600Y019000D03*
X020600Y018000D03*
X020600Y017000D03*
X020600Y015000D03*
X020600Y014000D03*
X020600Y013000D03*
X020600Y012000D03*
X020600Y011000D03*
X020600Y010000D03*
X020600Y009000D03*
X020600Y008000D03*
X001600Y007500D03*
X001600Y006500D03*
X001600Y008500D03*
X001600Y009500D03*
X001600Y010500D03*
X001600Y011500D03*
X001600Y012500D03*
X001600Y013500D03*
X001600Y015000D03*
X001600Y016000D03*
X001600Y017000D03*
X001600Y018000D03*
X001600Y019000D03*
X001600Y020000D03*
X001600Y021000D03*
X001600Y022000D03*
D12*
X013975Y011899D03*
X014475Y011899D03*
X014975Y011899D03*
X015475Y011899D03*
X015975Y011899D03*
X016475Y011899D03*
X016975Y011899D03*
X016975Y009851D03*
X016475Y009851D03*
X015975Y009851D03*
X015475Y009851D03*
X014975Y009851D03*
X014475Y009851D03*
X013975Y009851D03*
D13*
X013890Y007750D03*
X014560Y007750D03*
X016515Y007750D03*
X017185Y007750D03*
X017185Y008625D03*
X016515Y008625D03*
X017890Y005125D03*
X018560Y005125D03*
X018560Y004125D03*
X017890Y004125D03*
X017640Y003125D03*
X018310Y003125D03*
X020640Y005125D03*
X021310Y005125D03*
X023640Y010250D03*
X024310Y010250D03*
X025265Y010250D03*
X025935Y010250D03*
X019185Y012500D03*
X018515Y012500D03*
X018515Y013625D03*
X019185Y013625D03*
X019185Y014750D03*
X018515Y014750D03*
X021765Y021000D03*
X022435Y021000D03*
X022435Y022000D03*
X021765Y022000D03*
X025765Y017750D03*
X026435Y017750D03*
X013185Y028625D03*
X012515Y028625D03*
X005310Y017000D03*
X004640Y017000D03*
X004640Y015875D03*
X005310Y015875D03*
X005765Y009000D03*
X006435Y009000D03*
X004685Y009000D03*
X004015Y009000D03*
D14*
X007975Y004335D03*
X007975Y003665D03*
X012850Y007790D03*
X012850Y008460D03*
X012850Y009415D03*
X012850Y010085D03*
X012850Y011040D03*
X012850Y011710D03*
X011850Y010085D03*
X011850Y009415D03*
X014725Y013540D03*
X014725Y014210D03*
X015850Y014210D03*
X015850Y013540D03*
X015850Y015290D03*
X015850Y015960D03*
X015850Y017290D03*
X015850Y017960D03*
X017225Y017960D03*
X017225Y017290D03*
X017225Y015960D03*
X017225Y015290D03*
X018725Y017290D03*
X018725Y017960D03*
X022600Y014710D03*
X022600Y014040D03*
X022600Y012960D03*
X022600Y012290D03*
X018850Y011335D03*
X018850Y010665D03*
X017850Y010835D03*
X017850Y010165D03*
X018850Y009585D03*
X018850Y008915D03*
X015350Y004085D03*
X015350Y003415D03*
X006350Y014540D03*
X006350Y015210D03*
X002725Y025665D03*
X002725Y026335D03*
X001225Y026335D03*
X001225Y025665D03*
X006225Y027790D03*
X006225Y028460D03*
X011725Y027335D03*
X011725Y026665D03*
X012600Y026665D03*
X012600Y027335D03*
X021725Y024460D03*
X021725Y023790D03*
X025725Y023960D03*
X025725Y023290D03*
D15*
X007452Y013565D03*
X007137Y013565D03*
X006822Y013565D03*
X006507Y013565D03*
X006193Y013565D03*
X005878Y013565D03*
X005563Y013565D03*
X005248Y013565D03*
X005248Y010185D03*
X005563Y010185D03*
X005878Y010185D03*
X006193Y010185D03*
X006507Y010185D03*
X006822Y010185D03*
X007137Y010185D03*
X007452Y010185D03*
D16*
X008040Y010773D03*
X008040Y011088D03*
X008040Y011403D03*
X008040Y011718D03*
X008040Y012032D03*
X008040Y012347D03*
X008040Y012662D03*
X008040Y012977D03*
X004660Y012977D03*
X004660Y012662D03*
X004660Y012347D03*
X004660Y012032D03*
X004660Y011718D03*
X004660Y011403D03*
X004660Y011088D03*
X004660Y010773D03*
D17*
X004975Y002838D03*
D18*
X004975Y007125D03*
X003975Y007125D03*
X005975Y007125D03*
D19*
X005447Y014500D03*
X004975Y014500D03*
X004503Y014500D03*
D20*
X009425Y013875D02*
X010025Y013875D01*
X010025Y012875D02*
X009425Y012875D01*
X009425Y011875D02*
X010025Y011875D01*
X022725Y025950D02*
X022725Y026550D01*
X023725Y026550D02*
X023725Y025950D01*
X024725Y025950D02*
X024725Y026550D01*
X025725Y026550D02*
X025725Y025950D01*
X026725Y025950D02*
X026725Y026550D01*
X027725Y026550D02*
X027725Y025950D01*
D21*
X002725Y027436D03*
X002725Y028814D03*
X001225Y028814D03*
X001225Y027436D03*
D22*
X018476Y015567D03*
X019224Y015567D03*
X018850Y016433D03*
X025726Y016808D03*
X026474Y016808D03*
X026100Y015942D03*
D23*
X007533Y016625D03*
X006667Y016251D03*
X006667Y016999D03*
D24*
X022725Y023350D03*
X023725Y023350D03*
X024725Y023350D03*
X024725Y024650D03*
X023725Y024650D03*
X022725Y024650D03*
X026725Y024650D03*
X027725Y024650D03*
X027725Y023350D03*
X026725Y023350D03*
D25*
X018196Y002000D03*
X016504Y002000D03*
D26*
X013505Y016250D03*
X010945Y016250D03*
D27*
X009475Y025875D03*
X008475Y025875D03*
X007475Y025875D03*
X006475Y025875D03*
X015475Y025875D03*
X016475Y025875D03*
X017475Y025875D03*
D28*
X010500Y026875D03*
X010500Y027750D03*
X010500Y028625D03*
X009200Y028625D03*
X009200Y027750D03*
X009200Y026875D03*
D29*
X029797Y011856D03*
X032553Y011856D03*
D30*
X016849Y004637D03*
X016475Y004637D03*
X016101Y004637D03*
X016101Y003613D03*
X016849Y003613D03*
D31*
X013350Y003813D03*
X013350Y001687D03*
X009850Y001687D03*
X009850Y003813D03*
D32*
X023231Y004902D03*
X023231Y002500D03*
X027719Y002500D03*
X027719Y004902D03*
D33*
X025475Y004300D03*
X025475Y002500D03*
D34*
X016475Y028125D03*
D35*
X015471Y027121D03*
X015471Y029129D03*
X017479Y029129D03*
X017479Y027121D03*
D36*
X009850Y008000D03*
X009850Y006500D03*
X007850Y006500D03*
X007850Y008000D03*
D37*
X007431Y018000D03*
X008769Y018000D03*
D38*
X024276Y014444D03*
X024276Y014011D03*
X024276Y013578D03*
X024276Y013145D03*
X024276Y012712D03*
X024276Y012279D03*
X024276Y011845D03*
X028016Y011845D03*
X028016Y012279D03*
X028016Y012712D03*
X028016Y013145D03*
X028016Y013578D03*
X028016Y014011D03*
X028016Y014444D03*
D39*
X028016Y014857D03*
X028016Y011432D03*
X024276Y011432D03*
X024276Y014857D03*
D40*
X005066Y026304D03*
X004475Y026304D03*
X003884Y026304D03*
X003884Y027446D03*
X004475Y027446D03*
X005066Y027446D03*
D41*
X003884Y026875D03*
D42*
X003600Y025625D03*
X002725Y024625D03*
X005850Y024625D03*
X003850Y028125D03*
X004475Y028625D03*
X004475Y029500D03*
X005475Y029250D03*
X001975Y028875D03*
X002725Y021500D03*
X002725Y018750D03*
X003600Y016000D03*
X004975Y015125D03*
X007225Y014500D03*
X008350Y014875D03*
X009600Y015500D03*
X009975Y014875D03*
X010850Y014125D03*
X012350Y014250D03*
X012975Y013750D03*
X012350Y013250D03*
X012850Y012500D03*
X013600Y010750D03*
X013725Y008875D03*
X015725Y008625D03*
X015725Y007750D03*
X017725Y006250D03*
X018600Y007875D03*
X019350Y005750D03*
X022100Y003875D03*
X023225Y003625D03*
X023225Y001250D03*
X027725Y001250D03*
X027975Y003625D03*
X027975Y007625D03*
X026100Y007625D03*
X025475Y009500D03*
X025225Y010875D03*
X025600Y012000D03*
X025100Y012750D03*
X025600Y013500D03*
X026850Y012750D03*
X026975Y012000D03*
X027975Y010750D03*
X025600Y015125D03*
X023225Y013500D03*
X021975Y013500D03*
X022850Y015625D03*
X022850Y018250D03*
X022975Y019125D03*
X023725Y019875D03*
X025225Y018500D03*
X026475Y019875D03*
X025225Y022250D03*
X024100Y022250D03*
X022975Y022000D03*
X022100Y022750D03*
X021225Y023250D03*
X020600Y023500D03*
X019975Y023500D03*
X019100Y023000D03*
X017725Y021500D03*
X017725Y020125D03*
X017725Y018750D03*
X016475Y018000D03*
X016475Y017375D03*
X016475Y016750D03*
X015225Y016750D03*
X015225Y017375D03*
X014225Y017375D03*
X014225Y018750D03*
X011850Y018750D03*
X010225Y018125D03*
X009475Y018750D03*
X009475Y021500D03*
X011850Y021500D03*
X014225Y021500D03*
X014975Y023000D03*
X012225Y025250D03*
X011850Y024625D03*
X010225Y025125D03*
X009475Y024625D03*
X011100Y027750D03*
X011850Y028000D03*
X013975Y029375D03*
X018975Y029375D03*
X018975Y027375D03*
X018975Y025125D03*
X021850Y025125D03*
X023975Y029375D03*
X027975Y029375D03*
X026725Y022500D03*
X021975Y020125D03*
X016850Y014210D03*
X016850Y013375D03*
X017850Y012000D03*
X016600Y010875D03*
X015225Y012875D03*
X014725Y015250D03*
X012975Y014750D03*
X012600Y016000D03*
X007350Y012500D03*
X006725Y012250D03*
X007225Y011750D03*
X007100Y010875D03*
X008350Y009750D03*
X009225Y009750D03*
X010350Y009500D03*
X009850Y007250D03*
X007850Y007375D03*
X007725Y008625D03*
X006600Y007750D03*
X005600Y008250D03*
X006600Y006250D03*
X008600Y005500D03*
X008850Y004625D03*
X007850Y002875D03*
X007850Y001250D03*
X011600Y001250D03*
X011600Y002875D03*
X015600Y002000D03*
X016475Y002875D03*
X015600Y001250D03*
X015600Y005250D03*
X013350Y006875D03*
X005350Y011250D03*
X005350Y011875D03*
X005350Y012500D03*
X002600Y013250D03*
X003600Y009625D03*
X002725Y008250D03*
X002725Y006250D03*
X001600Y005250D03*
X003975Y005250D03*
X005850Y018750D03*
X021975Y011000D03*
X022975Y011000D03*
X022975Y009125D03*
X021975Y009125D03*
X022475Y006625D03*
D43*
X011725Y017500D03*
M02*
