G75*
%MOIN*%
%OFA0B0*%
%FSLAX24Y24*%
%IPPOS*%
%LPD*%
%AMOC8*
5,1,8,0,0,1.08239X$1,22.5*
%
%ADD10C,0.0740*%
%ADD11R,0.0236X0.0866*%
%ADD12R,0.0512X0.0591*%
%ADD13R,0.0591X0.0512*%
%ADD14R,0.0220X0.0500*%
%ADD15R,0.0500X0.0220*%
%ADD16R,0.4252X0.3543*%
%ADD17R,0.0600X0.1500*%
%ADD18R,0.0276X0.0669*%
%ADD19C,0.0600*%
%ADD20R,0.0591X0.0591*%
%ADD21R,0.0394X0.0551*%
%ADD22R,0.0551X0.0394*%
%ADD23R,0.0709X0.0472*%
%ADD24R,0.0500X0.0579*%
%ADD25C,0.0554*%
%ADD26C,0.0860*%
%ADD27R,0.0472X0.0709*%
%ADD28R,0.0394X0.0787*%
%ADD29R,0.0217X0.0472*%
%ADD30R,0.0630X0.1378*%
%ADD31R,0.0945X0.1102*%
%ADD32C,0.0750*%
%ADD33C,0.1050*%
%ADD34R,0.0600X0.0300*%
%ADD35R,0.0551X0.0709*%
%ADD36R,0.0709X0.0315*%
%ADD37R,0.0709X0.0276*%
%ADD38R,0.0236X0.0197*%
%ADD39R,0.0197X0.0236*%
%ADD40C,0.0160*%
%ADD41OC8,0.0396*%
%ADD42C,0.0400*%
%ADD43C,0.0396*%
%ADD44C,0.0120*%
%ADD45C,0.0100*%
D10*
X001600Y006500D03*
X001600Y007500D03*
X001600Y008500D03*
X001600Y009500D03*
X001600Y010500D03*
X001600Y011500D03*
X001600Y012500D03*
X001600Y013500D03*
X001600Y015000D03*
X001600Y016000D03*
X001600Y017000D03*
X001600Y018000D03*
X001600Y019000D03*
X001600Y020000D03*
X001600Y021000D03*
X001600Y022000D03*
X020600Y022000D03*
X020600Y021000D03*
X020600Y020000D03*
X020600Y019000D03*
X020600Y018000D03*
X020600Y017000D03*
X020600Y015000D03*
X020600Y014000D03*
X020600Y013000D03*
X020600Y012000D03*
X020600Y011000D03*
X020600Y010000D03*
X020600Y009000D03*
X020600Y008000D03*
D11*
X016975Y009851D03*
X016475Y009851D03*
X015975Y009851D03*
X015475Y009851D03*
X014975Y009851D03*
X014475Y009851D03*
X013975Y009851D03*
X013975Y011899D03*
X014475Y011899D03*
X014975Y011899D03*
X015475Y011899D03*
X015975Y011899D03*
X016475Y011899D03*
X016975Y011899D03*
D12*
X018515Y012500D03*
X019185Y012500D03*
X019185Y013625D03*
X018515Y013625D03*
X018515Y014750D03*
X019185Y014750D03*
X023640Y010250D03*
X024310Y010250D03*
X025265Y010250D03*
X025935Y010250D03*
X021310Y005125D03*
X020640Y005125D03*
X018560Y005125D03*
X017890Y005125D03*
X017890Y004125D03*
X018560Y004125D03*
X018310Y003125D03*
X017640Y003125D03*
X017185Y007750D03*
X016515Y007750D03*
X016515Y008625D03*
X017185Y008625D03*
X014560Y007750D03*
X013890Y007750D03*
X006435Y009000D03*
X005765Y009000D03*
X004685Y009000D03*
X004015Y009000D03*
X004640Y015875D03*
X005310Y015875D03*
X005310Y017000D03*
X004640Y017000D03*
X012515Y028625D03*
X013185Y028625D03*
X021765Y022000D03*
X022435Y022000D03*
X022435Y021000D03*
X021765Y021000D03*
X025765Y017750D03*
X026435Y017750D03*
D13*
X022600Y014710D03*
X022600Y014040D03*
X022600Y012960D03*
X022600Y012290D03*
X018850Y011335D03*
X018850Y010665D03*
X017850Y010835D03*
X017850Y010165D03*
X018850Y009585D03*
X018850Y008915D03*
X015850Y013540D03*
X015850Y014210D03*
X015850Y015290D03*
X015850Y015960D03*
X015850Y017290D03*
X015850Y017960D03*
X017225Y017960D03*
X017225Y017290D03*
X017225Y015960D03*
X017225Y015290D03*
X018725Y017290D03*
X018725Y017960D03*
X014725Y014210D03*
X014725Y013540D03*
X012850Y011710D03*
X012850Y011040D03*
X012850Y010085D03*
X012850Y009415D03*
X012850Y008460D03*
X012850Y007790D03*
X011850Y009415D03*
X011850Y010085D03*
X007975Y004335D03*
X007975Y003665D03*
X015350Y003415D03*
X015350Y004085D03*
X006350Y014540D03*
X006350Y015210D03*
X002725Y025665D03*
X002725Y026335D03*
X001225Y026335D03*
X001225Y025665D03*
X006225Y027790D03*
X006225Y028460D03*
X011725Y027335D03*
X011725Y026665D03*
X012600Y026665D03*
X012600Y027335D03*
X021725Y024460D03*
X021725Y023790D03*
X025725Y023960D03*
X025725Y023290D03*
D14*
X007452Y013565D03*
X007137Y013565D03*
X006822Y013565D03*
X006507Y013565D03*
X006193Y013565D03*
X005878Y013565D03*
X005563Y013565D03*
X005248Y013565D03*
X005248Y010185D03*
X005563Y010185D03*
X005878Y010185D03*
X006193Y010185D03*
X006507Y010185D03*
X006822Y010185D03*
X007137Y010185D03*
X007452Y010185D03*
D15*
X008040Y010773D03*
X008040Y011088D03*
X008040Y011403D03*
X008040Y011718D03*
X008040Y012032D03*
X008040Y012347D03*
X008040Y012662D03*
X008040Y012977D03*
X004660Y012977D03*
X004660Y012662D03*
X004660Y012347D03*
X004660Y012032D03*
X004660Y011718D03*
X004660Y011403D03*
X004660Y011088D03*
X004660Y010773D03*
D16*
X004975Y002838D03*
D17*
X004975Y007125D03*
X003975Y007125D03*
X005975Y007125D03*
D18*
X005447Y014500D03*
X004975Y014500D03*
X004503Y014500D03*
D19*
X009425Y013875D02*
X010025Y013875D01*
X010025Y012875D02*
X009425Y012875D01*
X009425Y011875D02*
X010025Y011875D01*
X022725Y025950D02*
X022725Y026550D01*
X023725Y026550D02*
X023725Y025950D01*
X024725Y025950D02*
X024725Y026550D01*
X025725Y026550D02*
X025725Y025950D01*
X026725Y025950D02*
X026725Y026550D01*
X027725Y026550D02*
X027725Y025950D01*
D20*
X002725Y027436D03*
X002725Y028814D03*
X001225Y028814D03*
X001225Y027436D03*
D21*
X018476Y015567D03*
X019224Y015567D03*
X018850Y016433D03*
X025726Y016808D03*
X026474Y016808D03*
X026100Y015942D03*
D22*
X007533Y016625D03*
X006667Y016251D03*
X006667Y016999D03*
D23*
X022725Y023350D03*
X023725Y023350D03*
X024725Y023350D03*
X024725Y024650D03*
X023725Y024650D03*
X022725Y024650D03*
X026725Y024650D03*
X027725Y024650D03*
X027725Y023350D03*
X026725Y023350D03*
D24*
X018196Y002000D03*
X016504Y002000D03*
D25*
X013505Y016250D03*
X010945Y016250D03*
D26*
X009475Y025875D03*
X008475Y025875D03*
X007475Y025875D03*
X006475Y025875D03*
X015475Y025875D03*
X016475Y025875D03*
X017475Y025875D03*
D27*
X010500Y026875D03*
X010500Y027750D03*
X010500Y028625D03*
X009200Y028625D03*
X009200Y027750D03*
X009200Y026875D03*
D28*
X029797Y011856D03*
X032553Y011856D03*
D29*
X016849Y004637D03*
X016475Y004637D03*
X016101Y004637D03*
X016101Y003613D03*
X016849Y003613D03*
D30*
X013350Y003813D03*
X013350Y001687D03*
X009850Y001687D03*
X009850Y003813D03*
D31*
X023231Y004902D03*
X023231Y002500D03*
X027719Y002500D03*
X027719Y004902D03*
D32*
X016475Y028125D03*
D33*
X015471Y027121D03*
X015471Y029129D03*
X017479Y029129D03*
X017479Y027121D03*
D34*
X009850Y008000D03*
X009850Y006500D03*
X007850Y006500D03*
X007850Y008000D03*
D35*
X007431Y018000D03*
X008769Y018000D03*
D36*
X024276Y014444D03*
X024276Y014011D03*
X024276Y013578D03*
X024276Y013145D03*
X024276Y012712D03*
X024276Y012279D03*
X024276Y011845D03*
X028016Y011845D03*
X028016Y012279D03*
X028016Y012712D03*
X028016Y013145D03*
X028016Y013578D03*
X028016Y014011D03*
X028016Y014444D03*
D37*
X028016Y014857D03*
X028016Y011432D03*
X024276Y011432D03*
X024276Y014857D03*
D38*
X005066Y026304D03*
X004475Y026304D03*
X003884Y026304D03*
X003884Y027446D03*
X004475Y027446D03*
X005066Y027446D03*
D39*
X003884Y026875D03*
D40*
X000580Y029426D02*
X000580Y003453D01*
X000712Y003682D01*
X000918Y003888D01*
X001172Y004034D01*
X001454Y004110D01*
X001746Y004110D01*
X002028Y004034D01*
X002282Y003888D01*
X002488Y003682D01*
X002634Y003428D01*
X002669Y003299D01*
X002669Y004684D01*
X002774Y004789D01*
X007176Y004789D01*
X007281Y004684D01*
X007281Y000991D01*
X007270Y000980D01*
X009355Y000980D01*
X009355Y001610D01*
X009773Y001610D01*
X009773Y001764D01*
X009355Y001764D01*
X009355Y002400D01*
X009367Y002445D01*
X009391Y002487D01*
X009425Y002520D01*
X009466Y002544D01*
X009511Y002556D01*
X009773Y002556D01*
X009773Y001764D01*
X009927Y001764D01*
X009927Y002556D01*
X010189Y002556D01*
X010234Y002544D01*
X010275Y002520D01*
X010309Y002487D01*
X010333Y002445D01*
X010345Y002400D01*
X010345Y001764D01*
X009927Y001764D01*
X009927Y001610D01*
X010345Y001610D01*
X010345Y000980D01*
X012855Y000980D01*
X012855Y001610D01*
X013273Y001610D01*
X013273Y001764D01*
X012855Y001764D01*
X012855Y002400D01*
X012867Y002445D01*
X012891Y002487D01*
X012925Y002520D01*
X012966Y002544D01*
X013011Y002556D01*
X013273Y002556D01*
X013273Y001764D01*
X013427Y001764D01*
X013427Y002556D01*
X013689Y002556D01*
X013734Y002544D01*
X013775Y002520D01*
X013809Y002487D01*
X013833Y002445D01*
X013845Y002400D01*
X013845Y001764D01*
X013427Y001764D01*
X013427Y001610D01*
X013845Y001610D01*
X013845Y000980D01*
X019333Y000980D01*
X018693Y001620D01*
X018610Y001620D01*
X018521Y001531D01*
X017872Y001531D01*
X017766Y001636D01*
X017766Y002364D01*
X017872Y002469D01*
X018521Y002469D01*
X018610Y002380D01*
X018926Y002380D01*
X019065Y002322D01*
X019882Y001505D01*
X020104Y001505D01*
X019918Y001612D01*
X019712Y001818D01*
X019566Y002072D01*
X019490Y002354D01*
X019490Y002646D01*
X019566Y002928D01*
X019712Y003182D01*
X019918Y003388D01*
X020172Y003534D01*
X020454Y003610D01*
X020746Y003610D01*
X021028Y003534D01*
X021282Y003388D01*
X021488Y003182D01*
X021634Y002928D01*
X021710Y002646D01*
X021710Y002354D01*
X021634Y002072D01*
X021488Y001818D01*
X021282Y001612D01*
X021096Y001505D01*
X021699Y001505D01*
X022578Y002385D01*
X022578Y003126D01*
X022684Y003231D01*
X023778Y003231D01*
X023883Y003126D01*
X023883Y001874D01*
X023778Y001769D01*
X023037Y001769D01*
X022248Y000980D01*
X028151Y000980D01*
X028370Y001199D01*
X028370Y001919D01*
X028359Y001879D01*
X028336Y001838D01*
X028302Y001805D01*
X028261Y001781D01*
X028215Y001769D01*
X027799Y001769D01*
X027799Y002420D01*
X027639Y002420D01*
X027067Y002420D01*
X027067Y001925D01*
X027079Y001879D01*
X027103Y001838D01*
X027136Y001805D01*
X027177Y001781D01*
X027223Y001769D01*
X027639Y001769D01*
X027639Y002420D01*
X027639Y002580D01*
X027067Y002580D01*
X027067Y003075D01*
X027079Y003121D01*
X027103Y003162D01*
X027136Y003195D01*
X027177Y003219D01*
X027223Y003231D01*
X027639Y003231D01*
X027639Y002580D01*
X027799Y002580D01*
X027799Y003231D01*
X028215Y003231D01*
X028261Y003219D01*
X028302Y003195D01*
X028336Y003162D01*
X028359Y003121D01*
X028370Y003081D01*
X028370Y004321D01*
X028359Y004281D01*
X028336Y004240D01*
X028302Y004206D01*
X028261Y004183D01*
X028215Y004170D01*
X027799Y004170D01*
X027799Y004822D01*
X027639Y004822D01*
X027067Y004822D01*
X027067Y004327D01*
X027079Y004281D01*
X027103Y004240D01*
X027136Y004206D01*
X027177Y004183D01*
X027223Y004170D01*
X027639Y004170D01*
X027639Y004822D01*
X027639Y004982D01*
X027639Y005633D01*
X027223Y005633D01*
X027177Y005620D01*
X027136Y005597D01*
X027103Y005563D01*
X027079Y005522D01*
X027067Y005476D01*
X027067Y004982D01*
X027639Y004982D01*
X027799Y004982D01*
X027799Y005633D01*
X028215Y005633D01*
X028261Y005620D01*
X028302Y005597D01*
X028336Y005563D01*
X028359Y005522D01*
X028370Y005482D01*
X028370Y009970D01*
X028443Y010147D01*
X028578Y010282D01*
X028578Y010282D01*
X028725Y010429D01*
X028725Y011585D01*
X028551Y011585D01*
X028551Y011432D01*
X028016Y011432D01*
X027482Y011432D01*
X027482Y011271D01*
X027494Y011225D01*
X027518Y011184D01*
X027551Y011150D01*
X027593Y011127D01*
X027638Y011114D01*
X028016Y011114D01*
X028016Y011432D01*
X028016Y011432D01*
X027482Y011432D01*
X027482Y011594D01*
X027486Y011609D01*
X027482Y011613D01*
X027482Y012078D01*
X027486Y012082D01*
X027482Y012097D01*
X027482Y012279D01*
X028016Y012279D01*
X028016Y012279D01*
X027482Y012279D01*
X027482Y012460D01*
X027486Y012475D01*
X027482Y012480D01*
X027482Y015070D01*
X027587Y015175D01*
X028370Y015175D01*
X028370Y029426D01*
X028151Y029645D01*
X018725Y029645D01*
X018725Y024750D01*
X014225Y024750D01*
X014225Y029645D01*
X000799Y029645D01*
X000580Y029426D01*
X000580Y029347D02*
X005097Y029347D01*
X005097Y029407D02*
X005097Y029093D01*
X005215Y028975D01*
X005215Y027724D01*
X004873Y027724D01*
X004770Y027622D01*
X004735Y027657D01*
X004735Y028350D01*
X004853Y028468D01*
X004853Y028782D01*
X004632Y029003D01*
X004318Y029003D01*
X004097Y028782D01*
X004097Y028468D01*
X004215Y028350D01*
X004215Y028295D01*
X004007Y028503D01*
X003693Y028503D01*
X003472Y028282D01*
X003472Y027968D01*
X003624Y027816D01*
X003624Y027657D01*
X003586Y027619D01*
X003586Y027273D01*
X003692Y027167D01*
X003741Y027167D01*
X003717Y027161D01*
X003676Y027137D01*
X003642Y027104D01*
X003618Y027063D01*
X003606Y027017D01*
X003606Y026875D01*
X003606Y026733D01*
X003618Y026687D01*
X003642Y026646D01*
X003676Y026613D01*
X003717Y026589D01*
X003741Y026583D01*
X003692Y026583D01*
X003586Y026477D01*
X003586Y026131D01*
X003692Y026026D01*
X004077Y026026D01*
X004180Y026128D01*
X004282Y026026D01*
X004668Y026026D01*
X004686Y026044D01*
X004854Y026044D01*
X004873Y026026D01*
X005258Y026026D01*
X005277Y026044D01*
X005331Y026044D01*
X005426Y026084D01*
X005622Y026280D01*
X005695Y026353D01*
X005735Y026448D01*
X005735Y028200D01*
X005750Y028200D01*
X005750Y028129D01*
X005762Y028116D01*
X005750Y028070D01*
X005750Y027838D01*
X006177Y027838D01*
X006177Y027742D01*
X006273Y027742D01*
X006273Y027354D01*
X006544Y027354D01*
X006590Y027367D01*
X006631Y027390D01*
X006664Y027424D01*
X006688Y027465D01*
X006700Y027511D01*
X006700Y027742D01*
X006273Y027742D01*
X006273Y027838D01*
X006700Y027838D01*
X006700Y028070D01*
X006688Y028116D01*
X006688Y028116D01*
X006700Y028129D01*
X006700Y028790D01*
X006595Y028896D01*
X005855Y028896D01*
X005750Y028790D01*
X005750Y028720D01*
X005735Y028720D01*
X005735Y028975D01*
X005853Y029093D01*
X005853Y029407D01*
X005632Y029628D01*
X005318Y029628D01*
X005097Y029407D01*
X005196Y029506D02*
X000659Y029506D01*
X000819Y029253D02*
X000786Y029220D01*
X000762Y029179D01*
X000750Y029133D01*
X000750Y028882D01*
X001157Y028882D01*
X001157Y029289D01*
X000906Y029289D01*
X000860Y029277D01*
X000819Y029253D01*
X000768Y029189D02*
X000580Y029189D01*
X000580Y029030D02*
X000750Y029030D01*
X000580Y028872D02*
X001157Y028872D01*
X001157Y028882D02*
X001157Y028746D01*
X001293Y028746D01*
X001293Y028882D01*
X001157Y028882D01*
X001293Y028882D02*
X001293Y029289D01*
X001544Y029289D01*
X001590Y029277D01*
X001631Y029253D01*
X001664Y029220D01*
X001688Y029179D01*
X001700Y029133D01*
X001700Y028882D01*
X001293Y028882D01*
X001293Y028872D02*
X002657Y028872D01*
X002657Y028882D02*
X002657Y028746D01*
X002793Y028746D01*
X002793Y028882D01*
X002657Y028882D01*
X002657Y029289D01*
X002406Y029289D01*
X002360Y029277D01*
X002319Y029253D01*
X002286Y029220D01*
X002262Y029179D01*
X002250Y029133D01*
X002250Y028882D01*
X002657Y028882D01*
X002793Y028882D02*
X002793Y029289D01*
X003044Y029289D01*
X003090Y029277D01*
X003131Y029253D01*
X003164Y029220D01*
X003188Y029179D01*
X003200Y029133D01*
X003200Y028882D01*
X002793Y028882D01*
X002793Y028872D02*
X004187Y028872D01*
X004097Y028713D02*
X003200Y028713D01*
X003200Y028746D02*
X002793Y028746D01*
X002793Y028339D01*
X003044Y028339D01*
X003090Y028351D01*
X003131Y028375D01*
X003164Y028408D01*
X003188Y028449D01*
X003200Y028495D01*
X003200Y028746D01*
X003200Y028555D02*
X004097Y028555D01*
X004114Y028396D02*
X004169Y028396D01*
X004475Y028625D02*
X004475Y027446D01*
X004282Y027167D02*
X004668Y027167D01*
X004770Y027270D01*
X004873Y027167D01*
X005215Y027167D01*
X005215Y026608D01*
X005190Y026583D01*
X004873Y026583D01*
X004854Y026564D01*
X004686Y026564D01*
X004668Y026583D01*
X004282Y026583D01*
X004180Y026480D01*
X004077Y026583D01*
X004028Y026583D01*
X004052Y026589D01*
X004093Y026613D01*
X004127Y026646D01*
X004151Y026687D01*
X004163Y026733D01*
X004163Y026875D01*
X004163Y027017D01*
X004151Y027063D01*
X004127Y027104D01*
X004093Y027137D01*
X004052Y027161D01*
X004028Y027167D01*
X004077Y027167D01*
X004180Y027270D01*
X004282Y027167D01*
X004103Y027128D02*
X005215Y027128D01*
X005215Y026970D02*
X004163Y026970D01*
X004163Y026875D02*
X003884Y026875D01*
X003606Y026875D01*
X003884Y026875D01*
X003884Y026875D01*
X003884Y026875D01*
X004163Y026875D01*
X004163Y026811D02*
X005215Y026811D01*
X005215Y026653D02*
X004130Y026653D01*
X004166Y026494D02*
X004194Y026494D01*
X004475Y026304D02*
X005066Y026304D01*
X005279Y026304D01*
X005475Y026500D01*
X005475Y028500D01*
X005515Y028460D01*
X006225Y028460D01*
X006700Y028396D02*
X008253Y028396D01*
X008095Y028238D02*
X006700Y028238D01*
X006698Y028079D02*
X007936Y028079D01*
X007778Y027921D02*
X006700Y027921D01*
X006700Y027604D02*
X007461Y027604D01*
X007619Y027762D02*
X006273Y027762D01*
X006177Y027762D02*
X005735Y027762D01*
X005750Y027742D02*
X005750Y027511D01*
X005762Y027465D01*
X005786Y027424D01*
X005819Y027390D01*
X005860Y027367D01*
X005906Y027354D01*
X006177Y027354D01*
X006177Y027742D01*
X005750Y027742D01*
X005735Y027604D02*
X005750Y027604D01*
X005735Y027445D02*
X005773Y027445D01*
X005735Y027287D02*
X007144Y027287D01*
X007302Y027445D02*
X006677Y027445D01*
X006273Y027445D02*
X006177Y027445D01*
X006177Y027604D02*
X006273Y027604D01*
X005750Y027921D02*
X005735Y027921D01*
X005735Y028079D02*
X005752Y028079D01*
X005762Y028116D02*
X005762Y028116D01*
X005475Y028500D02*
X005475Y029250D01*
X005754Y029506D02*
X014225Y029506D01*
X014225Y029347D02*
X005853Y029347D01*
X005853Y029189D02*
X014225Y029189D01*
X014225Y029030D02*
X013585Y029030D01*
X013585Y029031D02*
X013551Y029064D01*
X013510Y029088D01*
X013464Y029100D01*
X013233Y029100D01*
X013233Y028673D01*
X013621Y028673D01*
X013621Y028944D01*
X013608Y028990D01*
X013585Y029031D01*
X013621Y028872D02*
X014225Y028872D01*
X014225Y028713D02*
X013621Y028713D01*
X013621Y028577D02*
X013233Y028577D01*
X013233Y028673D01*
X013137Y028673D01*
X013137Y029100D01*
X012905Y029100D01*
X012859Y029088D01*
X012859Y029088D01*
X012846Y029100D01*
X012185Y029100D01*
X012079Y028995D01*
X012079Y028885D01*
X010916Y028885D01*
X010916Y029054D01*
X010810Y029159D01*
X010189Y029159D01*
X010083Y029054D01*
X010083Y028196D01*
X010092Y028188D01*
X010083Y028179D01*
X010083Y027321D01*
X010092Y027313D01*
X010083Y027304D01*
X010083Y026446D01*
X010189Y026341D01*
X010240Y026341D01*
X010240Y025507D01*
X010235Y025503D01*
X010068Y025503D01*
X009847Y025282D01*
X009847Y024968D01*
X010068Y024747D01*
X010382Y024747D01*
X010603Y024968D01*
X010603Y025135D01*
X010720Y025252D01*
X010760Y025348D01*
X010760Y026341D01*
X010810Y026341D01*
X010916Y026446D01*
X010916Y027304D01*
X010907Y027313D01*
X010916Y027321D01*
X010916Y027370D01*
X011112Y027370D01*
X011250Y027233D01*
X011250Y027004D01*
X011262Y026991D01*
X011250Y026945D01*
X011250Y026713D01*
X011677Y026713D01*
X011677Y026617D01*
X011773Y026617D01*
X011773Y026229D01*
X012044Y026229D01*
X012090Y026242D01*
X012131Y026265D01*
X012162Y026297D01*
X012230Y026229D01*
X012340Y026229D01*
X012340Y025733D01*
X012235Y025628D01*
X012068Y025628D01*
X011847Y025407D01*
X011847Y025093D01*
X012068Y024872D01*
X012382Y024872D01*
X012603Y025093D01*
X012603Y025260D01*
X012820Y025478D01*
X012860Y025573D01*
X012860Y026229D01*
X012970Y026229D01*
X013075Y026335D01*
X013075Y026996D01*
X013071Y027000D01*
X013075Y027004D01*
X013075Y027665D01*
X012970Y027771D01*
X012775Y027771D01*
X012775Y028150D01*
X012846Y028150D01*
X012859Y028162D01*
X012905Y028150D01*
X013137Y028150D01*
X013137Y028577D01*
X013233Y028577D01*
X013233Y028150D01*
X013464Y028150D01*
X013510Y028162D01*
X013551Y028186D01*
X013585Y028219D01*
X013608Y028260D01*
X013621Y028306D01*
X013621Y028577D01*
X013621Y028555D02*
X014225Y028555D01*
X014225Y028396D02*
X013621Y028396D01*
X013595Y028238D02*
X014225Y028238D01*
X014225Y028079D02*
X012775Y028079D01*
X012859Y028162D02*
X012859Y028162D01*
X012775Y027921D02*
X014225Y027921D01*
X014225Y027762D02*
X012978Y027762D01*
X013075Y027604D02*
X014225Y027604D01*
X014225Y027445D02*
X013075Y027445D01*
X013075Y027287D02*
X014225Y027287D01*
X014225Y027128D02*
X013075Y027128D01*
X013075Y026970D02*
X014225Y026970D01*
X014225Y026811D02*
X013075Y026811D01*
X013075Y026653D02*
X014225Y026653D01*
X014225Y026494D02*
X013075Y026494D01*
X013075Y026336D02*
X014225Y026336D01*
X014225Y026177D02*
X012860Y026177D01*
X012860Y026019D02*
X014225Y026019D01*
X014225Y025860D02*
X012860Y025860D01*
X012860Y025702D02*
X014225Y025702D01*
X014225Y025543D02*
X012847Y025543D01*
X012727Y025385D02*
X014225Y025385D01*
X014225Y025226D02*
X012603Y025226D01*
X012577Y025068D02*
X014225Y025068D01*
X014225Y024909D02*
X012419Y024909D01*
X012031Y024909D02*
X010544Y024909D01*
X010603Y025068D02*
X011873Y025068D01*
X011847Y025226D02*
X010694Y025226D01*
X010760Y025385D02*
X011847Y025385D01*
X011983Y025543D02*
X010760Y025543D01*
X010760Y025702D02*
X012309Y025702D01*
X012340Y025860D02*
X010760Y025860D01*
X010760Y026019D02*
X012340Y026019D01*
X012340Y026177D02*
X010760Y026177D01*
X010760Y026336D02*
X011265Y026336D01*
X011262Y026340D02*
X011286Y026299D01*
X011319Y026265D01*
X011360Y026242D01*
X011406Y026229D01*
X011677Y026229D01*
X011677Y026617D01*
X011250Y026617D01*
X011250Y026386D01*
X011262Y026340D01*
X011250Y026494D02*
X010916Y026494D01*
X010916Y026653D02*
X011677Y026653D01*
X011677Y026494D02*
X011773Y026494D01*
X011773Y026336D02*
X011677Y026336D01*
X011250Y026811D02*
X010916Y026811D01*
X010916Y026970D02*
X011256Y026970D01*
X011262Y026991D02*
X011262Y026991D01*
X011250Y027128D02*
X010916Y027128D01*
X010916Y027287D02*
X011196Y027287D01*
X011515Y027335D02*
X011100Y027750D01*
X011180Y028128D02*
X011176Y028130D01*
X010916Y028130D01*
X010916Y028179D01*
X010907Y028188D01*
X010916Y028196D01*
X010916Y028365D01*
X012079Y028365D01*
X012079Y028255D01*
X012185Y028150D01*
X012255Y028150D01*
X012255Y027771D01*
X012230Y027771D01*
X012163Y027703D01*
X012095Y027771D01*
X011480Y027771D01*
X011480Y027826D01*
X011478Y027830D01*
X011478Y027907D01*
X011424Y027961D01*
X011422Y027965D01*
X011315Y028072D01*
X011311Y028074D01*
X011257Y028128D01*
X011180Y028128D01*
X011306Y028079D02*
X012255Y028079D01*
X012255Y027921D02*
X011464Y027921D01*
X010916Y028238D02*
X012097Y028238D01*
X012103Y027762D02*
X012222Y027762D01*
X012515Y027419D02*
X012600Y027335D01*
X012515Y027419D02*
X012515Y028625D01*
X010500Y028625D01*
X010916Y029030D02*
X012115Y029030D01*
X013137Y029030D02*
X013233Y029030D01*
X013233Y028872D02*
X013137Y028872D01*
X013137Y028713D02*
X013233Y028713D01*
X013233Y028555D02*
X013137Y028555D01*
X013137Y028396D02*
X013233Y028396D01*
X013233Y028238D02*
X013137Y028238D01*
X011725Y027335D02*
X011515Y027335D01*
X010500Y026875D02*
X010500Y025400D01*
X010225Y025125D01*
X009950Y025385D02*
X009847Y025385D01*
X009821Y025358D02*
X009992Y025529D01*
X010085Y025754D01*
X010085Y025996D01*
X009992Y026221D01*
X009821Y026392D01*
X009617Y026477D01*
X009617Y027304D01*
X009608Y027313D01*
X009617Y027321D01*
X009617Y028179D01*
X009608Y028188D01*
X009617Y028196D01*
X009617Y029054D01*
X009511Y029159D01*
X008890Y029159D01*
X008784Y029054D01*
X008784Y028879D01*
X008703Y028845D01*
X006334Y026477D01*
X006129Y026392D01*
X005958Y026221D01*
X005865Y025996D01*
X005865Y025754D01*
X005958Y025529D01*
X006129Y025358D01*
X006354Y025265D01*
X006596Y025265D01*
X006821Y025358D01*
X006980Y025518D01*
X007010Y025478D01*
X007078Y025410D01*
X007155Y025353D01*
X007241Y025310D01*
X007332Y025280D01*
X007427Y025265D01*
X007475Y025265D01*
X007523Y025265D01*
X007618Y025280D01*
X007709Y025310D01*
X007795Y025353D01*
X007872Y025410D01*
X007940Y025478D01*
X007970Y025518D01*
X008129Y025358D01*
X008354Y025265D01*
X008596Y025265D01*
X008821Y025358D01*
X008975Y025512D01*
X009129Y025358D01*
X009354Y025265D01*
X009596Y025265D01*
X009821Y025358D01*
X009847Y025226D02*
X001485Y025226D01*
X001485Y025229D02*
X001595Y025229D01*
X001700Y025335D01*
X001700Y025996D01*
X001696Y026000D01*
X001700Y026004D01*
X001700Y026665D01*
X001595Y026771D01*
X001485Y026771D01*
X001485Y026961D01*
X001595Y026961D01*
X001700Y027066D01*
X001700Y027806D01*
X001595Y027911D01*
X000855Y027911D01*
X000750Y027806D01*
X000750Y027066D01*
X000855Y026961D01*
X000965Y026961D01*
X000965Y026771D01*
X000855Y026771D01*
X000750Y026665D01*
X000750Y026004D01*
X000754Y026000D01*
X000750Y025996D01*
X000750Y025335D01*
X000855Y025229D01*
X000965Y025229D01*
X000965Y024983D01*
X000703Y024720D01*
X000630Y024647D01*
X000590Y024552D01*
X000590Y008698D01*
X000630Y008603D01*
X000880Y008353D01*
X000953Y008280D01*
X001048Y008240D01*
X001112Y008240D01*
X001134Y008188D01*
X001288Y008034D01*
X001370Y008000D01*
X001312Y007970D01*
X001242Y007920D01*
X001180Y007858D01*
X001130Y007788D01*
X001090Y007711D01*
X001064Y007629D01*
X001050Y007543D01*
X001050Y007520D01*
X001580Y007520D01*
X001580Y007480D01*
X001050Y007480D01*
X001050Y007457D01*
X001064Y007371D01*
X001090Y007289D01*
X001130Y007212D01*
X001180Y007142D01*
X001242Y007080D01*
X001312Y007030D01*
X001370Y007000D01*
X001288Y006966D01*
X001134Y006812D01*
X001050Y006609D01*
X001050Y006391D01*
X001134Y006188D01*
X001288Y006034D01*
X001491Y005950D01*
X001709Y005950D01*
X001912Y006034D01*
X002066Y006188D01*
X002150Y006391D01*
X002150Y006609D01*
X002066Y006812D01*
X001912Y006966D01*
X001830Y007000D01*
X001888Y007030D01*
X001958Y007080D01*
X002020Y007142D01*
X002070Y007212D01*
X002110Y007289D01*
X002136Y007371D01*
X002150Y007457D01*
X002150Y007480D01*
X001620Y007480D01*
X001620Y007520D01*
X002150Y007520D01*
X002150Y007543D01*
X002136Y007629D01*
X002110Y007711D01*
X002070Y007788D01*
X002020Y007858D01*
X001958Y007920D01*
X001888Y007970D01*
X001830Y008000D01*
X001912Y008034D01*
X002066Y008188D01*
X002150Y008391D01*
X002150Y008609D01*
X002129Y008661D01*
X002570Y009103D01*
X002610Y009198D01*
X002610Y009517D01*
X003208Y010115D01*
X004617Y010115D01*
X004768Y009965D01*
X004863Y009925D01*
X004958Y009925D01*
X004958Y009885D01*
X004798Y009885D01*
X004703Y009845D01*
X004578Y009720D01*
X004505Y009647D01*
X004465Y009552D01*
X004465Y009475D01*
X004354Y009475D01*
X004350Y009471D01*
X004346Y009475D01*
X004117Y009475D01*
X003978Y009615D01*
X003978Y009782D01*
X003757Y010003D01*
X003443Y010003D01*
X003222Y009782D01*
X003222Y009468D01*
X003443Y009247D01*
X003579Y009247D01*
X003579Y008630D01*
X003685Y008525D01*
X004346Y008525D01*
X004350Y008529D01*
X004354Y008525D01*
X004425Y008525D01*
X004425Y008489D01*
X004464Y008393D01*
X004715Y008142D01*
X004715Y008055D01*
X004600Y008055D01*
X004495Y007950D01*
X004495Y006300D01*
X004595Y006200D01*
X004595Y005799D01*
X004653Y005660D01*
X005028Y005285D01*
X005135Y005178D01*
X005274Y005120D01*
X007595Y005120D01*
X007595Y004760D01*
X007500Y004665D01*
X007500Y004004D01*
X007512Y003991D01*
X007500Y003945D01*
X007500Y003713D01*
X007927Y003713D01*
X007927Y003617D01*
X008023Y003617D01*
X008023Y003229D01*
X008294Y003229D01*
X008340Y003242D01*
X008381Y003265D01*
X008414Y003299D01*
X008438Y003340D01*
X008450Y003386D01*
X008450Y003617D01*
X008023Y003617D01*
X008023Y003713D01*
X008450Y003713D01*
X008450Y003945D01*
X008438Y003991D01*
X008438Y003991D01*
X008450Y004004D01*
X008450Y004665D01*
X008355Y004760D01*
X008355Y005120D01*
X009193Y005120D01*
X009470Y004843D01*
X009470Y004682D01*
X009460Y004682D01*
X009355Y004577D01*
X009355Y003049D01*
X009460Y002944D01*
X010240Y002944D01*
X010345Y003049D01*
X010345Y004490D01*
X012855Y004490D01*
X012855Y003049D01*
X012960Y002944D01*
X013740Y002944D01*
X013845Y003049D01*
X013845Y003137D01*
X014255Y002728D01*
X014328Y002655D01*
X014423Y002615D01*
X016200Y002615D01*
X016318Y002497D01*
X016632Y002497D01*
X016853Y002718D01*
X016853Y002885D01*
X017069Y003102D01*
X017109Y003197D01*
X017109Y003274D01*
X017137Y003302D01*
X017137Y003924D01*
X017032Y004029D01*
X016666Y004029D01*
X016561Y003924D01*
X016561Y003328D01*
X016485Y003253D01*
X016340Y003253D01*
X016389Y003302D01*
X016389Y003924D01*
X016284Y004029D01*
X015918Y004029D01*
X015825Y003936D01*
X015825Y004037D01*
X015398Y004037D01*
X015398Y004133D01*
X015825Y004133D01*
X015825Y004314D01*
X015918Y004221D01*
X016284Y004221D01*
X016297Y004233D01*
X016343Y004221D01*
X016475Y004221D01*
X016607Y004221D01*
X016653Y004233D01*
X016653Y004233D01*
X016666Y004221D01*
X017032Y004221D01*
X017137Y004326D01*
X017137Y004948D01*
X017110Y004975D01*
X017110Y005052D01*
X017070Y005147D01*
X016997Y005220D01*
X016872Y005345D01*
X016777Y005385D01*
X016173Y005385D01*
X016078Y005345D01*
X016005Y005272D01*
X015881Y005148D01*
X015841Y005053D01*
X015841Y005010D01*
X010230Y005010D01*
X010230Y005076D01*
X010172Y005215D01*
X009672Y005715D01*
X009647Y005740D01*
X010742Y005740D01*
X011130Y005353D01*
X011130Y005353D01*
X011203Y005280D01*
X011298Y005240D01*
X015152Y005240D01*
X015247Y005280D01*
X015320Y005353D01*
X015458Y005490D01*
X017467Y005490D01*
X017467Y005490D01*
X017454Y005444D01*
X017454Y005173D01*
X017842Y005173D01*
X017842Y005077D01*
X017454Y005077D01*
X017454Y004806D01*
X017467Y004760D01*
X017490Y004719D01*
X017524Y004686D01*
X017565Y004662D01*
X017611Y004650D01*
X017842Y004650D01*
X017842Y005077D01*
X017938Y005077D01*
X017938Y004650D01*
X018170Y004650D01*
X018216Y004662D01*
X018216Y004662D01*
X018229Y004650D01*
X018300Y004650D01*
X018300Y004600D01*
X018229Y004600D01*
X018216Y004588D01*
X018170Y004600D01*
X017938Y004600D01*
X017938Y004173D01*
X017842Y004173D01*
X017842Y004077D01*
X017454Y004077D01*
X017454Y003806D01*
X017467Y003760D01*
X017490Y003719D01*
X017524Y003686D01*
X017565Y003662D01*
X017611Y003650D01*
X017842Y003650D01*
X017842Y004077D01*
X017938Y004077D01*
X017938Y003650D01*
X018170Y003650D01*
X018216Y003662D01*
X018216Y003662D01*
X018229Y003650D01*
X018300Y003650D01*
X018300Y003600D01*
X017979Y003600D01*
X017975Y003596D01*
X017971Y003600D01*
X017310Y003600D01*
X017204Y003495D01*
X017204Y003069D01*
X016605Y002469D01*
X016179Y002469D01*
X016090Y002380D01*
X015524Y002380D01*
X015520Y002378D01*
X015443Y002378D01*
X015389Y002324D01*
X015385Y002322D01*
X015278Y002215D01*
X015276Y002211D01*
X015222Y002157D01*
X015222Y002080D01*
X015220Y002076D01*
X015220Y001924D01*
X015222Y001920D01*
X015222Y001843D01*
X015276Y001789D01*
X015278Y001785D01*
X015385Y001678D01*
X015389Y001676D01*
X015443Y001622D01*
X015520Y001622D01*
X015524Y001620D01*
X016090Y001620D01*
X016179Y001531D01*
X016828Y001531D01*
X016934Y001636D01*
X016934Y002062D01*
X017521Y002650D01*
X017971Y002650D01*
X017975Y002654D01*
X017979Y002650D01*
X018640Y002650D01*
X018746Y002755D01*
X018746Y003193D01*
X018780Y003228D01*
X018820Y003323D01*
X018820Y003650D01*
X018890Y003650D01*
X018996Y003755D01*
X018996Y004495D01*
X018890Y004600D01*
X018820Y004600D01*
X018820Y004650D01*
X018890Y004650D01*
X018996Y004755D01*
X018996Y005490D01*
X019075Y005490D01*
X019193Y005372D01*
X019507Y005372D01*
X019728Y005593D01*
X019728Y005907D01*
X019507Y006128D01*
X019193Y006128D01*
X019075Y006010D01*
X015603Y006010D01*
X016083Y006490D01*
X021652Y006490D01*
X021747Y006530D01*
X023458Y008240D01*
X025277Y008240D01*
X025372Y008280D01*
X026320Y009228D01*
X026360Y009323D01*
X026360Y009870D01*
X026371Y009880D01*
X026371Y010620D01*
X026360Y010630D01*
X026360Y015486D01*
X026371Y015486D01*
X026477Y015592D01*
X026477Y016292D01*
X026416Y016352D01*
X026562Y016352D01*
X026590Y016324D01*
X026590Y013025D01*
X026472Y012907D01*
X026472Y012593D01*
X026693Y012372D01*
X027007Y012372D01*
X027228Y012593D01*
X027228Y012907D01*
X027110Y013025D01*
X027110Y016484D01*
X027070Y016579D01*
X026851Y016799D01*
X026851Y017158D01*
X026745Y017264D01*
X026735Y017264D01*
X026735Y017275D01*
X026765Y017275D01*
X026871Y017380D01*
X026871Y018120D01*
X026765Y018225D01*
X026735Y018225D01*
X026735Y018927D01*
X026695Y019022D01*
X026622Y019095D01*
X026372Y019345D01*
X026277Y019385D01*
X023250Y019385D01*
X023132Y019503D01*
X022818Y019503D01*
X022597Y019282D01*
X022597Y018968D01*
X022818Y018747D01*
X023132Y018747D01*
X023250Y018865D01*
X026117Y018865D01*
X026215Y018767D01*
X026215Y018225D01*
X026104Y018225D01*
X026100Y018221D01*
X026096Y018225D01*
X025435Y018225D01*
X025329Y018120D01*
X025329Y017380D01*
X025435Y017275D01*
X025466Y017275D01*
X025466Y017264D01*
X025455Y017264D01*
X025349Y017158D01*
X025349Y017010D01*
X025298Y017010D01*
X025203Y016970D01*
X025130Y016897D01*
X024880Y016647D01*
X024840Y016552D01*
X024840Y014733D01*
X024811Y014704D01*
X024811Y014704D01*
X024811Y014857D01*
X024276Y014857D01*
X023742Y014857D01*
X023742Y014696D01*
X023746Y014680D01*
X023742Y014676D01*
X023742Y014271D01*
X023075Y014271D01*
X023075Y014371D01*
X023063Y014384D01*
X023075Y014430D01*
X023075Y014662D01*
X022648Y014662D01*
X022648Y014758D01*
X022552Y014758D01*
X022552Y015146D01*
X022281Y015146D01*
X022235Y015133D01*
X022194Y015110D01*
X022161Y015076D01*
X022137Y015035D01*
X022125Y014989D01*
X022125Y014758D01*
X022552Y014758D01*
X022552Y014662D01*
X022125Y014662D01*
X022125Y014430D01*
X022137Y014384D01*
X022137Y014384D01*
X022125Y014371D01*
X022125Y013710D01*
X022230Y013604D01*
X022340Y013604D01*
X022340Y013396D01*
X022230Y013396D01*
X022125Y013290D01*
X022125Y012629D01*
X022129Y012625D01*
X022125Y012621D01*
X022125Y011960D01*
X022215Y011870D01*
X022215Y011295D01*
X022132Y011378D01*
X021818Y011378D01*
X021700Y011260D01*
X021088Y011260D01*
X021066Y011312D01*
X020912Y011466D01*
X020830Y011500D01*
X020912Y011534D01*
X021066Y011688D01*
X021150Y011891D01*
X021150Y012109D01*
X021066Y012312D01*
X020912Y012466D01*
X020830Y012500D01*
X020888Y012530D01*
X020958Y012580D01*
X021020Y012642D01*
X021070Y012712D01*
X021110Y012789D01*
X021136Y012871D01*
X021150Y012957D01*
X021150Y012980D01*
X020620Y012980D01*
X020620Y013020D01*
X021150Y013020D01*
X021150Y013043D01*
X021136Y013129D01*
X021110Y013211D01*
X021070Y013288D01*
X021020Y013358D01*
X020958Y013420D01*
X020888Y013470D01*
X020830Y013500D01*
X020888Y013530D01*
X020958Y013580D01*
X021020Y013642D01*
X021070Y013712D01*
X021110Y013789D01*
X021136Y013871D01*
X021150Y013957D01*
X021150Y013980D01*
X020620Y013980D01*
X020620Y014020D01*
X021150Y014020D01*
X021150Y014043D01*
X021136Y014129D01*
X021110Y014211D01*
X021070Y014288D01*
X021020Y014358D01*
X020958Y014420D01*
X020888Y014470D01*
X020830Y014500D01*
X020912Y014534D01*
X021066Y014688D01*
X021150Y014891D01*
X021150Y015109D01*
X021066Y015312D01*
X020912Y015466D01*
X020709Y015550D01*
X020491Y015550D01*
X020288Y015466D01*
X020134Y015312D01*
X020050Y015109D01*
X020050Y014891D01*
X020134Y014688D01*
X020288Y014534D01*
X020370Y014500D01*
X020312Y014470D01*
X020242Y014420D01*
X020180Y014358D01*
X020130Y014288D01*
X020090Y014211D01*
X020064Y014129D01*
X020050Y014043D01*
X020050Y014020D01*
X020580Y014020D01*
X020580Y013980D01*
X020050Y013980D01*
X020050Y013957D01*
X020064Y013871D01*
X020090Y013789D01*
X020130Y013712D01*
X020180Y013642D01*
X020242Y013580D01*
X020312Y013530D01*
X020370Y013500D01*
X020312Y013470D01*
X020242Y013420D01*
X020180Y013358D01*
X020130Y013288D01*
X020090Y013211D01*
X020064Y013129D01*
X020050Y013043D01*
X020050Y013020D01*
X020580Y013020D01*
X020580Y013980D01*
X020620Y013980D01*
X020620Y013450D01*
X020620Y013020D01*
X020580Y013020D01*
X020580Y012980D01*
X020050Y012980D01*
X020050Y012957D01*
X020064Y012871D01*
X020090Y012789D01*
X020130Y012712D01*
X020180Y012642D01*
X020242Y012580D01*
X020312Y012530D01*
X020370Y012500D01*
X020288Y012466D01*
X020134Y012312D01*
X020050Y012109D01*
X020050Y011891D01*
X020134Y011688D01*
X020288Y011534D01*
X020370Y011500D01*
X020288Y011466D01*
X020134Y011312D01*
X020050Y011109D01*
X020050Y010891D01*
X020134Y010688D01*
X020288Y010534D01*
X020370Y010500D01*
X020288Y010466D01*
X020134Y010312D01*
X020050Y010109D01*
X020050Y009891D01*
X020134Y009688D01*
X020288Y009534D01*
X020370Y009500D01*
X020288Y009466D01*
X020134Y009312D01*
X020050Y009109D01*
X020050Y008891D01*
X020134Y008688D01*
X020288Y008534D01*
X020370Y008500D01*
X020288Y008466D01*
X020134Y008312D01*
X020050Y008109D01*
X020050Y007891D01*
X020134Y007688D01*
X020288Y007534D01*
X020491Y007450D01*
X020709Y007450D01*
X020912Y007534D01*
X021066Y007688D01*
X021150Y007891D01*
X021150Y008109D01*
X021066Y008312D01*
X020912Y008466D01*
X020830Y008500D01*
X020912Y008534D01*
X021066Y008688D01*
X021150Y008891D01*
X021150Y009109D01*
X021066Y009312D01*
X020912Y009466D01*
X020830Y009500D01*
X020912Y009534D01*
X021066Y009688D01*
X021150Y009891D01*
X021150Y010109D01*
X021066Y010312D01*
X020912Y010466D01*
X020830Y010500D01*
X020912Y010534D01*
X021066Y010688D01*
X021088Y010740D01*
X021700Y010740D01*
X021818Y010622D01*
X022132Y010622D01*
X022215Y010705D01*
X022215Y008108D01*
X021150Y008108D01*
X021150Y007950D02*
X022057Y007950D01*
X022215Y008108D02*
X021492Y007385D01*
X017608Y007385D01*
X017608Y007385D01*
X017621Y007431D01*
X017621Y007702D01*
X017233Y007702D01*
X017233Y007798D01*
X017621Y007798D01*
X017621Y008069D01*
X017608Y008115D01*
X017585Y008156D01*
X017553Y008188D01*
X017621Y008255D01*
X017621Y008655D01*
X018375Y008655D01*
X018375Y008585D01*
X018480Y008479D01*
X019220Y008479D01*
X019325Y008585D01*
X019325Y009246D01*
X019321Y009250D01*
X019325Y009254D01*
X019325Y009915D01*
X019220Y010021D01*
X019110Y010021D01*
X019110Y010229D01*
X019220Y010229D01*
X019325Y010335D01*
X019325Y010996D01*
X019321Y011000D01*
X019325Y011004D01*
X019325Y011665D01*
X019220Y011771D01*
X019022Y011771D01*
X018986Y011857D01*
X018818Y012025D01*
X018846Y012025D01*
X018859Y012037D01*
X018905Y012025D01*
X019137Y012025D01*
X019137Y012452D01*
X019233Y012452D01*
X019233Y012548D01*
X019621Y012548D01*
X019621Y012819D01*
X019608Y012865D01*
X019585Y012906D01*
X019551Y012939D01*
X019510Y012963D01*
X019464Y012975D01*
X019233Y012975D01*
X019233Y012548D01*
X019137Y012548D01*
X019137Y012975D01*
X018905Y012975D01*
X018859Y012963D01*
X018859Y012963D01*
X018846Y012975D01*
X018185Y012975D01*
X018095Y012885D01*
X016173Y012885D01*
X016078Y012845D01*
X016005Y012772D01*
X015755Y012522D01*
X015727Y012457D01*
X015725Y012454D01*
X015704Y012476D01*
X015663Y012499D01*
X015617Y012512D01*
X015475Y012512D01*
X015396Y012512D01*
X015603Y012718D01*
X015603Y013032D01*
X015530Y013105D01*
X015531Y013104D01*
X015802Y013104D01*
X015802Y013492D01*
X015898Y013492D01*
X015898Y013104D01*
X016169Y013104D01*
X016215Y013117D01*
X016256Y013140D01*
X016289Y013174D01*
X016313Y013215D01*
X016325Y013261D01*
X016325Y013492D01*
X015898Y013492D01*
X015898Y013588D01*
X016325Y013588D01*
X016325Y013820D01*
X016313Y013866D01*
X016313Y013866D01*
X016325Y013879D01*
X016325Y013950D01*
X016575Y013950D01*
X016693Y013832D01*
X016860Y013832D01*
X017287Y013405D01*
X017383Y013365D01*
X018079Y013365D01*
X018079Y013255D01*
X018185Y013150D01*
X018846Y013150D01*
X018850Y013154D01*
X018854Y013150D01*
X019515Y013150D01*
X019621Y013255D01*
X019621Y013528D01*
X019872Y013780D01*
X019945Y013853D01*
X019985Y013948D01*
X019985Y015392D01*
X020208Y015615D01*
X021527Y015615D01*
X021622Y015655D01*
X022195Y016228D01*
X022235Y016323D01*
X022235Y019142D01*
X024921Y021828D01*
X024960Y021924D01*
X024960Y022934D01*
X025154Y022934D01*
X025250Y023030D01*
X025250Y022960D01*
X025355Y022854D01*
X026095Y022854D01*
X026200Y022960D01*
X026200Y023030D01*
X026296Y022934D01*
X026345Y022934D01*
X026345Y022479D01*
X026340Y022467D01*
X026340Y022323D01*
X026380Y022228D01*
X026453Y022155D01*
X026548Y022115D01*
X026652Y022115D01*
X026664Y022120D01*
X026801Y022120D01*
X026805Y022122D01*
X026882Y022122D01*
X026936Y022176D01*
X026940Y022178D01*
X027047Y022285D01*
X027049Y022289D01*
X027103Y022343D01*
X027103Y022420D01*
X027105Y022424D01*
X027105Y022934D01*
X027154Y022934D01*
X027225Y023005D01*
X027296Y022934D01*
X027345Y022934D01*
X027345Y022407D01*
X025193Y020255D01*
X023649Y020255D01*
X023645Y020253D01*
X023568Y020253D01*
X023514Y020199D01*
X023510Y020197D01*
X023403Y020090D01*
X023401Y020086D01*
X023347Y020032D01*
X023347Y019955D01*
X023345Y019951D01*
X023345Y019799D01*
X023347Y019795D01*
X023347Y019718D01*
X023401Y019664D01*
X023403Y019660D01*
X023510Y019553D01*
X023514Y019551D01*
X023568Y019497D01*
X023645Y019497D01*
X023649Y019495D01*
X025426Y019495D01*
X025565Y019553D01*
X027940Y021928D01*
X028047Y022035D01*
X028105Y022174D01*
X028105Y022934D01*
X028154Y022934D01*
X028259Y023040D01*
X028259Y023661D01*
X028154Y023767D01*
X027296Y023767D01*
X027225Y023696D01*
X027154Y023767D01*
X026296Y023767D01*
X026197Y023667D01*
X026200Y023680D01*
X026200Y023912D01*
X025773Y023912D01*
X025773Y024008D01*
X025677Y024008D01*
X025677Y024396D01*
X025406Y024396D01*
X025360Y024383D01*
X025319Y024360D01*
X025286Y024326D01*
X025262Y024285D01*
X025250Y024239D01*
X025250Y024008D01*
X025677Y024008D01*
X025677Y023912D01*
X025250Y023912D01*
X025250Y023680D01*
X025253Y023667D01*
X025154Y023767D01*
X024296Y023767D01*
X024225Y023696D01*
X024154Y023767D01*
X023296Y023767D01*
X023225Y023696D01*
X023154Y023767D01*
X022296Y023767D01*
X022200Y023671D01*
X022200Y024121D01*
X022188Y024134D01*
X022200Y024180D01*
X022200Y024329D01*
X022296Y024233D01*
X023154Y024233D01*
X023225Y024304D01*
X023296Y024233D01*
X024154Y024233D01*
X024225Y024304D01*
X024296Y024233D01*
X025154Y024233D01*
X025259Y024339D01*
X025259Y024960D01*
X025154Y025066D01*
X024985Y025066D01*
X024985Y025538D01*
X024997Y025543D01*
X025132Y025678D01*
X025205Y025855D01*
X025205Y026645D01*
X025132Y026822D01*
X024997Y026957D01*
X024820Y027030D01*
X024630Y027030D01*
X024453Y026957D01*
X024318Y026822D01*
X024245Y026645D01*
X024245Y025855D01*
X024318Y025678D01*
X024453Y025543D01*
X024465Y025538D01*
X024465Y025066D01*
X024296Y025066D01*
X024225Y024995D01*
X024154Y025066D01*
X023985Y025066D01*
X023985Y025538D01*
X023997Y025543D01*
X024132Y025678D01*
X024205Y025855D01*
X024205Y026645D01*
X024132Y026822D01*
X023997Y026957D01*
X023820Y027030D01*
X023630Y027030D01*
X023453Y026957D01*
X023318Y026822D01*
X023245Y026645D01*
X023245Y025855D01*
X023318Y025678D01*
X023453Y025543D01*
X023465Y025538D01*
X023465Y025066D01*
X023296Y025066D01*
X023225Y024995D01*
X023154Y025066D01*
X022985Y025066D01*
X022985Y025538D01*
X022997Y025543D01*
X023132Y025678D01*
X023205Y025855D01*
X023205Y026645D01*
X023132Y026822D01*
X022997Y026957D01*
X022820Y027030D01*
X022630Y027030D01*
X022453Y026957D01*
X022318Y026822D01*
X022245Y026645D01*
X022245Y025855D01*
X022318Y025678D01*
X022453Y025543D01*
X022465Y025538D01*
X022465Y025066D01*
X022296Y025066D01*
X022191Y024960D01*
X022191Y024775D01*
X022188Y024785D01*
X022164Y024826D01*
X022131Y024860D01*
X022090Y024883D01*
X022044Y024896D01*
X021773Y024896D01*
X021773Y024508D01*
X021677Y024508D01*
X021677Y024896D01*
X021406Y024896D01*
X021360Y024883D01*
X021319Y024860D01*
X021286Y024826D01*
X021262Y024785D01*
X021250Y024739D01*
X021250Y024508D01*
X021677Y024508D01*
X021677Y024412D01*
X021250Y024412D01*
X021250Y024180D01*
X021262Y024134D01*
X021262Y024134D01*
X021250Y024121D01*
X021250Y023628D01*
X021068Y023628D01*
X020978Y023538D01*
X020978Y023657D01*
X020757Y023878D01*
X020443Y023878D01*
X020287Y023722D01*
X020132Y023878D01*
X019818Y023878D01*
X019597Y023657D01*
X019597Y023343D01*
X019715Y023225D01*
X019715Y021573D01*
X019755Y021478D01*
X020071Y021161D01*
X020050Y021109D01*
X020050Y020891D01*
X020134Y020688D01*
X020288Y020534D01*
X020370Y020500D01*
X020288Y020466D01*
X020134Y020312D01*
X020050Y020109D01*
X020050Y019891D01*
X020134Y019688D01*
X020288Y019534D01*
X020370Y019500D01*
X020288Y019466D01*
X020134Y019312D01*
X020050Y019109D01*
X020050Y018891D01*
X020134Y018688D01*
X020288Y018534D01*
X020370Y018500D01*
X020288Y018466D01*
X020134Y018312D01*
X020050Y018109D01*
X020050Y017891D01*
X020134Y017688D01*
X020288Y017534D01*
X020370Y017500D01*
X020288Y017466D01*
X020134Y017312D01*
X020050Y017109D01*
X020050Y016891D01*
X020134Y016688D01*
X020288Y016534D01*
X020491Y016450D01*
X020709Y016450D01*
X020912Y016534D01*
X021066Y016688D01*
X021150Y016891D01*
X021150Y017109D01*
X021066Y017312D01*
X020912Y017466D01*
X020830Y017500D01*
X020912Y017534D01*
X021066Y017688D01*
X021150Y017891D01*
X021150Y018109D01*
X021066Y018312D01*
X020912Y018466D01*
X020830Y018500D01*
X020912Y018534D01*
X021066Y018688D01*
X021150Y018891D01*
X021150Y019109D01*
X021066Y019312D01*
X020912Y019466D01*
X020830Y019500D01*
X020912Y019534D01*
X021066Y019688D01*
X021150Y019891D01*
X021150Y020109D01*
X021066Y020312D01*
X020912Y020466D01*
X020830Y020500D01*
X020912Y020534D01*
X021066Y020688D01*
X021088Y020740D01*
X021329Y020740D01*
X021329Y020630D01*
X021435Y020525D01*
X022096Y020525D01*
X022100Y020529D01*
X022104Y020525D01*
X022765Y020525D01*
X022871Y020630D01*
X022871Y021370D01*
X022765Y021475D01*
X022695Y021475D01*
X022695Y021525D01*
X022765Y021525D01*
X022862Y021622D01*
X023132Y021622D01*
X023353Y021843D01*
X023353Y022157D01*
X023132Y022378D01*
X022862Y022378D01*
X022765Y022475D01*
X022360Y022475D01*
X022375Y022490D01*
X023277Y022490D01*
X023372Y022530D01*
X023445Y022603D01*
X023777Y022934D01*
X024154Y022934D01*
X024225Y023005D01*
X024296Y022934D01*
X024440Y022934D01*
X024440Y022083D01*
X021828Y019470D01*
X021755Y019397D01*
X021715Y019302D01*
X021715Y016483D01*
X021367Y016135D01*
X020048Y016135D01*
X019953Y016095D01*
X019880Y016022D01*
X019601Y015744D01*
X019601Y015866D01*
X019589Y015912D01*
X019565Y015953D01*
X019531Y015987D01*
X019490Y016010D01*
X019445Y016023D01*
X019242Y016023D01*
X019242Y015585D01*
X019206Y015585D01*
X019206Y016023D01*
X019166Y016023D01*
X019227Y016083D01*
X019227Y016783D01*
X019125Y016885D01*
X019200Y016960D01*
X019200Y017621D01*
X019188Y017634D01*
X019200Y017680D01*
X019200Y017912D01*
X018773Y017912D01*
X018773Y018008D01*
X018677Y018008D01*
X018677Y018396D01*
X018406Y018396D01*
X018360Y018383D01*
X018319Y018360D01*
X018286Y018326D01*
X018262Y018285D01*
X018250Y018239D01*
X018250Y018008D01*
X018677Y018008D01*
X018677Y017912D01*
X018250Y017912D01*
X018250Y017680D01*
X018262Y017634D01*
X018262Y017634D01*
X018250Y017621D01*
X018250Y017550D01*
X017700Y017550D01*
X017700Y017621D01*
X017696Y017625D01*
X017700Y017629D01*
X017700Y018290D01*
X017595Y018396D01*
X016855Y018396D01*
X016750Y018290D01*
X016750Y018260D01*
X016632Y018378D01*
X016318Y018378D01*
X016278Y018338D01*
X016220Y018396D01*
X015480Y018396D01*
X015375Y018290D01*
X015375Y017629D01*
X015379Y017625D01*
X015375Y017621D01*
X015375Y017128D01*
X015068Y017128D01*
X014950Y017010D01*
X013833Y017010D01*
X012497Y018345D01*
X012402Y018385D01*
X010500Y018385D01*
X010382Y018503D01*
X010068Y018503D01*
X009847Y018282D01*
X009847Y017968D01*
X010055Y017760D01*
X009458Y017760D01*
X009225Y017993D01*
X009225Y018429D01*
X009119Y018534D01*
X008419Y018534D01*
X008314Y018429D01*
X008314Y017571D01*
X008419Y017466D01*
X009017Y017466D01*
X009130Y017353D01*
X009203Y017280D01*
X009298Y017240D01*
X011450Y017240D01*
X011511Y017179D01*
X011650Y017122D01*
X011800Y017122D01*
X011939Y017179D01*
X012000Y017240D01*
X012117Y017240D01*
X013047Y016310D01*
X013047Y016159D01*
X013117Y015991D01*
X013246Y015862D01*
X013414Y015793D01*
X013595Y015793D01*
X013763Y015862D01*
X013891Y015990D01*
X014375Y015990D01*
X014328Y015970D01*
X014255Y015897D01*
X013867Y015510D01*
X011923Y015510D01*
X011828Y015470D01*
X011755Y015397D01*
X010860Y014503D01*
X010693Y014503D01*
X010472Y014282D01*
X010472Y014053D01*
X010470Y014059D01*
X010436Y014127D01*
X010391Y014188D01*
X010338Y014241D01*
X010277Y014286D01*
X010209Y014320D01*
X010137Y014343D01*
X010063Y014355D01*
X009745Y014355D01*
X009745Y013895D01*
X010505Y013895D01*
X010505Y013913D01*
X010501Y013940D01*
X010693Y013747D01*
X010854Y013747D01*
X010578Y013470D01*
X010505Y013397D01*
X010465Y013302D01*
X010465Y013067D01*
X010432Y013147D01*
X010297Y013282D01*
X010120Y013355D01*
X009330Y013355D01*
X009153Y013282D01*
X009018Y013147D01*
X009013Y013135D01*
X008860Y013135D01*
X008860Y014677D01*
X008820Y014772D01*
X008728Y014865D01*
X008728Y015032D01*
X008520Y015240D01*
X009325Y015240D01*
X009443Y015122D01*
X009757Y015122D01*
X009978Y015343D01*
X009978Y015657D01*
X009757Y015878D01*
X009443Y015878D01*
X009325Y015760D01*
X008298Y015760D01*
X008203Y015720D01*
X008130Y015647D01*
X007630Y015147D01*
X007590Y015052D01*
X007590Y014698D01*
X007630Y014603D01*
X007703Y014530D01*
X007780Y014452D01*
X007780Y013267D01*
X007742Y013267D01*
X007742Y013890D01*
X007637Y013995D01*
X007397Y013995D01*
X007397Y014138D01*
X007603Y014343D01*
X007603Y014657D01*
X007382Y014878D01*
X007068Y014878D01*
X006847Y014657D01*
X006847Y014343D01*
X006877Y014313D01*
X006877Y013995D01*
X006822Y013995D01*
X006747Y013995D01*
X006747Y014132D01*
X006825Y014210D01*
X006825Y014871D01*
X006813Y014884D01*
X006825Y014930D01*
X006825Y015162D01*
X006398Y015162D01*
X006398Y015258D01*
X006302Y015258D01*
X006302Y015646D01*
X006031Y015646D01*
X005985Y015633D01*
X005944Y015610D01*
X005911Y015576D01*
X005887Y015535D01*
X005875Y015489D01*
X005875Y015258D01*
X006302Y015258D01*
X006302Y015162D01*
X005875Y015162D01*
X005875Y014930D01*
X005887Y014884D01*
X005887Y014884D01*
X005875Y014871D01*
X005875Y014210D01*
X005980Y014104D01*
X006267Y014104D01*
X006267Y013995D01*
X006193Y013995D01*
X006193Y013565D01*
X006193Y013565D01*
X006193Y013995D01*
X005823Y013995D01*
X005823Y014437D01*
X005783Y014532D01*
X005765Y014550D01*
X005765Y014909D01*
X005707Y014967D01*
X005707Y015467D01*
X005746Y015505D01*
X005746Y016245D01*
X005640Y016350D01*
X004979Y016350D01*
X004971Y016350D01*
X004310Y016350D01*
X004204Y016245D01*
X004204Y015505D01*
X004243Y015467D01*
X004243Y014967D01*
X004185Y014909D01*
X004185Y014091D01*
X004215Y014061D01*
X004215Y013948D01*
X004255Y013853D01*
X004328Y013780D01*
X004763Y013345D01*
X004858Y013305D01*
X004958Y013305D01*
X004958Y013267D01*
X004450Y013267D01*
X002860Y014858D01*
X002860Y016740D01*
X004204Y016740D01*
X004204Y016630D01*
X004310Y016525D01*
X004971Y016525D01*
X004975Y016529D01*
X004979Y016525D01*
X005640Y016525D01*
X005746Y016630D01*
X005746Y016740D01*
X006211Y016740D01*
X006211Y016728D01*
X006317Y016622D01*
X006346Y016622D01*
X006322Y016616D01*
X006281Y016592D01*
X006247Y016558D01*
X006224Y016517D01*
X006211Y016472D01*
X006211Y016269D01*
X006648Y016269D01*
X006648Y016233D01*
X006211Y016233D01*
X006211Y016030D01*
X006224Y015985D01*
X006247Y015944D01*
X006281Y015910D01*
X006322Y015886D01*
X006368Y015874D01*
X006649Y015874D01*
X006649Y016233D01*
X006685Y016233D01*
X006685Y016269D01*
X007123Y016269D01*
X007123Y016309D01*
X007183Y016248D01*
X007883Y016248D01*
X007989Y016354D01*
X007989Y016365D01*
X010463Y016365D01*
X010488Y016339D01*
X010488Y016159D01*
X010558Y015991D01*
X010687Y015862D01*
X010855Y015793D01*
X011036Y015793D01*
X011204Y015862D01*
X011333Y015991D01*
X011403Y016159D01*
X011403Y016341D01*
X011333Y016509D01*
X011204Y016638D01*
X011036Y016707D01*
X010856Y016707D01*
X010718Y016845D01*
X010622Y016885D01*
X007989Y016885D01*
X007989Y016896D01*
X007883Y017002D01*
X007793Y017002D01*
X007793Y017478D01*
X007886Y017571D01*
X007886Y018429D01*
X007781Y018534D01*
X007081Y018534D01*
X006975Y018429D01*
X006975Y017571D01*
X007081Y017466D01*
X007273Y017466D01*
X007273Y017002D01*
X007183Y017002D01*
X007123Y016941D01*
X007123Y017270D01*
X007017Y017376D01*
X006317Y017376D01*
X006211Y017270D01*
X006211Y017260D01*
X005746Y017260D01*
X005746Y017370D01*
X005640Y017475D01*
X004979Y017475D01*
X004975Y017471D01*
X004971Y017475D01*
X004310Y017475D01*
X004204Y017370D01*
X004204Y017260D01*
X002088Y017260D01*
X002066Y017312D01*
X001912Y017466D01*
X001830Y017500D01*
X001912Y017534D01*
X002066Y017688D01*
X002150Y017891D01*
X002150Y018109D01*
X002066Y018312D01*
X001912Y018466D01*
X001830Y018500D01*
X001912Y018534D01*
X002066Y018688D01*
X002150Y018891D01*
X002150Y019109D01*
X002066Y019312D01*
X001912Y019466D01*
X001830Y019500D01*
X001912Y019534D01*
X002066Y019688D01*
X002150Y019891D01*
X002150Y020109D01*
X002066Y020312D01*
X001912Y020466D01*
X001830Y020500D01*
X001912Y020534D01*
X002066Y020688D01*
X002150Y020891D01*
X002150Y021109D01*
X002066Y021312D01*
X001912Y021466D01*
X001830Y021500D01*
X001912Y021534D01*
X002066Y021688D01*
X002150Y021891D01*
X002150Y022109D01*
X002066Y022312D01*
X001912Y022466D01*
X001709Y022550D01*
X001491Y022550D01*
X001288Y022466D01*
X001134Y022312D01*
X001110Y022254D01*
X001110Y024392D01*
X001445Y024728D01*
X001485Y024823D01*
X001485Y025229D01*
X001485Y025068D02*
X009847Y025068D01*
X009906Y024909D02*
X001485Y024909D01*
X001455Y024751D02*
X010065Y024751D01*
X010385Y024751D02*
X014225Y024751D01*
X012600Y025625D02*
X012225Y025250D01*
X012600Y025625D02*
X012600Y026665D01*
X010240Y026336D02*
X009877Y026336D01*
X010010Y026177D02*
X010240Y026177D01*
X010240Y026019D02*
X010076Y026019D01*
X010085Y025860D02*
X010240Y025860D01*
X010240Y025702D02*
X010063Y025702D01*
X009998Y025543D02*
X010240Y025543D01*
X009475Y025875D02*
X009475Y026250D01*
X009225Y026500D01*
X009225Y026850D01*
X009200Y026875D01*
X009617Y026811D02*
X010083Y026811D01*
X010083Y026653D02*
X009617Y026653D01*
X009617Y026494D02*
X010083Y026494D01*
X010083Y026970D02*
X009617Y026970D01*
X009617Y027128D02*
X010083Y027128D01*
X010083Y027287D02*
X009617Y027287D01*
X009617Y027445D02*
X010083Y027445D01*
X010083Y027604D02*
X009617Y027604D01*
X009617Y027762D02*
X010083Y027762D01*
X010083Y027921D02*
X009617Y027921D01*
X009617Y028079D02*
X010083Y028079D01*
X010083Y028238D02*
X009617Y028238D01*
X009617Y028396D02*
X010083Y028396D01*
X010083Y028555D02*
X009617Y028555D01*
X009617Y028713D02*
X010083Y028713D01*
X010083Y028872D02*
X009617Y028872D01*
X009617Y029030D02*
X010083Y029030D01*
X009200Y028625D02*
X008850Y028625D01*
X006475Y026250D01*
X006475Y025875D01*
X006903Y026310D02*
X006980Y026232D01*
X007010Y026272D01*
X007078Y026340D01*
X007155Y026397D01*
X007241Y026440D01*
X007332Y026470D01*
X007427Y026485D01*
X007475Y026485D01*
X007475Y025875D01*
X007475Y025875D01*
X007475Y025265D01*
X007475Y025875D01*
X007475Y025875D01*
X007475Y026485D01*
X007523Y026485D01*
X007618Y026470D01*
X007709Y026440D01*
X007795Y026397D01*
X007872Y026340D01*
X007940Y026272D01*
X007970Y026232D01*
X008095Y026358D01*
X008095Y027502D01*
X006903Y026310D01*
X006928Y026336D02*
X007073Y026336D01*
X007087Y026494D02*
X008095Y026494D01*
X008095Y026653D02*
X007245Y026653D01*
X007404Y026811D02*
X008095Y026811D01*
X008095Y026970D02*
X007562Y026970D01*
X007721Y027128D02*
X008095Y027128D01*
X008095Y027287D02*
X007879Y027287D01*
X008038Y027445D02*
X008095Y027445D01*
X008073Y026336D02*
X007877Y026336D01*
X007475Y026336D02*
X007475Y026336D01*
X007475Y026177D02*
X007475Y026177D01*
X007475Y026019D02*
X007475Y026019D01*
X007475Y025860D02*
X007475Y025860D01*
X007475Y025702D02*
X007475Y025702D01*
X007475Y025543D02*
X007475Y025543D01*
X007475Y025385D02*
X007475Y025385D01*
X007838Y025385D02*
X008103Y025385D01*
X008847Y025385D02*
X009103Y025385D01*
X007112Y025385D02*
X006847Y025385D01*
X006103Y025385D02*
X003894Y025385D01*
X003978Y025468D02*
X003978Y025782D01*
X003757Y026003D01*
X003443Y026003D01*
X003366Y025925D01*
X003200Y025925D01*
X003200Y025996D01*
X003196Y026000D01*
X003200Y026004D01*
X003200Y026665D01*
X003095Y026771D01*
X002985Y026771D01*
X002985Y026961D01*
X003095Y026961D01*
X003200Y027066D01*
X003200Y027806D01*
X003095Y027911D01*
X002355Y027911D01*
X002250Y027806D01*
X002250Y027066D01*
X002355Y026961D01*
X002465Y026961D01*
X002465Y026771D01*
X002355Y026771D01*
X002250Y026665D01*
X002250Y026004D01*
X002254Y026000D01*
X002250Y025996D01*
X002250Y025335D01*
X002355Y025229D01*
X003095Y025229D01*
X003200Y025335D01*
X003200Y025405D01*
X003285Y025405D01*
X003443Y025247D01*
X003757Y025247D01*
X003978Y025468D01*
X003978Y025543D02*
X005952Y025543D01*
X005887Y025702D02*
X003978Y025702D01*
X003900Y025860D02*
X005865Y025860D01*
X005874Y026019D02*
X003200Y026019D01*
X003200Y026177D02*
X003586Y026177D01*
X003586Y026336D02*
X003200Y026336D01*
X003200Y026494D02*
X003603Y026494D01*
X003638Y026653D02*
X003200Y026653D01*
X002985Y026811D02*
X003606Y026811D01*
X003606Y026970D02*
X003104Y026970D01*
X003200Y027128D02*
X003666Y027128D01*
X003586Y027287D02*
X003200Y027287D01*
X003200Y027445D02*
X003586Y027445D01*
X003586Y027604D02*
X003200Y027604D01*
X003200Y027762D02*
X003624Y027762D01*
X003520Y027921D02*
X000580Y027921D01*
X000580Y028079D02*
X003472Y028079D01*
X003472Y028238D02*
X000580Y028238D01*
X000580Y028396D02*
X000798Y028396D01*
X000786Y028408D02*
X000819Y028375D01*
X000860Y028351D01*
X000906Y028339D01*
X001157Y028339D01*
X001157Y028746D01*
X000750Y028746D01*
X000750Y028495D01*
X000762Y028449D01*
X000786Y028408D01*
X000750Y028555D02*
X000580Y028555D01*
X000580Y028713D02*
X000750Y028713D01*
X001157Y028713D02*
X001293Y028713D01*
X001293Y028746D02*
X001293Y028339D01*
X001544Y028339D01*
X001590Y028351D01*
X001631Y028375D01*
X001664Y028408D01*
X001688Y028449D01*
X001700Y028495D01*
X001700Y028746D01*
X001293Y028746D01*
X001293Y028555D02*
X001157Y028555D01*
X001157Y028396D02*
X001293Y028396D01*
X001652Y028396D02*
X002298Y028396D01*
X002286Y028408D02*
X002319Y028375D01*
X002360Y028351D01*
X002406Y028339D01*
X002657Y028339D01*
X002657Y028746D01*
X002250Y028746D01*
X002250Y028495D01*
X002262Y028449D01*
X002286Y028408D01*
X002250Y028555D02*
X001700Y028555D01*
X001700Y028713D02*
X002250Y028713D01*
X002250Y029030D02*
X001700Y029030D01*
X001682Y029189D02*
X002268Y029189D01*
X002657Y029189D02*
X002793Y029189D01*
X002793Y029030D02*
X002657Y029030D01*
X002657Y028713D02*
X002793Y028713D01*
X002793Y028555D02*
X002657Y028555D01*
X002657Y028396D02*
X002793Y028396D01*
X003152Y028396D02*
X003586Y028396D01*
X003850Y028125D02*
X003884Y028091D01*
X003884Y027446D01*
X004735Y027762D02*
X005215Y027762D01*
X005215Y027921D02*
X004735Y027921D01*
X004735Y028079D02*
X005215Y028079D01*
X005215Y028238D02*
X004735Y028238D01*
X004781Y028396D02*
X005215Y028396D01*
X005215Y028555D02*
X004853Y028555D01*
X004853Y028713D02*
X005215Y028713D01*
X005215Y028872D02*
X004763Y028872D01*
X005160Y029030D02*
X003200Y029030D01*
X003182Y029189D02*
X005097Y029189D01*
X005790Y029030D02*
X008784Y029030D01*
X008766Y028872D02*
X006619Y028872D01*
X006700Y028713D02*
X008570Y028713D01*
X008412Y028555D02*
X006700Y028555D01*
X005831Y028872D02*
X005735Y028872D01*
X005735Y027128D02*
X006985Y027128D01*
X006827Y026970D02*
X005735Y026970D01*
X005735Y026811D02*
X006668Y026811D01*
X006510Y026653D02*
X005735Y026653D01*
X005735Y026494D02*
X006351Y026494D01*
X006073Y026336D02*
X005678Y026336D01*
X005520Y026177D02*
X005940Y026177D01*
X003600Y025625D02*
X003560Y025665D01*
X002725Y025665D01*
X003200Y025385D02*
X003306Y025385D01*
X002250Y025385D02*
X001700Y025385D01*
X001700Y025543D02*
X002250Y025543D01*
X002250Y025702D02*
X001700Y025702D01*
X001700Y025860D02*
X002250Y025860D01*
X002250Y026019D02*
X001700Y026019D01*
X001700Y026177D02*
X002250Y026177D01*
X002250Y026336D02*
X001700Y026336D01*
X001700Y026494D02*
X002250Y026494D01*
X002250Y026653D02*
X001700Y026653D01*
X001485Y026811D02*
X002465Y026811D01*
X002346Y026970D02*
X001604Y026970D01*
X001700Y027128D02*
X002250Y027128D01*
X002250Y027287D02*
X001700Y027287D01*
X001700Y027445D02*
X002250Y027445D01*
X002250Y027604D02*
X001700Y027604D01*
X001700Y027762D02*
X002250Y027762D01*
X002725Y027436D02*
X002725Y026335D01*
X001225Y026335D02*
X001225Y027436D01*
X000750Y027445D02*
X000580Y027445D01*
X000580Y027287D02*
X000750Y027287D01*
X000750Y027128D02*
X000580Y027128D01*
X000580Y026970D02*
X000846Y026970D01*
X000965Y026811D02*
X000580Y026811D01*
X000580Y026653D02*
X000750Y026653D01*
X000750Y026494D02*
X000580Y026494D01*
X000580Y026336D02*
X000750Y026336D01*
X000750Y026177D02*
X000580Y026177D01*
X000580Y026019D02*
X000750Y026019D01*
X000750Y025860D02*
X000580Y025860D01*
X000580Y025702D02*
X000750Y025702D01*
X000750Y025543D02*
X000580Y025543D01*
X000580Y025385D02*
X000750Y025385D01*
X000580Y025226D02*
X000965Y025226D01*
X000965Y025068D02*
X000580Y025068D01*
X000580Y024909D02*
X000891Y024909D01*
X000733Y024751D02*
X000580Y024751D01*
X000580Y024592D02*
X000607Y024592D01*
X000590Y024434D02*
X000580Y024434D01*
X000580Y024275D02*
X000590Y024275D01*
X000580Y024117D02*
X000590Y024117D01*
X000580Y023958D02*
X000590Y023958D01*
X000580Y023800D02*
X000590Y023800D01*
X000580Y023641D02*
X000590Y023641D01*
X000580Y023483D02*
X000590Y023483D01*
X000580Y023324D02*
X000590Y023324D01*
X000580Y023166D02*
X000590Y023166D01*
X000580Y023007D02*
X000590Y023007D01*
X000580Y022849D02*
X000590Y022849D01*
X000580Y022690D02*
X000590Y022690D01*
X000580Y022532D02*
X000590Y022532D01*
X000580Y022373D02*
X000590Y022373D01*
X000580Y022215D02*
X000590Y022215D01*
X000580Y022056D02*
X000590Y022056D01*
X000580Y021898D02*
X000590Y021898D01*
X000580Y021739D02*
X000590Y021739D01*
X000580Y021581D02*
X000590Y021581D01*
X000580Y021422D02*
X000590Y021422D01*
X000580Y021264D02*
X000590Y021264D01*
X000580Y021105D02*
X000590Y021105D01*
X000580Y020947D02*
X000590Y020947D01*
X000580Y020788D02*
X000590Y020788D01*
X000580Y020630D02*
X000590Y020630D01*
X000580Y020471D02*
X000590Y020471D01*
X000580Y020313D02*
X000590Y020313D01*
X000580Y020154D02*
X000590Y020154D01*
X000580Y019996D02*
X000590Y019996D01*
X000580Y019837D02*
X000590Y019837D01*
X000580Y019679D02*
X000590Y019679D01*
X000580Y019520D02*
X000590Y019520D01*
X000580Y019362D02*
X000590Y019362D01*
X000580Y019203D02*
X000590Y019203D01*
X000580Y019045D02*
X000590Y019045D01*
X000580Y018886D02*
X000590Y018886D01*
X000580Y018728D02*
X000590Y018728D01*
X000580Y018569D02*
X000590Y018569D01*
X000580Y018411D02*
X000590Y018411D01*
X000580Y018252D02*
X000590Y018252D01*
X000580Y018094D02*
X000590Y018094D01*
X000580Y017935D02*
X000590Y017935D01*
X000580Y017777D02*
X000590Y017777D01*
X000580Y017618D02*
X000590Y017618D01*
X000580Y017460D02*
X000590Y017460D01*
X000580Y017301D02*
X000590Y017301D01*
X000580Y017143D02*
X000590Y017143D01*
X000580Y016984D02*
X000590Y016984D01*
X000580Y016826D02*
X000590Y016826D01*
X000580Y016667D02*
X000590Y016667D01*
X000580Y016509D02*
X000590Y016509D01*
X000580Y016350D02*
X000590Y016350D01*
X000580Y016192D02*
X000590Y016192D01*
X000580Y016033D02*
X000590Y016033D01*
X000580Y015875D02*
X000590Y015875D01*
X000580Y015716D02*
X000590Y015716D01*
X000580Y015558D02*
X000590Y015558D01*
X000580Y015399D02*
X000590Y015399D01*
X000580Y015241D02*
X000590Y015241D01*
X000580Y015082D02*
X000590Y015082D01*
X000580Y014924D02*
X000590Y014924D01*
X000580Y014765D02*
X000590Y014765D01*
X000580Y014607D02*
X000590Y014607D01*
X000580Y014448D02*
X000590Y014448D01*
X000580Y014290D02*
X000590Y014290D01*
X000580Y014131D02*
X000590Y014131D01*
X000580Y013973D02*
X000590Y013973D01*
X000580Y013814D02*
X000590Y013814D01*
X000580Y013656D02*
X000590Y013656D01*
X000580Y013497D02*
X000590Y013497D01*
X000580Y013339D02*
X000590Y013339D01*
X000580Y013180D02*
X000590Y013180D01*
X000580Y013022D02*
X000590Y013022D01*
X000580Y012863D02*
X000590Y012863D01*
X000580Y012705D02*
X000590Y012705D01*
X000580Y012546D02*
X000590Y012546D01*
X000580Y012388D02*
X000590Y012388D01*
X000580Y012229D02*
X000590Y012229D01*
X000580Y012071D02*
X000590Y012071D01*
X000580Y011912D02*
X000590Y011912D01*
X000580Y011754D02*
X000590Y011754D01*
X000580Y011595D02*
X000590Y011595D01*
X000580Y011437D02*
X000590Y011437D01*
X000580Y011278D02*
X000590Y011278D01*
X000580Y011120D02*
X000590Y011120D01*
X000580Y010961D02*
X000590Y010961D01*
X000580Y010803D02*
X000590Y010803D01*
X000580Y010644D02*
X000590Y010644D01*
X000580Y010486D02*
X000590Y010486D01*
X000580Y010327D02*
X000590Y010327D01*
X000580Y010169D02*
X000590Y010169D01*
X000580Y010010D02*
X000590Y010010D01*
X000580Y009852D02*
X000590Y009852D01*
X000580Y009693D02*
X000590Y009693D01*
X000580Y009535D02*
X000590Y009535D01*
X000580Y009376D02*
X000590Y009376D01*
X000580Y009218D02*
X000590Y009218D01*
X000580Y009059D02*
X000590Y009059D01*
X000580Y008901D02*
X000590Y008901D01*
X000580Y008742D02*
X000590Y008742D01*
X000580Y008584D02*
X000649Y008584D01*
X000580Y008425D02*
X000807Y008425D01*
X000984Y008267D02*
X000580Y008267D01*
X000580Y008108D02*
X001214Y008108D01*
X001283Y007950D02*
X000580Y007950D01*
X000580Y007791D02*
X001132Y007791D01*
X001065Y007633D02*
X000580Y007633D01*
X000580Y007474D02*
X001050Y007474D01*
X001082Y007316D02*
X000580Y007316D01*
X000580Y007157D02*
X001169Y007157D01*
X001366Y006999D02*
X000580Y006999D01*
X000580Y006840D02*
X001162Y006840D01*
X001080Y006682D02*
X000580Y006682D01*
X000580Y006523D02*
X001050Y006523D01*
X001061Y006365D02*
X000580Y006365D01*
X000580Y006206D02*
X001126Y006206D01*
X001275Y006048D02*
X000580Y006048D01*
X000580Y005889D02*
X003595Y005889D01*
X003595Y005731D02*
X000580Y005731D01*
X000580Y005572D02*
X003595Y005572D01*
X003595Y005414D02*
X000580Y005414D01*
X000580Y005255D02*
X003595Y005255D01*
X003595Y005174D02*
X003597Y005170D01*
X003597Y005093D01*
X003651Y005039D01*
X003653Y005035D01*
X003760Y004928D01*
X003764Y004926D01*
X003818Y004872D01*
X003895Y004872D01*
X003899Y004870D01*
X004051Y004870D01*
X004055Y004872D01*
X004132Y004872D01*
X004186Y004926D01*
X004190Y004928D01*
X004297Y005035D01*
X004299Y005039D01*
X004353Y005093D01*
X004353Y005170D01*
X004355Y005174D01*
X004355Y006200D01*
X004455Y006300D01*
X004455Y007950D01*
X004350Y008055D01*
X003600Y008055D01*
X003495Y007950D01*
X003495Y006300D01*
X003595Y006200D01*
X003595Y005174D01*
X003597Y005097D02*
X000580Y005097D01*
X000580Y004938D02*
X003750Y004938D01*
X004200Y004938D02*
X007595Y004938D01*
X007595Y004780D02*
X007185Y004780D01*
X007281Y004621D02*
X007500Y004621D01*
X007500Y004463D02*
X007281Y004463D01*
X007281Y004304D02*
X007500Y004304D01*
X007500Y004146D02*
X007281Y004146D01*
X007281Y003987D02*
X007511Y003987D01*
X007512Y003991D02*
X007512Y003991D01*
X007500Y003829D02*
X007281Y003829D01*
X007281Y003670D02*
X007927Y003670D01*
X007927Y003617D02*
X007500Y003617D01*
X007500Y003386D01*
X007512Y003340D01*
X007536Y003299D01*
X007569Y003265D01*
X007610Y003242D01*
X007656Y003229D01*
X007927Y003229D01*
X007927Y003617D01*
X007927Y003512D02*
X008023Y003512D01*
X008023Y003670D02*
X009355Y003670D01*
X009355Y003512D02*
X008450Y003512D01*
X008441Y003353D02*
X009355Y003353D01*
X009355Y003195D02*
X007281Y003195D01*
X007281Y003353D02*
X007508Y003353D01*
X007500Y003512D02*
X007281Y003512D01*
X007281Y003036D02*
X009368Y003036D01*
X009356Y002402D02*
X007281Y002402D01*
X007281Y002244D02*
X009355Y002244D01*
X009355Y002085D02*
X007281Y002085D01*
X007281Y001927D02*
X009355Y001927D01*
X009355Y001768D02*
X007281Y001768D01*
X007281Y001610D02*
X009355Y001610D01*
X009355Y001451D02*
X007281Y001451D01*
X007281Y001293D02*
X009355Y001293D01*
X009355Y001134D02*
X007281Y001134D01*
X007281Y002561D02*
X016255Y002561D01*
X016112Y002402D02*
X013844Y002402D01*
X013845Y002244D02*
X015306Y002244D01*
X015222Y002085D02*
X013845Y002085D01*
X013845Y001927D02*
X015220Y001927D01*
X015295Y001768D02*
X013845Y001768D01*
X013845Y001610D02*
X016100Y001610D01*
X016504Y002000D02*
X017629Y003125D01*
X017640Y003125D01*
X017204Y003195D02*
X017108Y003195D01*
X017137Y003353D02*
X017204Y003353D01*
X017221Y003512D02*
X017137Y003512D01*
X017137Y003670D02*
X017551Y003670D01*
X017454Y003829D02*
X017137Y003829D01*
X017074Y003987D02*
X017454Y003987D01*
X017454Y004173D02*
X017842Y004173D01*
X017842Y004600D01*
X017611Y004600D01*
X017565Y004588D01*
X017524Y004564D01*
X017490Y004531D01*
X017467Y004490D01*
X017454Y004444D01*
X017454Y004173D01*
X017454Y004304D02*
X017115Y004304D01*
X017137Y004463D02*
X017459Y004463D01*
X017462Y004780D02*
X017137Y004780D01*
X017137Y004938D02*
X017454Y004938D01*
X017454Y005255D02*
X016963Y005255D01*
X017091Y005097D02*
X017842Y005097D01*
X017890Y005125D02*
X017890Y004125D01*
X017850Y004085D01*
X016475Y004085D01*
X016475Y004637D01*
X016475Y004221D01*
X016475Y004637D01*
X016475Y004637D01*
X016475Y004621D02*
X016475Y004621D01*
X016475Y004463D02*
X016475Y004463D01*
X016475Y004304D02*
X016475Y004304D01*
X016297Y004233D02*
X016297Y004233D01*
X016475Y004085D02*
X015350Y004085D01*
X015302Y004133D02*
X015302Y004037D01*
X014875Y004037D01*
X014875Y003805D01*
X014887Y003759D01*
X014887Y003759D01*
X014875Y003746D01*
X014875Y003135D01*
X014583Y003135D01*
X013845Y003873D01*
X013845Y004490D01*
X014954Y004490D01*
X014944Y004485D01*
X014911Y004451D01*
X014887Y004410D01*
X014875Y004364D01*
X014875Y004133D01*
X015302Y004133D01*
X014875Y004146D02*
X013845Y004146D01*
X013845Y004304D02*
X014875Y004304D01*
X014922Y004463D02*
X013845Y004463D01*
X013845Y003987D02*
X014875Y003987D01*
X014875Y003829D02*
X013889Y003829D01*
X014048Y003670D02*
X014875Y003670D01*
X014875Y003512D02*
X014206Y003512D01*
X014365Y003353D02*
X014875Y003353D01*
X014875Y003195D02*
X014523Y003195D01*
X014475Y002875D02*
X016475Y002875D01*
X016849Y003249D01*
X016849Y003613D01*
X016850Y003612D01*
X016561Y003670D02*
X016389Y003670D01*
X016389Y003512D02*
X016561Y003512D01*
X016561Y003353D02*
X016389Y003353D01*
X016101Y003613D02*
X016088Y003613D01*
X015850Y003375D01*
X015390Y003375D01*
X015350Y003415D01*
X015825Y003987D02*
X015876Y003987D01*
X015825Y004146D02*
X017842Y004146D01*
X017842Y004304D02*
X017938Y004304D01*
X017938Y004463D02*
X017842Y004463D01*
X017842Y004780D02*
X017938Y004780D01*
X017938Y004938D02*
X017842Y004938D01*
X017454Y005414D02*
X015381Y005414D01*
X015320Y005353D02*
X015320Y005353D01*
X015188Y005255D02*
X015987Y005255D01*
X015859Y005097D02*
X010221Y005097D01*
X010132Y005255D02*
X011262Y005255D01*
X011069Y005414D02*
X009974Y005414D01*
X009815Y005572D02*
X010910Y005572D01*
X010752Y005731D02*
X009657Y005731D01*
X009394Y006260D02*
X008306Y006260D01*
X008318Y006281D01*
X008330Y006326D01*
X008330Y006500D01*
X008330Y006674D01*
X008318Y006719D01*
X008294Y006761D01*
X008261Y006794D01*
X008219Y006818D01*
X008174Y006830D01*
X007850Y006830D01*
X007850Y006500D01*
X007850Y006500D01*
X008330Y006500D01*
X007850Y006500D01*
X007850Y006500D01*
X007850Y006830D01*
X007526Y006830D01*
X007481Y006818D01*
X007439Y006794D01*
X007406Y006761D01*
X007382Y006719D01*
X007370Y006674D01*
X007370Y006598D01*
X007360Y006608D01*
X007360Y009392D01*
X007673Y009705D01*
X007712Y009801D01*
X007712Y009830D01*
X007742Y009860D01*
X007742Y010483D01*
X008365Y010483D01*
X008395Y010513D01*
X008470Y010513D01*
X008880Y010103D01*
X008953Y010030D01*
X008965Y010025D01*
X008847Y009907D01*
X008847Y009621D01*
X008728Y009740D01*
X008728Y009907D01*
X008507Y010128D01*
X008193Y010128D01*
X007972Y009907D01*
X007972Y009593D01*
X008193Y009372D01*
X008360Y009372D01*
X009255Y008478D01*
X009328Y008405D01*
X009423Y008365D01*
X010242Y008365D01*
X010340Y008267D01*
X010340Y006573D01*
X010380Y006478D01*
X010453Y006405D01*
X010597Y006260D01*
X010306Y006260D01*
X010318Y006281D01*
X010330Y006326D01*
X010330Y006500D01*
X010330Y006674D01*
X010318Y006719D01*
X010294Y006761D01*
X010261Y006794D01*
X010219Y006818D01*
X010174Y006830D01*
X009850Y006830D01*
X009850Y006500D01*
X009850Y006500D01*
X010330Y006500D01*
X009850Y006500D01*
X009850Y006500D01*
X009850Y006500D01*
X009370Y006500D01*
X009370Y006674D01*
X009382Y006719D01*
X009406Y006761D01*
X009439Y006794D01*
X009481Y006818D01*
X009526Y006830D01*
X009850Y006830D01*
X009850Y006500D01*
X009370Y006500D01*
X009370Y006326D01*
X009382Y006281D01*
X009394Y006260D01*
X009370Y006365D02*
X008330Y006365D01*
X008330Y006523D02*
X009370Y006523D01*
X009372Y006682D02*
X008328Y006682D01*
X008008Y006999D02*
X010340Y006999D01*
X010340Y007157D02*
X008167Y007157D01*
X008228Y007218D02*
X008228Y007532D01*
X008110Y007650D01*
X008110Y007670D01*
X008225Y007670D01*
X008295Y007740D01*
X009405Y007740D01*
X009475Y007670D01*
X010225Y007670D01*
X010330Y007775D01*
X010330Y008225D01*
X010225Y008330D01*
X009475Y008330D01*
X009405Y008260D01*
X008295Y008260D01*
X008225Y008330D01*
X007475Y008330D01*
X007370Y008225D01*
X007370Y007775D01*
X007475Y007670D01*
X007590Y007670D01*
X007590Y007650D01*
X007472Y007532D01*
X007472Y007218D01*
X007693Y006997D01*
X008007Y006997D01*
X008228Y007218D01*
X008228Y007316D02*
X010340Y007316D01*
X010340Y007474D02*
X008228Y007474D01*
X008127Y007633D02*
X010340Y007633D01*
X010330Y007791D02*
X010340Y007791D01*
X010330Y007950D02*
X010340Y007950D01*
X010330Y008108D02*
X010340Y008108D01*
X010340Y008267D02*
X010288Y008267D01*
X010600Y008375D02*
X010350Y008625D01*
X009475Y008625D01*
X008350Y009750D01*
X008075Y010010D02*
X007742Y010010D01*
X007742Y010169D02*
X008814Y010169D01*
X008950Y010010D02*
X008625Y010010D01*
X008728Y009852D02*
X008847Y009852D01*
X008847Y009693D02*
X008775Y009693D01*
X009225Y009750D02*
X009975Y009000D01*
X010350Y009000D01*
X010975Y008375D01*
X010975Y006625D01*
X011350Y006250D01*
X015100Y006250D01*
X015975Y007125D01*
X021600Y007125D01*
X022475Y008000D01*
X022475Y012165D01*
X022600Y012290D01*
X022735Y011854D02*
X022970Y011854D01*
X023075Y011960D01*
X023075Y012621D01*
X023071Y012625D01*
X023075Y012629D01*
X023075Y013290D01*
X022970Y013396D01*
X022860Y013396D01*
X022860Y013604D01*
X022970Y013604D01*
X023075Y013710D01*
X023075Y013751D01*
X023742Y013751D01*
X023742Y012105D01*
X023644Y012105D01*
X023548Y012066D01*
X023453Y011970D01*
X023380Y011897D01*
X023340Y011802D01*
X023340Y011260D01*
X023250Y011260D01*
X023132Y011378D01*
X022818Y011378D01*
X022735Y011295D01*
X022735Y011854D01*
X022735Y011754D02*
X023340Y011754D01*
X023340Y011595D02*
X022735Y011595D01*
X022735Y011437D02*
X023340Y011437D01*
X023340Y011278D02*
X023232Y011278D01*
X022975Y011000D02*
X023600Y011000D01*
X023600Y010290D01*
X023640Y010250D01*
X023640Y009710D01*
X023850Y009500D01*
X025475Y009500D01*
X025479Y009122D02*
X025117Y008760D01*
X023298Y008760D01*
X023203Y008720D01*
X023130Y008647D01*
X022735Y008253D01*
X022735Y010705D01*
X022818Y010622D01*
X023132Y010622D01*
X023250Y010740D01*
X023340Y010740D01*
X023340Y010725D01*
X023310Y010725D01*
X023204Y010620D01*
X023204Y009880D01*
X023310Y009775D01*
X023380Y009775D01*
X023380Y009658D01*
X023420Y009562D01*
X023630Y009353D01*
X023703Y009280D01*
X023798Y009240D01*
X025200Y009240D01*
X025318Y009122D01*
X025479Y009122D01*
X025416Y009059D02*
X022735Y009059D01*
X022735Y008901D02*
X025258Y008901D01*
X025223Y009218D02*
X022735Y009218D01*
X022735Y009376D02*
X023606Y009376D01*
X023448Y009535D02*
X022735Y009535D01*
X022735Y009693D02*
X023380Y009693D01*
X023233Y009852D02*
X022735Y009852D01*
X022735Y010010D02*
X023204Y010010D01*
X023204Y010169D02*
X022735Y010169D01*
X022735Y010327D02*
X023204Y010327D01*
X023204Y010486D02*
X022735Y010486D01*
X022735Y010644D02*
X022796Y010644D01*
X023154Y010644D02*
X023229Y010644D01*
X023600Y011000D02*
X023600Y011750D01*
X023695Y011845D01*
X024276Y011845D01*
X024276Y012279D01*
X024276Y012712D01*
X025062Y012712D01*
X025100Y012750D01*
X024837Y013022D02*
X024811Y013022D01*
X024811Y012995D02*
X024811Y014184D01*
X024971Y014184D01*
X025066Y014223D01*
X025247Y014405D01*
X025320Y014478D01*
X025360Y014573D01*
X025360Y016392D01*
X025387Y016420D01*
X025455Y016352D01*
X025784Y016352D01*
X025723Y016292D01*
X025723Y015592D01*
X025829Y015486D01*
X025840Y015486D01*
X025840Y010725D01*
X025604Y010725D01*
X025603Y010724D01*
X025603Y011032D01*
X025382Y011253D01*
X025068Y011253D01*
X024847Y011032D01*
X024847Y010718D01*
X024887Y010678D01*
X024829Y010620D01*
X024829Y009880D01*
X024935Y009775D01*
X025215Y009775D01*
X025200Y009760D01*
X023958Y009760D01*
X023943Y009775D01*
X023971Y009775D01*
X023984Y009787D01*
X024030Y009775D01*
X024262Y009775D01*
X024262Y010202D01*
X024358Y010202D01*
X024358Y010298D01*
X024746Y010298D01*
X024746Y010569D01*
X024733Y010615D01*
X024710Y010656D01*
X024676Y010689D01*
X024635Y010713D01*
X024589Y010725D01*
X024358Y010725D01*
X024358Y010298D01*
X024262Y010298D01*
X024262Y010725D01*
X024030Y010725D01*
X023984Y010713D01*
X023984Y010713D01*
X023971Y010725D01*
X023860Y010725D01*
X023860Y011114D01*
X024705Y011114D01*
X024811Y011220D01*
X024811Y012452D01*
X024864Y012452D01*
X024943Y012372D01*
X025257Y012372D01*
X025478Y012593D01*
X025478Y012907D01*
X025257Y013128D01*
X024943Y013128D01*
X024811Y012995D01*
X024811Y013180D02*
X025840Y013180D01*
X025840Y013022D02*
X025363Y013022D01*
X025478Y012863D02*
X025840Y012863D01*
X025840Y012705D02*
X025478Y012705D01*
X025431Y012546D02*
X025840Y012546D01*
X025840Y012388D02*
X025272Y012388D01*
X024928Y012388D02*
X024811Y012388D01*
X024811Y012229D02*
X025840Y012229D01*
X025840Y012071D02*
X024811Y012071D01*
X024811Y011912D02*
X025840Y011912D01*
X025840Y011754D02*
X024811Y011754D01*
X024811Y011595D02*
X025840Y011595D01*
X025840Y011437D02*
X024811Y011437D01*
X024811Y011278D02*
X025840Y011278D01*
X025840Y011120D02*
X025515Y011120D01*
X025603Y010961D02*
X025840Y010961D01*
X025840Y010803D02*
X025603Y010803D01*
X025225Y010875D02*
X025265Y010250D01*
X024829Y010327D02*
X024746Y010327D01*
X024746Y010202D02*
X024358Y010202D01*
X024358Y009775D01*
X024589Y009775D01*
X024635Y009787D01*
X024676Y009811D01*
X024710Y009844D01*
X024733Y009885D01*
X024746Y009931D01*
X024746Y010202D01*
X024746Y010169D02*
X024829Y010169D01*
X024829Y010010D02*
X024746Y010010D01*
X024714Y009852D02*
X024858Y009852D01*
X024358Y009852D02*
X024262Y009852D01*
X024262Y010010D02*
X024358Y010010D01*
X024358Y010169D02*
X024262Y010169D01*
X024262Y010327D02*
X024358Y010327D01*
X024358Y010486D02*
X024262Y010486D01*
X024262Y010644D02*
X024358Y010644D01*
X024716Y010644D02*
X024854Y010644D01*
X024847Y010803D02*
X023860Y010803D01*
X023860Y010961D02*
X024847Y010961D01*
X024935Y011120D02*
X024710Y011120D01*
X024746Y010486D02*
X024829Y010486D01*
X023984Y009787D02*
X023984Y009787D01*
X023255Y008742D02*
X022735Y008742D01*
X022735Y008584D02*
X023066Y008584D01*
X022907Y008425D02*
X022735Y008425D01*
X022735Y008267D02*
X022749Y008267D01*
X023167Y007950D02*
X028370Y007950D01*
X028370Y008108D02*
X023326Y008108D01*
X023350Y008500D02*
X025225Y008500D01*
X026100Y009375D01*
X026100Y010000D01*
X026100Y015942D01*
X026477Y015875D02*
X026590Y015875D01*
X026590Y016033D02*
X026477Y016033D01*
X026477Y016192D02*
X026590Y016192D01*
X026564Y016350D02*
X026419Y016350D01*
X026850Y016432D02*
X026474Y016808D01*
X026474Y016999D01*
X026475Y017000D01*
X026475Y017710D01*
X026435Y017750D01*
X026475Y017790D01*
X026475Y018875D01*
X026225Y019125D01*
X022975Y019125D01*
X022679Y018886D02*
X022235Y018886D01*
X022235Y018728D02*
X026215Y018728D01*
X026215Y018569D02*
X022235Y018569D01*
X022235Y018411D02*
X026215Y018411D01*
X026215Y018252D02*
X022235Y018252D01*
X022235Y018094D02*
X025329Y018094D01*
X025329Y017935D02*
X022235Y017935D01*
X022235Y017777D02*
X025329Y017777D01*
X025329Y017618D02*
X022235Y017618D01*
X022235Y017460D02*
X025329Y017460D01*
X025409Y017301D02*
X022235Y017301D01*
X022235Y017143D02*
X025349Y017143D01*
X025236Y016984D02*
X022235Y016984D01*
X022235Y016826D02*
X025058Y016826D01*
X024899Y016667D02*
X022235Y016667D01*
X022235Y016509D02*
X024840Y016509D01*
X024840Y016350D02*
X022235Y016350D01*
X022159Y016192D02*
X024840Y016192D01*
X024840Y016033D02*
X022001Y016033D01*
X021842Y015875D02*
X024840Y015875D01*
X024840Y015716D02*
X021684Y015716D01*
X021475Y015875D02*
X021975Y016375D01*
X021975Y019250D01*
X024700Y021975D01*
X024700Y023350D01*
X024725Y023350D01*
X025227Y023007D02*
X025250Y023007D01*
X024960Y022849D02*
X026345Y022849D01*
X026345Y022690D02*
X024960Y022690D01*
X024960Y022532D02*
X026345Y022532D01*
X026340Y022373D02*
X024960Y022373D01*
X024960Y022215D02*
X026393Y022215D01*
X026600Y022375D02*
X026600Y022415D01*
X026600Y022375D02*
X026725Y022500D01*
X026977Y022215D02*
X027152Y022215D01*
X027103Y022373D02*
X027311Y022373D01*
X027345Y022532D02*
X027105Y022532D01*
X027105Y022690D02*
X027345Y022690D01*
X027345Y022849D02*
X027105Y022849D01*
X026725Y023290D02*
X026725Y023350D01*
X026725Y023290D02*
X025725Y023290D01*
X026200Y023007D02*
X026223Y023007D01*
X026200Y023800D02*
X028370Y023800D01*
X028370Y023958D02*
X025773Y023958D01*
X025773Y024008D02*
X026200Y024008D01*
X026200Y024239D01*
X026188Y024285D01*
X026164Y024326D01*
X026131Y024360D01*
X026090Y024383D01*
X026044Y024396D01*
X025773Y024396D01*
X025773Y024008D01*
X025677Y023958D02*
X022200Y023958D01*
X022200Y023800D02*
X025250Y023800D01*
X025250Y024117D02*
X022200Y024117D01*
X022188Y024134D02*
X022188Y024134D01*
X022200Y024275D02*
X022254Y024275D01*
X021773Y024592D02*
X021677Y024592D01*
X021677Y024434D02*
X001151Y024434D01*
X001110Y024275D02*
X021250Y024275D01*
X021250Y024117D02*
X001110Y024117D01*
X001110Y023958D02*
X021250Y023958D01*
X021250Y023800D02*
X020835Y023800D01*
X020978Y023641D02*
X021250Y023641D01*
X021325Y023350D02*
X021225Y023250D01*
X021325Y023350D02*
X021725Y023350D01*
X021640Y023435D01*
X021640Y023665D01*
X021725Y023790D01*
X021725Y023350D02*
X022725Y023350D01*
X023225Y022750D02*
X022100Y022750D01*
X021765Y022000D02*
X020600Y022000D01*
X020600Y023500D01*
X020365Y023800D02*
X020210Y023800D01*
X019975Y023500D02*
X019975Y021625D01*
X020600Y021000D01*
X021765Y021000D01*
X021330Y020630D02*
X021007Y020630D01*
X020900Y020471D02*
X022828Y020471D01*
X022870Y020630D02*
X022987Y020630D01*
X022871Y020788D02*
X023145Y020788D01*
X023304Y020947D02*
X022871Y020947D01*
X022871Y021105D02*
X023462Y021105D01*
X023621Y021264D02*
X022871Y021264D01*
X022818Y021422D02*
X023779Y021422D01*
X023938Y021581D02*
X022821Y021581D01*
X023249Y021739D02*
X024096Y021739D01*
X024255Y021898D02*
X023353Y021898D01*
X023353Y022056D02*
X024413Y022056D01*
X024440Y022215D02*
X023295Y022215D01*
X023137Y022373D02*
X024440Y022373D01*
X024440Y022532D02*
X023374Y022532D01*
X023533Y022690D02*
X024440Y022690D01*
X024440Y022849D02*
X023691Y022849D01*
X023725Y023250D02*
X023225Y022750D01*
X023725Y023250D02*
X023725Y023350D01*
X024196Y024275D02*
X024254Y024275D01*
X024725Y024650D02*
X024725Y026250D01*
X025205Y026177D02*
X025245Y026177D01*
X025245Y026230D02*
X025245Y025912D01*
X025257Y025838D01*
X025280Y025766D01*
X025314Y025698D01*
X025359Y025637D01*
X025412Y025584D01*
X025473Y025539D01*
X025541Y025505D01*
X025613Y025482D01*
X025687Y025470D01*
X025705Y025470D01*
X025705Y026230D01*
X025245Y026230D01*
X025245Y026270D02*
X025705Y026270D01*
X025705Y027030D01*
X025687Y027030D01*
X025613Y027018D01*
X025541Y026995D01*
X025473Y026961D01*
X025412Y026916D01*
X025359Y026863D01*
X025314Y026802D01*
X025280Y026734D01*
X025257Y026662D01*
X025245Y026588D01*
X025245Y026270D01*
X025245Y026336D02*
X025205Y026336D01*
X025205Y026494D02*
X025245Y026494D01*
X025255Y026653D02*
X025202Y026653D01*
X025136Y026811D02*
X025321Y026811D01*
X025491Y026970D02*
X024966Y026970D01*
X024484Y026970D02*
X023966Y026970D01*
X024136Y026811D02*
X024314Y026811D01*
X024248Y026653D02*
X024202Y026653D01*
X024205Y026494D02*
X024245Y026494D01*
X024245Y026336D02*
X024205Y026336D01*
X024205Y026177D02*
X024245Y026177D01*
X024245Y026019D02*
X024205Y026019D01*
X024205Y025860D02*
X024245Y025860D01*
X024308Y025702D02*
X024142Y025702D01*
X023997Y025543D02*
X024453Y025543D01*
X024465Y025385D02*
X023985Y025385D01*
X023985Y025226D02*
X024465Y025226D01*
X024465Y025068D02*
X023985Y025068D01*
X023725Y024650D02*
X023725Y026250D01*
X023308Y025702D02*
X023142Y025702D01*
X023205Y025860D02*
X023245Y025860D01*
X023245Y026019D02*
X023205Y026019D01*
X023205Y026177D02*
X023245Y026177D01*
X023245Y026336D02*
X023205Y026336D01*
X023205Y026494D02*
X023245Y026494D01*
X023248Y026653D02*
X023202Y026653D01*
X023136Y026811D02*
X023314Y026811D01*
X023484Y026970D02*
X022966Y026970D01*
X022484Y026970D02*
X021325Y026970D01*
X021282Y027013D02*
X021028Y027159D01*
X020746Y027235D01*
X020454Y027235D01*
X020172Y027159D01*
X019918Y027013D01*
X019712Y026807D01*
X019566Y026553D01*
X019490Y026271D01*
X019490Y025979D01*
X019566Y025697D01*
X019712Y025443D01*
X019918Y025237D01*
X020172Y025091D01*
X020454Y025015D01*
X020746Y025015D01*
X021028Y025091D01*
X021282Y025237D01*
X021488Y025443D01*
X021634Y025697D01*
X021710Y025979D01*
X021710Y026271D01*
X021634Y026553D01*
X021488Y026807D01*
X021282Y027013D01*
X021083Y027128D02*
X028370Y027128D01*
X028370Y026970D02*
X027966Y026970D01*
X027997Y026957D02*
X027820Y027030D01*
X027630Y027030D01*
X027453Y026957D01*
X027318Y026822D01*
X027245Y026645D01*
X027245Y025855D01*
X027318Y025678D01*
X027453Y025543D01*
X027465Y025538D01*
X027465Y025066D01*
X027296Y025066D01*
X027225Y024995D01*
X027154Y025066D01*
X026985Y025066D01*
X026985Y025538D01*
X026997Y025543D01*
X027132Y025678D01*
X027205Y025855D01*
X027205Y026645D01*
X027132Y026822D01*
X026997Y026957D01*
X026820Y027030D01*
X026630Y027030D01*
X026453Y026957D01*
X026318Y026822D01*
X026245Y026645D01*
X026245Y025855D01*
X026318Y025678D01*
X026453Y025543D01*
X026465Y025538D01*
X026465Y025066D01*
X026296Y025066D01*
X026191Y024960D01*
X026191Y024339D01*
X026296Y024233D01*
X027154Y024233D01*
X027225Y024304D01*
X027296Y024233D01*
X028154Y024233D01*
X028259Y024339D01*
X028259Y024960D01*
X028154Y025066D01*
X027985Y025066D01*
X027985Y025538D01*
X027997Y025543D01*
X028132Y025678D01*
X028205Y025855D01*
X028205Y026645D01*
X028132Y026822D01*
X027997Y026957D01*
X028136Y026811D02*
X028370Y026811D01*
X028370Y026653D02*
X028202Y026653D01*
X028205Y026494D02*
X028370Y026494D01*
X028370Y026336D02*
X028205Y026336D01*
X028205Y026177D02*
X028370Y026177D01*
X028370Y026019D02*
X028205Y026019D01*
X028205Y025860D02*
X028370Y025860D01*
X028370Y025702D02*
X028142Y025702D01*
X027997Y025543D02*
X028370Y025543D01*
X028370Y025385D02*
X027985Y025385D01*
X027985Y025226D02*
X028370Y025226D01*
X028370Y025068D02*
X027985Y025068D01*
X028259Y024909D02*
X028370Y024909D01*
X028370Y024751D02*
X028259Y024751D01*
X028259Y024592D02*
X028370Y024592D01*
X028370Y024434D02*
X028259Y024434D01*
X028196Y024275D02*
X028370Y024275D01*
X028370Y024117D02*
X026200Y024117D01*
X026191Y024275D02*
X026254Y024275D01*
X026191Y024434D02*
X025259Y024434D01*
X025259Y024592D02*
X026191Y024592D01*
X026191Y024751D02*
X025259Y024751D01*
X025259Y024909D02*
X026191Y024909D01*
X026465Y025068D02*
X024985Y025068D01*
X024985Y025226D02*
X026465Y025226D01*
X026465Y025385D02*
X024985Y025385D01*
X024997Y025543D02*
X025469Y025543D01*
X025313Y025702D02*
X025142Y025702D01*
X025205Y025860D02*
X025253Y025860D01*
X025245Y026019D02*
X025205Y026019D01*
X025705Y026019D02*
X025745Y026019D01*
X025745Y026177D02*
X025705Y026177D01*
X025705Y026230D02*
X025745Y026230D01*
X025745Y026270D01*
X025705Y026270D01*
X025705Y026230D01*
X025745Y026230D02*
X025745Y025470D01*
X025763Y025470D01*
X025837Y025482D01*
X025909Y025505D01*
X025977Y025539D01*
X026038Y025584D01*
X026091Y025637D01*
X026136Y025698D01*
X026170Y025766D01*
X026193Y025838D01*
X026205Y025912D01*
X026205Y026230D01*
X025745Y026230D01*
X025745Y026270D02*
X026205Y026270D01*
X026205Y026588D01*
X026193Y026662D01*
X026170Y026734D01*
X026136Y026802D01*
X026091Y026863D01*
X026038Y026916D01*
X025977Y026961D01*
X025909Y026995D01*
X025837Y027018D01*
X025763Y027030D01*
X025745Y027030D01*
X025745Y026270D01*
X025745Y026336D02*
X025705Y026336D01*
X025705Y026494D02*
X025745Y026494D01*
X025745Y026653D02*
X025705Y026653D01*
X025705Y026811D02*
X025745Y026811D01*
X025745Y026970D02*
X025705Y026970D01*
X025959Y026970D02*
X026484Y026970D01*
X026314Y026811D02*
X026129Y026811D01*
X026195Y026653D02*
X026248Y026653D01*
X026245Y026494D02*
X026205Y026494D01*
X026205Y026336D02*
X026245Y026336D01*
X026245Y026177D02*
X026205Y026177D01*
X026205Y026019D02*
X026245Y026019D01*
X026245Y025860D02*
X026197Y025860D01*
X026137Y025702D02*
X026308Y025702D01*
X026453Y025543D02*
X025981Y025543D01*
X025745Y025543D02*
X025705Y025543D01*
X025705Y025702D02*
X025745Y025702D01*
X025745Y025860D02*
X025705Y025860D01*
X026725Y026250D02*
X026725Y024650D01*
X026985Y025068D02*
X027465Y025068D01*
X027465Y025226D02*
X026985Y025226D01*
X026985Y025385D02*
X027465Y025385D01*
X027453Y025543D02*
X026997Y025543D01*
X027142Y025702D02*
X027308Y025702D01*
X027245Y025860D02*
X027205Y025860D01*
X027205Y026019D02*
X027245Y026019D01*
X027245Y026177D02*
X027205Y026177D01*
X027205Y026336D02*
X027245Y026336D01*
X027245Y026494D02*
X027205Y026494D01*
X027202Y026653D02*
X027248Y026653D01*
X027314Y026811D02*
X027136Y026811D01*
X026966Y026970D02*
X027484Y026970D01*
X027725Y026250D02*
X027725Y024650D01*
X027254Y024275D02*
X027196Y024275D01*
X028259Y023641D02*
X028370Y023641D01*
X028370Y023483D02*
X028259Y023483D01*
X028259Y023324D02*
X028370Y023324D01*
X028370Y023166D02*
X028259Y023166D01*
X028227Y023007D02*
X028370Y023007D01*
X028370Y022849D02*
X028105Y022849D01*
X028105Y022690D02*
X028370Y022690D01*
X028370Y022532D02*
X028105Y022532D01*
X028105Y022373D02*
X028370Y022373D01*
X028370Y022215D02*
X028105Y022215D01*
X028056Y022056D02*
X028370Y022056D01*
X028370Y021898D02*
X027910Y021898D01*
X027751Y021739D02*
X028370Y021739D01*
X028370Y021581D02*
X027593Y021581D01*
X027434Y021422D02*
X028370Y021422D01*
X028370Y021264D02*
X027276Y021264D01*
X027117Y021105D02*
X028370Y021105D01*
X028370Y020947D02*
X026959Y020947D01*
X026800Y020788D02*
X028370Y020788D01*
X028370Y020630D02*
X026642Y020630D01*
X026483Y020471D02*
X028370Y020471D01*
X028370Y020313D02*
X026325Y020313D01*
X026166Y020154D02*
X028370Y020154D01*
X028370Y019996D02*
X026008Y019996D01*
X025849Y019837D02*
X028370Y019837D01*
X028370Y019679D02*
X025691Y019679D01*
X025486Y019520D02*
X028370Y019520D01*
X028370Y019362D02*
X026333Y019362D01*
X026515Y019203D02*
X028370Y019203D01*
X028370Y019045D02*
X026673Y019045D01*
X026735Y018886D02*
X028370Y018886D01*
X028370Y018728D02*
X026735Y018728D01*
X026735Y018569D02*
X028370Y018569D01*
X028370Y018411D02*
X026735Y018411D01*
X026735Y018252D02*
X028370Y018252D01*
X028370Y018094D02*
X026871Y018094D01*
X026871Y017935D02*
X028370Y017935D01*
X028370Y017777D02*
X026871Y017777D01*
X026871Y017618D02*
X028370Y017618D01*
X028370Y017460D02*
X026871Y017460D01*
X026791Y017301D02*
X028370Y017301D01*
X028370Y017143D02*
X026851Y017143D01*
X026851Y016984D02*
X028370Y016984D01*
X028370Y016826D02*
X026851Y016826D01*
X026983Y016667D02*
X028370Y016667D01*
X028370Y016509D02*
X027100Y016509D01*
X027110Y016350D02*
X028370Y016350D01*
X028370Y016192D02*
X027110Y016192D01*
X027110Y016033D02*
X028370Y016033D01*
X028370Y015875D02*
X027110Y015875D01*
X027110Y015716D02*
X028370Y015716D01*
X028370Y015558D02*
X027110Y015558D01*
X027110Y015399D02*
X028370Y015399D01*
X028370Y015241D02*
X027110Y015241D01*
X027110Y015082D02*
X027494Y015082D01*
X027482Y014924D02*
X027110Y014924D01*
X027110Y014765D02*
X027482Y014765D01*
X027482Y014607D02*
X027110Y014607D01*
X027110Y014448D02*
X027482Y014448D01*
X027482Y014290D02*
X027110Y014290D01*
X027110Y014131D02*
X027482Y014131D01*
X027482Y013973D02*
X027110Y013973D01*
X027110Y013814D02*
X027482Y013814D01*
X027482Y013656D02*
X027110Y013656D01*
X027110Y013497D02*
X027482Y013497D01*
X027482Y013339D02*
X027110Y013339D01*
X027110Y013180D02*
X027482Y013180D01*
X027482Y013022D02*
X027113Y013022D01*
X027228Y012863D02*
X027482Y012863D01*
X027482Y012705D02*
X027228Y012705D01*
X027181Y012546D02*
X027482Y012546D01*
X027482Y012388D02*
X027022Y012388D01*
X026678Y012388D02*
X026360Y012388D01*
X026360Y012546D02*
X026519Y012546D01*
X026472Y012705D02*
X026360Y012705D01*
X026360Y012863D02*
X026472Y012863D01*
X026360Y013022D02*
X026587Y013022D01*
X026590Y013180D02*
X026360Y013180D01*
X026360Y013339D02*
X026590Y013339D01*
X026590Y013497D02*
X026360Y013497D01*
X026360Y013656D02*
X026590Y013656D01*
X026590Y013814D02*
X026360Y013814D01*
X026360Y013973D02*
X026590Y013973D01*
X026590Y014131D02*
X026360Y014131D01*
X026360Y014290D02*
X026590Y014290D01*
X026590Y014448D02*
X026360Y014448D01*
X026360Y014607D02*
X026590Y014607D01*
X026590Y014765D02*
X026360Y014765D01*
X026360Y014924D02*
X026590Y014924D01*
X026590Y015082D02*
X026360Y015082D01*
X026360Y015241D02*
X026590Y015241D01*
X026590Y015399D02*
X026360Y015399D01*
X026443Y015558D02*
X026590Y015558D01*
X026590Y015716D02*
X026477Y015716D01*
X025840Y015399D02*
X025360Y015399D01*
X025360Y015241D02*
X025840Y015241D01*
X025840Y015082D02*
X025360Y015082D01*
X025360Y014924D02*
X025840Y014924D01*
X025840Y014765D02*
X025360Y014765D01*
X025360Y014607D02*
X025840Y014607D01*
X025840Y014448D02*
X025291Y014448D01*
X025132Y014290D02*
X025840Y014290D01*
X025840Y014131D02*
X024811Y014131D01*
X024811Y013973D02*
X025840Y013973D01*
X025840Y013814D02*
X024811Y013814D01*
X024811Y013656D02*
X025840Y013656D01*
X025840Y013497D02*
X024811Y013497D01*
X024811Y013339D02*
X025840Y013339D01*
X026850Y012750D02*
X026850Y016432D01*
X025781Y016350D02*
X025360Y016350D01*
X025360Y016192D02*
X025723Y016192D01*
X025723Y016033D02*
X025360Y016033D01*
X025360Y015875D02*
X025723Y015875D01*
X025723Y015716D02*
X025360Y015716D01*
X025360Y015558D02*
X025757Y015558D01*
X024840Y015558D02*
X020150Y015558D01*
X020221Y015399D02*
X019992Y015399D01*
X019985Y015241D02*
X020104Y015241D01*
X020050Y015082D02*
X019985Y015082D01*
X019985Y014924D02*
X020050Y014924D01*
X020102Y014765D02*
X019985Y014765D01*
X019985Y014607D02*
X020216Y014607D01*
X020281Y014448D02*
X019985Y014448D01*
X019985Y014290D02*
X020131Y014290D01*
X020064Y014131D02*
X019985Y014131D01*
X019985Y013973D02*
X020050Y013973D01*
X020082Y013814D02*
X019907Y013814D01*
X019872Y013780D02*
X019872Y013780D01*
X019748Y013656D02*
X020170Y013656D01*
X020364Y013497D02*
X019621Y013497D01*
X019621Y013339D02*
X020166Y013339D01*
X020080Y013180D02*
X019545Y013180D01*
X019609Y012863D02*
X020066Y012863D01*
X020050Y013022D02*
X015603Y013022D01*
X015603Y012863D02*
X016120Y012863D01*
X015937Y012705D02*
X015589Y012705D01*
X015431Y012546D02*
X015778Y012546D01*
X015975Y012375D02*
X016225Y012625D01*
X018640Y012625D01*
X018515Y012500D01*
X018475Y012460D01*
X018475Y012000D01*
X018765Y011710D01*
X018765Y011419D01*
X018850Y011335D01*
X019325Y011278D02*
X020120Y011278D01*
X020054Y011120D02*
X019325Y011120D01*
X019325Y010961D02*
X020050Y010961D01*
X020086Y010803D02*
X019325Y010803D01*
X019325Y010644D02*
X020178Y010644D01*
X020335Y010486D02*
X019325Y010486D01*
X019317Y010327D02*
X020149Y010327D01*
X020074Y010169D02*
X019110Y010169D01*
X019230Y010010D02*
X020050Y010010D01*
X020066Y009852D02*
X019325Y009852D01*
X019325Y009693D02*
X020132Y009693D01*
X020288Y009535D02*
X019325Y009535D01*
X019325Y009376D02*
X020198Y009376D01*
X020095Y009218D02*
X019325Y009218D01*
X019325Y009059D02*
X020050Y009059D01*
X020050Y008901D02*
X019325Y008901D01*
X019325Y008742D02*
X020112Y008742D01*
X020239Y008584D02*
X019324Y008584D01*
X018850Y008915D02*
X017265Y008915D01*
X017225Y008875D01*
X017225Y008665D01*
X017185Y008625D01*
X017225Y008875D02*
X017225Y009125D01*
X016975Y009375D01*
X016975Y009851D01*
X016475Y009851D01*
X015975Y009851D02*
X015975Y010375D01*
X015725Y010625D01*
X014350Y010625D01*
X013225Y011750D01*
X012890Y011750D01*
X012850Y011710D01*
X012765Y011625D01*
X012600Y011625D01*
X011850Y010875D01*
X011850Y010085D01*
X012325Y010010D02*
X012375Y010010D01*
X012375Y009852D02*
X012325Y009852D01*
X012325Y009754D02*
X012325Y010415D01*
X012220Y010521D01*
X012110Y010521D01*
X012110Y010767D01*
X012375Y011032D01*
X012375Y010710D01*
X012480Y010604D01*
X012590Y010604D01*
X012590Y010521D01*
X012480Y010521D01*
X012375Y010415D01*
X012375Y009754D01*
X012379Y009750D01*
X012375Y009746D01*
X012375Y009085D01*
X012480Y008979D01*
X013220Y008979D01*
X013325Y009085D01*
X013325Y009115D01*
X013402Y009115D01*
X013497Y009155D01*
X013570Y009228D01*
X013682Y009339D01*
X013782Y009238D01*
X014168Y009238D01*
X014225Y009296D01*
X014282Y009238D01*
X014596Y009238D01*
X013828Y008470D01*
X013755Y008397D01*
X013715Y008302D01*
X013715Y008225D01*
X013560Y008225D01*
X013454Y008120D01*
X013454Y008050D01*
X013325Y008050D01*
X013325Y008121D01*
X013321Y008125D01*
X013325Y008129D01*
X013325Y008790D01*
X013220Y008896D01*
X012480Y008896D01*
X012375Y008790D01*
X012375Y008760D01*
X011458Y008760D01*
X010728Y009490D01*
X010728Y009657D01*
X010507Y009878D01*
X010193Y009878D01*
X009972Y009657D01*
X009972Y009371D01*
X009603Y009740D01*
X009603Y009907D01*
X009520Y009990D01*
X010402Y009990D01*
X010497Y010030D01*
X010570Y010103D01*
X012070Y011603D01*
X012110Y011698D01*
X012110Y012892D01*
X012141Y012924D01*
X012193Y012872D01*
X012507Y012872D01*
X012728Y013093D01*
X012728Y013407D01*
X012645Y013490D01*
X012700Y013490D01*
X012818Y013372D01*
X013132Y013372D01*
X013353Y013593D01*
X013353Y013907D01*
X013132Y014128D01*
X012818Y014128D01*
X012700Y014010D01*
X012645Y014010D01*
X012728Y014093D01*
X012728Y014407D01*
X012645Y014490D01*
X012700Y014490D01*
X012818Y014372D01*
X013132Y014372D01*
X013353Y014593D01*
X013353Y014907D01*
X013270Y014990D01*
X014027Y014990D01*
X014122Y015030D01*
X014347Y015254D01*
X014347Y015093D01*
X014465Y014975D01*
X014465Y014646D01*
X014355Y014646D01*
X014250Y014540D01*
X014250Y013879D01*
X014254Y013875D01*
X014250Y013871D01*
X014250Y013210D01*
X014355Y013104D01*
X014628Y013104D01*
X014847Y012885D01*
X014847Y012718D01*
X015054Y012512D01*
X014975Y012512D01*
X014833Y012512D01*
X014787Y012499D01*
X014746Y012476D01*
X014725Y012454D01*
X014704Y012476D01*
X014663Y012499D01*
X014617Y012512D01*
X014475Y012512D01*
X014333Y012512D01*
X014287Y012499D01*
X014246Y012476D01*
X014225Y012454D01*
X014168Y012512D01*
X013782Y012512D01*
X013677Y012406D01*
X013677Y011666D01*
X013445Y011897D01*
X013372Y011970D01*
X013325Y011990D01*
X013325Y012040D01*
X013220Y012146D01*
X012480Y012146D01*
X012375Y012040D01*
X012375Y011767D01*
X011630Y011022D01*
X011590Y010927D01*
X011590Y010521D01*
X011480Y010521D01*
X011375Y010415D01*
X011375Y009754D01*
X011387Y009741D01*
X011375Y009695D01*
X011375Y009463D01*
X011802Y009463D01*
X011802Y009367D01*
X011898Y009367D01*
X011898Y008979D01*
X012169Y008979D01*
X012215Y008992D01*
X012256Y009015D01*
X012289Y009049D01*
X012313Y009090D01*
X012325Y009136D01*
X012325Y009367D01*
X011898Y009367D01*
X011898Y009463D01*
X012325Y009463D01*
X012325Y009695D01*
X012313Y009741D01*
X012313Y009741D01*
X012325Y009754D01*
X012325Y009693D02*
X012375Y009693D01*
X012375Y009535D02*
X012325Y009535D01*
X012375Y009376D02*
X011898Y009376D01*
X011802Y009376D02*
X010842Y009376D01*
X010728Y009535D02*
X011375Y009535D01*
X011375Y009693D02*
X010692Y009693D01*
X010533Y009852D02*
X011375Y009852D01*
X011387Y009741D02*
X011387Y009741D01*
X011375Y010010D02*
X010450Y010010D01*
X010636Y010169D02*
X011375Y010169D01*
X011375Y010327D02*
X010795Y010327D01*
X010953Y010486D02*
X011445Y010486D01*
X011590Y010644D02*
X011112Y010644D01*
X011270Y010803D02*
X011590Y010803D01*
X011604Y010961D02*
X011429Y010961D01*
X011587Y011120D02*
X011727Y011120D01*
X011746Y011278D02*
X011885Y011278D01*
X011904Y011437D02*
X012044Y011437D01*
X012063Y011595D02*
X012202Y011595D01*
X012110Y011754D02*
X012361Y011754D01*
X012375Y011912D02*
X012110Y011912D01*
X012110Y012071D02*
X012405Y012071D01*
X012110Y012229D02*
X013677Y012229D01*
X013677Y012071D02*
X013295Y012071D01*
X013431Y011912D02*
X013677Y011912D01*
X013677Y011754D02*
X013589Y011754D01*
X014057Y011286D02*
X014168Y011286D01*
X014225Y011343D01*
X014246Y011322D01*
X014287Y011298D01*
X014333Y011286D01*
X014475Y011286D01*
X014617Y011286D01*
X014663Y011298D01*
X014704Y011322D01*
X014725Y011343D01*
X014746Y011322D01*
X014787Y011298D01*
X014833Y011286D01*
X014975Y011286D01*
X015117Y011286D01*
X015163Y011298D01*
X015204Y011322D01*
X015225Y011343D01*
X015246Y011322D01*
X015287Y011298D01*
X015333Y011286D01*
X015475Y011286D01*
X015617Y011286D01*
X015663Y011298D01*
X015704Y011322D01*
X015725Y011343D01*
X015782Y011286D01*
X016168Y011286D01*
X016225Y011343D01*
X016282Y011286D01*
X016668Y011286D01*
X016725Y011343D01*
X016782Y011286D01*
X017168Y011286D01*
X017273Y011391D01*
X017273Y011639D01*
X017590Y011639D01*
X017590Y011271D01*
X017480Y011271D01*
X017375Y011165D01*
X017375Y010504D01*
X017379Y010500D01*
X017375Y010496D01*
X017375Y009835D01*
X017480Y009729D01*
X018220Y009729D01*
X018325Y009835D01*
X018325Y009905D01*
X018375Y009905D01*
X018375Y009254D01*
X018379Y009250D01*
X018375Y009246D01*
X018375Y009175D01*
X017485Y009175D01*
X017485Y009177D01*
X017445Y009272D01*
X017372Y009345D01*
X017273Y009445D01*
X017273Y010359D01*
X017168Y010464D01*
X016782Y010464D01*
X016725Y010407D01*
X016668Y010464D01*
X016282Y010464D01*
X016235Y010417D01*
X016235Y010427D01*
X016195Y010522D01*
X015945Y010772D01*
X015872Y010845D01*
X015777Y010885D01*
X014458Y010885D01*
X014057Y011286D01*
X014065Y011278D02*
X017590Y011278D01*
X017590Y011437D02*
X017273Y011437D01*
X017273Y011595D02*
X017590Y011595D01*
X017749Y011899D02*
X017850Y012000D01*
X017850Y010835D01*
X017375Y010803D02*
X015915Y010803D01*
X016074Y010644D02*
X017375Y010644D01*
X017375Y010486D02*
X016211Y010486D01*
X015475Y009851D02*
X015475Y009250D01*
X015225Y009000D01*
X015225Y008000D01*
X015475Y007750D01*
X015725Y007750D01*
X016515Y007750D01*
X016079Y007490D02*
X016079Y007385D01*
X015923Y007385D01*
X015828Y007345D01*
X015755Y007272D01*
X014992Y006510D01*
X011458Y006510D01*
X011235Y006733D01*
X011235Y008266D01*
X011298Y008240D01*
X012375Y008240D01*
X012375Y008129D01*
X012379Y008125D01*
X012375Y008121D01*
X012375Y007460D01*
X012480Y007354D01*
X013220Y007354D01*
X013325Y007460D01*
X013325Y007530D01*
X013454Y007530D01*
X013454Y007380D01*
X013560Y007275D01*
X014221Y007275D01*
X014234Y007287D01*
X014280Y007275D01*
X014512Y007275D01*
X014512Y007702D01*
X014608Y007702D01*
X014608Y007798D01*
X014996Y007798D01*
X014996Y007875D01*
X015005Y007853D01*
X015255Y007603D01*
X015328Y007530D01*
X015423Y007490D01*
X015450Y007490D01*
X015568Y007372D01*
X015882Y007372D01*
X016000Y007490D01*
X016079Y007490D01*
X016079Y007474D02*
X015984Y007474D01*
X015798Y007316D02*
X014931Y007316D01*
X014926Y007311D02*
X014960Y007344D01*
X014983Y007385D01*
X014996Y007431D01*
X014996Y007702D01*
X014608Y007702D01*
X014608Y007275D01*
X014839Y007275D01*
X014885Y007287D01*
X014926Y007311D01*
X014996Y007474D02*
X015466Y007474D01*
X015225Y007633D02*
X014996Y007633D01*
X015066Y007791D02*
X014608Y007791D01*
X014608Y007798D02*
X014512Y007798D01*
X014512Y008225D01*
X014318Y008225D01*
X014965Y008872D01*
X014965Y008146D01*
X014960Y008156D01*
X014926Y008189D01*
X014885Y008213D01*
X014839Y008225D01*
X014608Y008225D01*
X014608Y007798D01*
X014608Y007950D02*
X014512Y007950D01*
X014512Y008108D02*
X014608Y008108D01*
X014359Y008267D02*
X014965Y008267D01*
X014965Y008425D02*
X014518Y008425D01*
X014676Y008584D02*
X014965Y008584D01*
X014965Y008742D02*
X014835Y008742D01*
X014416Y009059D02*
X013299Y009059D01*
X013560Y009218D02*
X014575Y009218D01*
X014975Y009250D02*
X013975Y008250D01*
X013975Y007835D01*
X013890Y007750D01*
X013850Y007790D01*
X012850Y007790D01*
X013325Y007474D02*
X013454Y007474D01*
X013519Y007316D02*
X011235Y007316D01*
X011235Y007474D02*
X012375Y007474D01*
X012375Y007633D02*
X011235Y007633D01*
X011235Y007791D02*
X012375Y007791D01*
X012375Y007950D02*
X011235Y007950D01*
X011235Y008108D02*
X012375Y008108D01*
X012810Y008500D02*
X012850Y008460D01*
X012810Y008500D02*
X011350Y008500D01*
X010350Y009500D01*
X009972Y009535D02*
X009808Y009535D01*
X009650Y009693D02*
X010008Y009693D01*
X010167Y009852D02*
X009603Y009852D01*
X009100Y010250D02*
X010350Y010250D01*
X011850Y011750D01*
X011850Y013000D01*
X012100Y013250D01*
X012350Y013250D01*
X012656Y013022D02*
X014711Y013022D01*
X014847Y012863D02*
X012110Y012863D01*
X012110Y012705D02*
X014861Y012705D01*
X015019Y012546D02*
X012110Y012546D01*
X012110Y012388D02*
X013677Y012388D01*
X014475Y012388D02*
X014475Y012388D01*
X014475Y012512D02*
X014475Y011899D01*
X014475Y011899D01*
X014475Y012512D01*
X014475Y012229D02*
X014475Y012229D01*
X014475Y012071D02*
X014475Y012071D01*
X014475Y011912D02*
X014475Y011912D01*
X014475Y011899D02*
X014975Y011899D01*
X014975Y012512D01*
X014975Y011899D01*
X014975Y011899D01*
X015475Y011899D01*
X015475Y012512D01*
X015475Y011899D01*
X015475Y011899D01*
X015475Y011899D01*
X015177Y011899D01*
X014975Y011899D01*
X014975Y011899D01*
X014975Y011899D01*
X014677Y011899D01*
X014475Y011899D01*
X014475Y011899D01*
X014475Y011286D01*
X014475Y011899D01*
X014475Y011899D01*
X014475Y011754D02*
X014475Y011754D01*
X014475Y011595D02*
X014475Y011595D01*
X014475Y011437D02*
X014475Y011437D01*
X014223Y011120D02*
X017375Y011120D01*
X017375Y010961D02*
X014382Y010961D01*
X014975Y011286D02*
X014975Y011899D01*
X014975Y011286D01*
X014975Y011437D02*
X014975Y011437D01*
X014975Y011595D02*
X014975Y011595D01*
X014975Y011754D02*
X014975Y011754D01*
X014975Y011899D02*
X014975Y011899D01*
X014975Y011912D02*
X014975Y011912D01*
X014975Y012071D02*
X014975Y012071D01*
X014975Y012229D02*
X014975Y012229D01*
X014975Y012388D02*
X014975Y012388D01*
X015475Y012388D02*
X015475Y012388D01*
X015475Y012229D02*
X015475Y012229D01*
X015475Y012071D02*
X015475Y012071D01*
X015475Y011912D02*
X015475Y011912D01*
X015475Y011899D02*
X015475Y011286D01*
X015475Y011899D01*
X015475Y011899D01*
X015475Y011754D02*
X015475Y011754D01*
X015475Y011595D02*
X015475Y011595D01*
X015475Y011437D02*
X015475Y011437D01*
X015975Y011899D02*
X015975Y012375D01*
X016475Y011899D02*
X016975Y011899D01*
X017749Y011899D01*
X018859Y012037D02*
X018859Y012037D01*
X018931Y011912D02*
X020050Y011912D01*
X020050Y012071D02*
X019561Y012071D01*
X019551Y012061D02*
X019585Y012094D01*
X019608Y012135D01*
X019621Y012181D01*
X019621Y012452D01*
X019233Y012452D01*
X019233Y012025D01*
X019464Y012025D01*
X019510Y012037D01*
X019551Y012061D01*
X019621Y012229D02*
X020100Y012229D01*
X020210Y012388D02*
X019621Y012388D01*
X019621Y012705D02*
X020135Y012705D01*
X020289Y012546D02*
X019233Y012546D01*
X019233Y012388D02*
X019137Y012388D01*
X019137Y012229D02*
X019233Y012229D01*
X019233Y012071D02*
X019137Y012071D01*
X019237Y011754D02*
X020107Y011754D01*
X020227Y011595D02*
X019325Y011595D01*
X019325Y011437D02*
X020259Y011437D01*
X020600Y011000D02*
X021975Y011000D01*
X021718Y011278D02*
X021080Y011278D01*
X020941Y011437D02*
X022215Y011437D01*
X022215Y011595D02*
X020973Y011595D01*
X021093Y011754D02*
X022215Y011754D01*
X022173Y011912D02*
X021150Y011912D01*
X021150Y012071D02*
X022125Y012071D01*
X022125Y012229D02*
X021100Y012229D01*
X020990Y012388D02*
X022125Y012388D01*
X022125Y012546D02*
X020911Y012546D01*
X021065Y012705D02*
X022125Y012705D01*
X022125Y012863D02*
X021134Y012863D01*
X021150Y013022D02*
X022125Y013022D01*
X022125Y013180D02*
X021120Y013180D01*
X021034Y013339D02*
X022173Y013339D01*
X022340Y013497D02*
X020836Y013497D01*
X020620Y013497D02*
X020580Y013497D01*
X020580Y013339D02*
X020620Y013339D01*
X020620Y013180D02*
X020580Y013180D01*
X020580Y013022D02*
X020620Y013022D01*
X020620Y013656D02*
X020580Y013656D01*
X020580Y013814D02*
X020620Y013814D01*
X020620Y013973D02*
X020580Y013973D01*
X021030Y013656D02*
X022179Y013656D01*
X022125Y013814D02*
X021118Y013814D01*
X021150Y013973D02*
X022125Y013973D01*
X022125Y014131D02*
X021136Y014131D01*
X021069Y014290D02*
X022125Y014290D01*
X022125Y014448D02*
X020919Y014448D01*
X020984Y014607D02*
X022125Y014607D01*
X022125Y014765D02*
X021098Y014765D01*
X021150Y014924D02*
X022125Y014924D01*
X022167Y015082D02*
X021150Y015082D01*
X021096Y015241D02*
X024840Y015241D01*
X024741Y015139D02*
X024700Y015163D01*
X024654Y015175D01*
X024276Y015175D01*
X023898Y015175D01*
X023852Y015163D01*
X023811Y015139D01*
X023778Y015106D01*
X023754Y015065D01*
X023742Y015019D01*
X023742Y014857D01*
X024276Y014857D01*
X024276Y014857D01*
X024276Y014857D01*
X024276Y015175D01*
X024276Y014857D01*
X024276Y014857D01*
X024811Y014857D01*
X024811Y015019D01*
X024798Y015065D01*
X024775Y015106D01*
X024741Y015139D01*
X024788Y015082D02*
X024840Y015082D01*
X024840Y014924D02*
X024811Y014924D01*
X024811Y014765D02*
X024840Y014765D01*
X025100Y014625D02*
X024919Y014444D01*
X024276Y014444D01*
X024276Y014011D02*
X022630Y014011D01*
X022600Y014040D01*
X022600Y012960D01*
X023075Y013022D02*
X023742Y013022D01*
X023742Y013180D02*
X023075Y013180D01*
X023027Y013339D02*
X023742Y013339D01*
X023742Y013497D02*
X022860Y013497D01*
X023021Y013656D02*
X023742Y013656D01*
X023742Y014290D02*
X023075Y014290D01*
X023063Y014384D02*
X023063Y014384D01*
X023075Y014448D02*
X023742Y014448D01*
X023742Y014607D02*
X023075Y014607D01*
X023075Y014758D02*
X023075Y014989D01*
X023063Y015035D01*
X023039Y015076D01*
X023006Y015110D01*
X022965Y015133D01*
X022919Y015146D01*
X022648Y015146D01*
X022648Y014758D01*
X023075Y014758D01*
X023075Y014765D02*
X023742Y014765D01*
X023742Y014924D02*
X023075Y014924D01*
X023033Y015082D02*
X023764Y015082D01*
X024276Y015082D02*
X024276Y015082D01*
X024276Y014924D02*
X024276Y014924D01*
X024840Y015399D02*
X020979Y015399D01*
X021475Y015875D02*
X020100Y015875D01*
X019725Y015500D01*
X019725Y014000D01*
X019350Y013625D01*
X019185Y013625D01*
X019458Y014100D02*
X018854Y014100D01*
X018850Y014096D01*
X018846Y014100D01*
X018185Y014100D01*
X018079Y013995D01*
X018079Y013885D01*
X017542Y013885D01*
X017228Y014199D01*
X017228Y014366D01*
X017007Y014588D01*
X016693Y014588D01*
X016575Y014470D01*
X016325Y014470D01*
X016325Y014540D01*
X016220Y014646D01*
X016110Y014646D01*
X016110Y014854D01*
X016220Y014854D01*
X016325Y014960D01*
X016325Y015621D01*
X016321Y015625D01*
X016325Y015629D01*
X016325Y016290D01*
X016220Y016396D01*
X016110Y016396D01*
X016110Y016580D01*
X016318Y016372D01*
X016485Y016372D01*
X016750Y016108D01*
X016750Y015629D01*
X016754Y015625D01*
X016750Y015621D01*
X016750Y014960D01*
X016855Y014854D01*
X017595Y014854D01*
X017700Y014960D01*
X017700Y015030D01*
X017942Y015030D01*
X018038Y015070D01*
X018079Y015112D01*
X018079Y014380D01*
X018185Y014275D01*
X018846Y014275D01*
X018859Y014287D01*
X018905Y014275D01*
X019137Y014275D01*
X019137Y014702D01*
X019233Y014702D01*
X019233Y014275D01*
X019464Y014275D01*
X019465Y014275D01*
X019465Y014108D01*
X019458Y014100D01*
X019465Y014131D02*
X017296Y014131D01*
X017228Y014290D02*
X018170Y014290D01*
X018079Y014448D02*
X017146Y014448D01*
X016850Y014210D02*
X017435Y013625D01*
X018515Y013625D01*
X018079Y013339D02*
X016325Y013339D01*
X016293Y013180D02*
X018155Y013180D01*
X018079Y013973D02*
X017455Y013973D01*
X017036Y013656D02*
X016325Y013656D01*
X016325Y013814D02*
X016878Y013814D01*
X016850Y014210D02*
X015850Y014210D01*
X015850Y015290D01*
X015810Y015250D01*
X015475Y015250D01*
X014975Y015750D01*
X014475Y015750D01*
X013975Y015250D01*
X011975Y015250D01*
X010850Y014125D01*
X010472Y014131D02*
X010432Y014131D01*
X010480Y014290D02*
X010269Y014290D01*
X010638Y014448D02*
X008860Y014448D01*
X008860Y014290D02*
X009181Y014290D01*
X009173Y014286D02*
X009112Y014241D01*
X009059Y014188D01*
X009014Y014127D01*
X008980Y014059D01*
X008957Y013987D01*
X008945Y013913D01*
X008945Y013895D01*
X009705Y013895D01*
X009705Y014355D01*
X009387Y014355D01*
X009313Y014343D01*
X009241Y014320D01*
X009173Y014286D01*
X009018Y014131D02*
X008860Y014131D01*
X008860Y013973D02*
X008954Y013973D01*
X008945Y013855D02*
X008945Y013837D01*
X008957Y013763D01*
X008980Y013691D01*
X009014Y013623D01*
X009059Y013562D01*
X009112Y013509D01*
X009173Y013464D01*
X009241Y013430D01*
X009313Y013407D01*
X009387Y013395D01*
X009705Y013395D01*
X009705Y013855D01*
X009745Y013855D01*
X009745Y013895D01*
X009705Y013895D01*
X009705Y013855D01*
X008945Y013855D01*
X008949Y013814D02*
X008860Y013814D01*
X008860Y013656D02*
X008998Y013656D01*
X009129Y013497D02*
X008860Y013497D01*
X008860Y013339D02*
X009290Y013339D01*
X009051Y013180D02*
X008860Y013180D01*
X008600Y012875D02*
X009725Y012875D01*
X009745Y013395D02*
X010063Y013395D01*
X010137Y013407D01*
X010209Y013430D01*
X010277Y013464D01*
X010338Y013509D01*
X010391Y013562D01*
X010436Y013623D01*
X010470Y013691D01*
X010493Y013763D01*
X010505Y013837D01*
X010505Y013855D01*
X009745Y013855D01*
X009745Y013395D01*
X009745Y013497D02*
X009705Y013497D01*
X009705Y013656D02*
X009745Y013656D01*
X009745Y013814D02*
X009705Y013814D01*
X009705Y013973D02*
X009745Y013973D01*
X009745Y014131D02*
X009705Y014131D01*
X009705Y014290D02*
X009745Y014290D01*
X008860Y014607D02*
X010964Y014607D01*
X011122Y014765D02*
X008823Y014765D01*
X008728Y014924D02*
X011281Y014924D01*
X011439Y015082D02*
X008678Y015082D01*
X008350Y014875D02*
X008600Y014625D01*
X008600Y012875D01*
X008387Y012662D01*
X008040Y012662D01*
X008040Y012347D02*
X008753Y012347D01*
X009225Y011875D01*
X009725Y011875D01*
X009100Y011375D02*
X010350Y011375D01*
X010725Y011750D01*
X010725Y013250D01*
X012225Y014750D01*
X012975Y014750D01*
X013353Y014765D02*
X014465Y014765D01*
X014465Y014924D02*
X013336Y014924D01*
X013353Y014607D02*
X014316Y014607D01*
X014250Y014448D02*
X013208Y014448D01*
X012742Y014448D02*
X012687Y014448D01*
X012728Y014290D02*
X014250Y014290D01*
X014250Y014131D02*
X012728Y014131D01*
X012350Y014250D02*
X011100Y013000D01*
X011100Y011750D01*
X010350Y011000D01*
X009100Y011000D01*
X008697Y011403D01*
X008040Y011403D01*
X008040Y011718D02*
X008757Y011718D01*
X009100Y011375D01*
X008637Y011088D02*
X009100Y010625D01*
X010350Y010625D01*
X011475Y011750D01*
X011475Y013000D01*
X012225Y013750D01*
X012975Y013750D01*
X013257Y013497D02*
X014250Y013497D01*
X014250Y013339D02*
X012728Y013339D01*
X012728Y013180D02*
X014280Y013180D01*
X014250Y013656D02*
X013353Y013656D01*
X013353Y013814D02*
X014250Y013814D01*
X014250Y013973D02*
X013287Y013973D01*
X014175Y015082D02*
X014358Y015082D01*
X014347Y015241D02*
X014333Y015241D01*
X014725Y015250D02*
X014725Y014210D01*
X014985Y014646D02*
X014985Y014975D01*
X015103Y015093D01*
X015103Y015254D01*
X015255Y015103D01*
X015328Y015030D01*
X015375Y015010D01*
X015375Y014960D01*
X015480Y014854D01*
X015590Y014854D01*
X015590Y014646D01*
X015480Y014646D01*
X015375Y014540D01*
X015375Y013879D01*
X015387Y013866D01*
X015375Y013820D01*
X015375Y013588D01*
X015802Y013588D01*
X015802Y013492D01*
X015375Y013492D01*
X015375Y013261D01*
X015377Y013253D01*
X015215Y013253D01*
X015200Y013267D01*
X015200Y013871D01*
X015196Y013875D01*
X015200Y013879D01*
X015200Y014540D01*
X015095Y014646D01*
X014985Y014646D01*
X014985Y014765D02*
X015590Y014765D01*
X015441Y014607D02*
X015134Y014607D01*
X015200Y014448D02*
X015375Y014448D01*
X015375Y014290D02*
X015200Y014290D01*
X015200Y014131D02*
X015375Y014131D01*
X015375Y013973D02*
X015200Y013973D01*
X015200Y013814D02*
X015375Y013814D01*
X015387Y013866D02*
X015387Y013866D01*
X015375Y013656D02*
X015200Y013656D01*
X015200Y013497D02*
X015802Y013497D01*
X015898Y013497D02*
X017195Y013497D01*
X018079Y014607D02*
X016259Y014607D01*
X016110Y014765D02*
X018079Y014765D01*
X018079Y014924D02*
X017664Y014924D01*
X018050Y015082D02*
X018079Y015082D01*
X017890Y015290D02*
X018100Y015500D01*
X018409Y015500D01*
X018476Y015567D01*
X018515Y015528D01*
X018515Y014750D01*
X018859Y014287D02*
X018859Y014287D01*
X019137Y014290D02*
X019233Y014290D01*
X019233Y014448D02*
X019137Y014448D01*
X019137Y014607D02*
X019233Y014607D01*
X019233Y014798D02*
X019137Y014798D01*
X019137Y015111D01*
X019206Y015111D01*
X019206Y015548D01*
X019242Y015548D01*
X019242Y015225D01*
X019233Y015225D01*
X019233Y014798D01*
X019233Y014924D02*
X019137Y014924D01*
X019137Y015082D02*
X019233Y015082D01*
X019242Y015241D02*
X019206Y015241D01*
X019206Y015399D02*
X019242Y015399D01*
X019242Y015716D02*
X019206Y015716D01*
X019206Y015875D02*
X019242Y015875D01*
X019177Y016033D02*
X019890Y016033D01*
X019732Y015875D02*
X019599Y015875D01*
X019227Y016192D02*
X021424Y016192D01*
X021582Y016350D02*
X019227Y016350D01*
X019227Y016509D02*
X020349Y016509D01*
X020155Y016667D02*
X019227Y016667D01*
X019185Y016826D02*
X020077Y016826D01*
X020050Y016984D02*
X019200Y016984D01*
X019200Y017143D02*
X020064Y017143D01*
X020129Y017301D02*
X019200Y017301D01*
X019200Y017460D02*
X020282Y017460D01*
X020204Y017618D02*
X019200Y017618D01*
X019188Y017634D02*
X019188Y017634D01*
X019200Y017777D02*
X020097Y017777D01*
X020050Y017935D02*
X018773Y017935D01*
X018773Y018008D02*
X019200Y018008D01*
X019200Y018239D01*
X019188Y018285D01*
X019164Y018326D01*
X019131Y018360D01*
X019090Y018383D01*
X019044Y018396D01*
X018773Y018396D01*
X018773Y018008D01*
X018773Y018094D02*
X018677Y018094D01*
X018677Y018252D02*
X018773Y018252D01*
X018677Y017935D02*
X017700Y017935D01*
X017700Y017777D02*
X018250Y017777D01*
X018250Y017618D02*
X017700Y017618D01*
X017225Y017290D02*
X018725Y017290D01*
X018850Y017165D01*
X018850Y016433D01*
X017890Y015290D02*
X017225Y015290D01*
X016750Y015241D02*
X016325Y015241D01*
X016325Y015399D02*
X016750Y015399D01*
X016750Y015558D02*
X016325Y015558D01*
X016325Y015716D02*
X016750Y015716D01*
X016750Y015875D02*
X016325Y015875D01*
X016325Y016033D02*
X016750Y016033D01*
X016666Y016192D02*
X016325Y016192D01*
X016265Y016350D02*
X016507Y016350D01*
X016182Y016509D02*
X016110Y016509D01*
X015850Y016250D02*
X013505Y016250D01*
X013475Y016250D01*
X012225Y017500D01*
X011725Y017500D01*
X009350Y017500D01*
X008850Y018000D01*
X008769Y018000D01*
X009225Y018094D02*
X009847Y018094D01*
X009847Y018252D02*
X009225Y018252D01*
X009225Y018411D02*
X009976Y018411D01*
X010225Y018125D02*
X012350Y018125D01*
X013725Y016750D01*
X015225Y016750D01*
X015375Y017143D02*
X013700Y017143D01*
X013542Y017301D02*
X015375Y017301D01*
X015375Y017460D02*
X013383Y017460D01*
X013225Y017618D02*
X015375Y017618D01*
X015375Y017777D02*
X013066Y017777D01*
X012908Y017935D02*
X015375Y017935D01*
X015375Y018094D02*
X012749Y018094D01*
X012591Y018252D02*
X015375Y018252D01*
X015850Y017960D02*
X015890Y018000D01*
X016475Y018000D01*
X017185Y018000D01*
X017225Y017960D01*
X017700Y018094D02*
X018250Y018094D01*
X018253Y018252D02*
X017700Y018252D01*
X017140Y017375D02*
X017225Y017290D01*
X017140Y017375D02*
X016475Y017375D01*
X016475Y016750D02*
X017225Y016000D01*
X017225Y015960D01*
X016750Y015082D02*
X016325Y015082D01*
X016289Y014924D02*
X016786Y014924D01*
X015850Y015960D02*
X015850Y016250D01*
X015850Y017290D01*
X014232Y015875D02*
X013776Y015875D01*
X014073Y015716D02*
X009919Y015716D01*
X009978Y015558D02*
X013915Y015558D01*
X013233Y015875D02*
X011217Y015875D01*
X011350Y016033D02*
X013100Y016033D01*
X013047Y016192D02*
X011403Y016192D01*
X011399Y016350D02*
X013007Y016350D01*
X012849Y016509D02*
X011333Y016509D01*
X011133Y016667D02*
X012690Y016667D01*
X012532Y016826D02*
X010738Y016826D01*
X010570Y016625D02*
X010945Y016250D01*
X010541Y016033D02*
X007123Y016033D01*
X007123Y016030D02*
X007123Y016233D01*
X006685Y016233D01*
X006685Y015874D01*
X006966Y015874D01*
X007012Y015886D01*
X007053Y015910D01*
X007087Y015944D01*
X007110Y015985D01*
X007123Y016030D01*
X007123Y016192D02*
X010488Y016192D01*
X010478Y016350D02*
X007985Y016350D01*
X007533Y016625D02*
X007533Y017898D01*
X007431Y018000D01*
X007886Y017935D02*
X008314Y017935D01*
X008314Y017777D02*
X007886Y017777D01*
X007886Y017618D02*
X008314Y017618D01*
X007793Y017460D02*
X009023Y017460D01*
X009181Y017301D02*
X007793Y017301D01*
X007793Y017143D02*
X011600Y017143D01*
X011850Y017143D02*
X012215Y017143D01*
X012373Y016984D02*
X007901Y016984D01*
X007533Y016625D02*
X010570Y016625D01*
X010674Y015875D02*
X009760Y015875D01*
X009440Y015875D02*
X006968Y015875D01*
X006685Y015875D02*
X006649Y015875D01*
X006649Y016033D02*
X006685Y016033D01*
X006685Y016192D02*
X006649Y016192D01*
X006667Y016251D02*
X006349Y016251D01*
X006211Y016192D02*
X005746Y016192D01*
X005746Y016033D02*
X006211Y016033D01*
X006366Y015875D02*
X005746Y015875D01*
X005746Y015716D02*
X008198Y015716D01*
X008040Y015558D02*
X006800Y015558D01*
X006789Y015576D02*
X006756Y015610D01*
X006715Y015633D01*
X006669Y015646D01*
X006398Y015646D01*
X006398Y015258D01*
X006825Y015258D01*
X006825Y015489D01*
X006813Y015535D01*
X006789Y015576D01*
X006825Y015399D02*
X007881Y015399D01*
X007723Y015241D02*
X006398Y015241D01*
X006302Y015241D02*
X005707Y015241D01*
X005707Y015399D02*
X005875Y015399D01*
X005900Y015558D02*
X005746Y015558D01*
X005447Y015737D02*
X005310Y015875D01*
X005447Y015737D02*
X005447Y014500D01*
X005563Y014385D01*
X005563Y013565D01*
X005878Y013565D02*
X005878Y013097D01*
X005975Y013000D01*
X006507Y013000D01*
X006507Y012782D01*
X006100Y012375D01*
X006100Y011125D01*
X005563Y010588D01*
X005563Y010185D01*
X005563Y009713D01*
X005475Y009625D01*
X004850Y009625D01*
X004725Y009500D01*
X004725Y009040D01*
X004685Y009000D01*
X004685Y008540D01*
X004975Y008250D01*
X004975Y007125D01*
X004495Y007157D02*
X004455Y007157D01*
X004455Y006999D02*
X004495Y006999D01*
X004495Y006840D02*
X004455Y006840D01*
X004455Y006682D02*
X004495Y006682D01*
X004495Y006523D02*
X004455Y006523D01*
X004455Y006365D02*
X004495Y006365D01*
X004589Y006206D02*
X004361Y006206D01*
X004355Y006048D02*
X004595Y006048D01*
X004595Y005889D02*
X004355Y005889D01*
X004355Y005731D02*
X004624Y005731D01*
X004741Y005572D02*
X004355Y005572D01*
X004355Y005414D02*
X004899Y005414D01*
X005058Y005255D02*
X004355Y005255D01*
X004353Y005097D02*
X007595Y005097D01*
X008355Y005097D02*
X009216Y005097D01*
X009375Y004938D02*
X008355Y004938D01*
X008355Y004780D02*
X009470Y004780D01*
X009400Y004621D02*
X008450Y004621D01*
X008450Y004463D02*
X009355Y004463D01*
X009355Y004304D02*
X008450Y004304D01*
X008450Y004146D02*
X009355Y004146D01*
X009355Y003987D02*
X008439Y003987D01*
X008450Y003829D02*
X009355Y003829D01*
X010345Y003829D02*
X012855Y003829D01*
X012855Y003987D02*
X010345Y003987D01*
X010345Y004146D02*
X012855Y004146D01*
X012855Y004304D02*
X010345Y004304D01*
X010345Y004463D02*
X012855Y004463D01*
X012855Y003670D02*
X010345Y003670D01*
X010345Y003512D02*
X012855Y003512D01*
X012855Y003353D02*
X010345Y003353D01*
X010345Y003195D02*
X012855Y003195D01*
X012868Y003036D02*
X010332Y003036D01*
X010344Y002402D02*
X012856Y002402D01*
X012855Y002244D02*
X010345Y002244D01*
X010345Y002085D02*
X012855Y002085D01*
X012855Y001927D02*
X010345Y001927D01*
X010345Y001768D02*
X012855Y001768D01*
X012855Y001610D02*
X010345Y001610D01*
X010345Y001451D02*
X012855Y001451D01*
X012855Y001293D02*
X010345Y001293D01*
X010345Y001134D02*
X012855Y001134D01*
X013273Y001768D02*
X013427Y001768D01*
X013427Y001927D02*
X013273Y001927D01*
X013273Y002085D02*
X013427Y002085D01*
X013427Y002244D02*
X013273Y002244D01*
X013273Y002402D02*
X013427Y002402D01*
X013832Y003036D02*
X013946Y003036D01*
X014105Y002878D02*
X007281Y002878D01*
X007281Y002719D02*
X014263Y002719D01*
X014475Y002875D02*
X013600Y003750D01*
X013413Y003750D01*
X013350Y003813D01*
X013350Y003750D01*
X015100Y005500D02*
X015350Y005750D01*
X018600Y005750D01*
X018560Y005710D01*
X018560Y005125D01*
X018600Y005165D01*
X018560Y005125D02*
X018560Y004125D01*
X018560Y003375D01*
X018310Y003125D01*
X018747Y003195D02*
X019725Y003195D01*
X019628Y003036D02*
X018746Y003036D01*
X018746Y002878D02*
X019552Y002878D01*
X019510Y002719D02*
X018709Y002719D01*
X018588Y002402D02*
X019490Y002402D01*
X019490Y002561D02*
X017432Y002561D01*
X017273Y002402D02*
X017805Y002402D01*
X017766Y002244D02*
X017115Y002244D01*
X016956Y002085D02*
X017766Y002085D01*
X017766Y001927D02*
X016934Y001927D01*
X016934Y001768D02*
X017766Y001768D01*
X017793Y001610D02*
X016907Y001610D01*
X016695Y002561D02*
X016696Y002561D01*
X016853Y002719D02*
X016855Y002719D01*
X016853Y002878D02*
X017013Y002878D01*
X017004Y003036D02*
X017172Y003036D01*
X017842Y003670D02*
X017938Y003670D01*
X017938Y003829D02*
X017842Y003829D01*
X017842Y003987D02*
X017938Y003987D01*
X018216Y004588D02*
X018216Y004588D01*
X018300Y004621D02*
X017137Y004621D01*
X016850Y004638D02*
X016849Y004637D01*
X016850Y004638D02*
X016850Y005000D01*
X016725Y005125D01*
X016225Y005125D01*
X016101Y005001D01*
X016101Y004637D01*
X016088Y004637D01*
X015975Y004750D01*
X009975Y004750D01*
X009850Y004875D01*
X010850Y006000D02*
X011350Y005500D01*
X015100Y005500D01*
X015100Y005875D02*
X011350Y005875D01*
X010600Y006625D01*
X010600Y008375D01*
X009850Y008000D02*
X007850Y008000D01*
X007850Y007375D01*
X007573Y007633D02*
X007360Y007633D01*
X007360Y007791D02*
X007370Y007791D01*
X007360Y007950D02*
X007370Y007950D01*
X007360Y008108D02*
X007370Y008108D01*
X007360Y008267D02*
X007412Y008267D01*
X007360Y008425D02*
X009307Y008425D01*
X009412Y008267D02*
X008288Y008267D01*
X008832Y008901D02*
X007360Y008901D01*
X007360Y009059D02*
X008673Y009059D01*
X008515Y009218D02*
X007360Y009218D01*
X007360Y009376D02*
X008189Y009376D01*
X008031Y009535D02*
X007502Y009535D01*
X007661Y009693D02*
X007972Y009693D01*
X007972Y009852D02*
X007733Y009852D01*
X007452Y009852D02*
X007100Y009500D01*
X007100Y006500D01*
X007600Y006000D01*
X010850Y006000D01*
X010493Y006365D02*
X010330Y006365D01*
X010453Y006405D02*
X010453Y006405D01*
X010361Y006523D02*
X010330Y006523D01*
X010328Y006682D02*
X010340Y006682D01*
X010340Y006840D02*
X007360Y006840D01*
X007360Y006682D02*
X007372Y006682D01*
X007360Y006999D02*
X007692Y006999D01*
X007533Y007157D02*
X007360Y007157D01*
X007360Y007316D02*
X007472Y007316D01*
X007472Y007474D02*
X007360Y007474D01*
X006840Y007474D02*
X006455Y007474D01*
X006455Y007316D02*
X006840Y007316D01*
X006840Y007157D02*
X006045Y007157D01*
X006045Y007195D02*
X006455Y007195D01*
X006455Y007899D01*
X006443Y007944D01*
X006419Y007986D01*
X006386Y008019D01*
X006344Y008043D01*
X006299Y008055D01*
X006045Y008055D01*
X006045Y007195D01*
X005905Y007195D01*
X005905Y008055D01*
X005651Y008055D01*
X005606Y008043D01*
X005564Y008019D01*
X005531Y007986D01*
X005507Y007944D01*
X005495Y007899D01*
X005495Y007195D01*
X005905Y007195D01*
X005905Y007055D01*
X006045Y007055D01*
X006045Y007195D01*
X006045Y007316D02*
X005905Y007316D01*
X005905Y007474D02*
X006045Y007474D01*
X006045Y007633D02*
X005905Y007633D01*
X005905Y007791D02*
X006045Y007791D01*
X006045Y007950D02*
X005905Y007950D01*
X005510Y007950D02*
X005455Y007950D01*
X005350Y008055D01*
X005235Y008055D01*
X005235Y008302D01*
X005195Y008397D01*
X005122Y008470D01*
X005042Y008551D01*
X005121Y008630D01*
X005121Y009365D01*
X005329Y009365D01*
X005329Y008630D01*
X005435Y008525D01*
X006096Y008525D01*
X006109Y008537D01*
X006155Y008525D01*
X006387Y008525D01*
X006387Y008952D01*
X006483Y008952D01*
X006483Y008525D01*
X006714Y008525D01*
X006760Y008537D01*
X006801Y008561D01*
X006835Y008594D01*
X006840Y008604D01*
X006840Y006448D01*
X006880Y006353D01*
X007352Y005880D01*
X005507Y005880D01*
X005355Y006032D01*
X005355Y006200D01*
X005455Y006300D01*
X005455Y007950D01*
X005455Y007791D02*
X005495Y007791D01*
X005495Y007633D02*
X005455Y007633D01*
X005455Y007474D02*
X005495Y007474D01*
X005495Y007316D02*
X005455Y007316D01*
X005455Y007157D02*
X005905Y007157D01*
X005905Y007055D02*
X005495Y007055D01*
X005495Y006351D01*
X005507Y006306D01*
X005531Y006264D01*
X005564Y006231D01*
X005606Y006207D01*
X005651Y006195D01*
X005905Y006195D01*
X005905Y007055D01*
X005905Y006999D02*
X006045Y006999D01*
X006045Y007055D02*
X006045Y006195D01*
X006299Y006195D01*
X006344Y006207D01*
X006386Y006231D01*
X006419Y006264D01*
X006443Y006306D01*
X006455Y006351D01*
X006455Y007055D01*
X006045Y007055D01*
X006045Y006840D02*
X005905Y006840D01*
X005905Y006682D02*
X006045Y006682D01*
X006045Y006523D02*
X005905Y006523D01*
X005905Y006365D02*
X006045Y006365D01*
X006045Y006206D02*
X005905Y006206D01*
X005610Y006206D02*
X005361Y006206D01*
X005355Y006048D02*
X007185Y006048D01*
X007026Y006206D02*
X006340Y006206D01*
X006455Y006365D02*
X006875Y006365D01*
X006840Y006523D02*
X006455Y006523D01*
X006455Y006682D02*
X006840Y006682D01*
X006840Y006840D02*
X006455Y006840D01*
X006455Y006999D02*
X006840Y006999D01*
X006840Y007633D02*
X006455Y007633D01*
X006455Y007791D02*
X006840Y007791D01*
X006840Y007950D02*
X006440Y007950D01*
X006840Y008108D02*
X005235Y008108D01*
X005235Y008267D02*
X006840Y008267D01*
X006840Y008425D02*
X005168Y008425D01*
X005074Y008584D02*
X005376Y008584D01*
X005329Y008742D02*
X005121Y008742D01*
X005121Y008901D02*
X005329Y008901D01*
X005329Y009059D02*
X005121Y009059D01*
X005121Y009218D02*
X005329Y009218D01*
X005765Y009000D02*
X005850Y009085D01*
X005850Y009500D01*
X006193Y009843D01*
X006193Y010185D01*
X006507Y010185D02*
X006507Y010615D01*
X005958Y010615D01*
X006320Y010978D01*
X006360Y011073D01*
X006360Y012267D01*
X006655Y012562D01*
X006728Y012635D01*
X006767Y012731D01*
X006767Y013135D01*
X006822Y013135D01*
X006822Y013565D01*
X006822Y013995D01*
X006822Y013565D01*
X006822Y013565D01*
X006822Y013565D01*
X006822Y013135D01*
X006956Y013135D01*
X007192Y013135D01*
X007192Y012877D01*
X006972Y012657D01*
X006972Y012343D01*
X007187Y012128D01*
X007068Y012128D01*
X006847Y011907D01*
X006847Y011593D01*
X007068Y011372D01*
X007382Y011372D01*
X007603Y011593D01*
X007603Y011725D01*
X007610Y011731D01*
X007610Y010615D01*
X007397Y010615D01*
X007397Y010638D01*
X007478Y010718D01*
X007478Y011032D01*
X007257Y011253D01*
X006943Y011253D01*
X006722Y011032D01*
X006722Y010718D01*
X006825Y010615D01*
X006638Y010615D01*
X006507Y010615D01*
X006507Y010185D01*
X006507Y010185D01*
X006507Y009755D01*
X006438Y009755D01*
X006413Y009695D01*
X006193Y009475D01*
X006387Y009475D01*
X006387Y009048D01*
X006483Y009048D01*
X006483Y009475D01*
X006714Y009475D01*
X006760Y009463D01*
X006801Y009439D01*
X006835Y009406D01*
X006840Y009396D01*
X006840Y009552D01*
X006880Y009647D01*
X006953Y009720D01*
X006953Y009720D01*
X006987Y009755D01*
X006639Y009755D01*
X006507Y009755D01*
X006507Y010185D01*
X006507Y010185D01*
X006507Y009073D01*
X006435Y009000D01*
X006387Y009059D02*
X006483Y009059D01*
X006483Y008901D02*
X006387Y008901D01*
X006387Y008742D02*
X006483Y008742D01*
X006483Y008584D02*
X006387Y008584D01*
X006109Y008537D02*
X006109Y008537D01*
X006824Y008584D02*
X006840Y008584D01*
X007360Y008584D02*
X009149Y008584D01*
X008990Y008742D02*
X007360Y008742D01*
X006483Y009218D02*
X006387Y009218D01*
X006387Y009376D02*
X006483Y009376D01*
X006252Y009535D02*
X006840Y009535D01*
X006925Y009693D02*
X006411Y009693D01*
X006507Y009852D02*
X006507Y009852D01*
X006507Y010010D02*
X006507Y010010D01*
X006507Y010169D02*
X006507Y010169D01*
X006507Y010327D02*
X006507Y010327D01*
X006507Y010486D02*
X006507Y010486D01*
X006796Y010644D02*
X005987Y010644D01*
X006145Y010803D02*
X006722Y010803D01*
X006722Y010961D02*
X006304Y010961D01*
X006360Y011120D02*
X006810Y011120D01*
X007004Y011437D02*
X006360Y011437D01*
X006360Y011595D02*
X006847Y011595D01*
X006847Y011754D02*
X006360Y011754D01*
X006360Y011912D02*
X006852Y011912D01*
X007011Y012071D02*
X006360Y012071D01*
X006360Y012229D02*
X007086Y012229D01*
X006972Y012388D02*
X006480Y012388D01*
X006639Y012546D02*
X006972Y012546D01*
X007020Y012705D02*
X006757Y012705D01*
X006767Y012863D02*
X007178Y012863D01*
X007192Y013022D02*
X006767Y013022D01*
X006822Y013180D02*
X006822Y013180D01*
X006822Y013339D02*
X006822Y013339D01*
X006822Y013497D02*
X006822Y013497D01*
X006822Y013656D02*
X006822Y013656D01*
X006822Y013814D02*
X006822Y013814D01*
X006822Y013973D02*
X006822Y013973D01*
X006877Y014131D02*
X006747Y014131D01*
X006825Y014290D02*
X006877Y014290D01*
X006847Y014448D02*
X006825Y014448D01*
X006825Y014607D02*
X006847Y014607D01*
X006825Y014765D02*
X006955Y014765D01*
X006813Y014884D02*
X006813Y014884D01*
X006824Y014924D02*
X007590Y014924D01*
X007603Y015082D02*
X006825Y015082D01*
X007225Y014500D02*
X007137Y014412D01*
X007137Y013565D01*
X007452Y013565D02*
X007452Y012602D01*
X007350Y012500D01*
X007568Y012032D02*
X007225Y011750D01*
X007446Y011437D02*
X007610Y011437D01*
X007603Y011595D02*
X007610Y011595D01*
X007610Y011278D02*
X006360Y011278D01*
X005840Y011278D02*
X005090Y011278D01*
X005090Y011120D02*
X005727Y011120D01*
X005840Y011233D02*
X005342Y010735D01*
X005303Y010639D01*
X005303Y010615D01*
X005090Y010615D01*
X005090Y011600D01*
X005193Y011497D01*
X005507Y011497D01*
X005728Y011718D01*
X005728Y012032D01*
X005572Y012187D01*
X005728Y012343D01*
X005728Y012657D01*
X005507Y012878D01*
X005193Y012878D01*
X005090Y012775D01*
X005090Y013135D01*
X005618Y013135D01*
X005618Y013046D01*
X005657Y012950D01*
X005755Y012853D01*
X005828Y012780D01*
X005923Y012740D01*
X006097Y012740D01*
X005953Y012595D01*
X005880Y012522D01*
X005840Y012427D01*
X005840Y011233D01*
X005840Y011437D02*
X005090Y011437D01*
X005090Y011595D02*
X005095Y011595D01*
X005350Y011875D02*
X005193Y012032D01*
X004660Y012032D01*
X003068Y012032D01*
X001600Y013500D01*
X001110Y013754D02*
X001134Y013812D01*
X001288Y013966D01*
X001491Y014050D01*
X001709Y014050D01*
X001912Y013966D01*
X002066Y013812D01*
X002150Y013609D01*
X002150Y013391D01*
X002129Y013339D01*
X003175Y012292D01*
X003940Y012292D01*
X001761Y014471D01*
X001709Y014450D01*
X001491Y014450D01*
X001288Y014534D01*
X001134Y014688D01*
X001110Y014746D01*
X001110Y013754D01*
X001110Y013814D02*
X001136Y013814D01*
X001110Y013973D02*
X001304Y013973D01*
X001110Y014131D02*
X002101Y014131D01*
X001943Y014290D02*
X001110Y014290D01*
X001110Y014448D02*
X001784Y014448D01*
X002225Y014750D02*
X002225Y015375D01*
X001600Y016000D01*
X001600Y015000D02*
X004253Y012347D01*
X004660Y012347D01*
X005197Y012347D01*
X005350Y012500D01*
X005614Y012229D02*
X005840Y012229D01*
X005840Y012071D02*
X005689Y012071D01*
X005728Y011912D02*
X005840Y011912D01*
X005840Y011754D02*
X005728Y011754D01*
X005840Y011595D02*
X005605Y011595D01*
X005568Y010961D02*
X005090Y010961D01*
X005090Y010803D02*
X005410Y010803D01*
X005305Y010644D02*
X005090Y010644D01*
X004725Y010375D02*
X003100Y010375D01*
X002350Y009625D01*
X002350Y009250D01*
X001600Y008500D01*
X001100Y008500D01*
X000850Y008750D01*
X000850Y024500D01*
X001225Y024875D01*
X001225Y025665D01*
X001310Y024592D02*
X021250Y024592D01*
X021253Y024751D02*
X018725Y024751D01*
X018725Y024909D02*
X022191Y024909D01*
X022465Y025068D02*
X020942Y025068D01*
X021263Y025226D02*
X022465Y025226D01*
X022465Y025385D02*
X021429Y025385D01*
X021546Y025543D02*
X022453Y025543D01*
X022308Y025702D02*
X021636Y025702D01*
X021678Y025860D02*
X022245Y025860D01*
X022245Y026019D02*
X021710Y026019D01*
X021710Y026177D02*
X022245Y026177D01*
X022245Y026336D02*
X021693Y026336D01*
X021650Y026494D02*
X022245Y026494D01*
X022248Y026653D02*
X021577Y026653D01*
X021484Y026811D02*
X022314Y026811D01*
X022725Y026250D02*
X022725Y024650D01*
X022985Y025068D02*
X023465Y025068D01*
X023465Y025226D02*
X022985Y025226D01*
X022985Y025385D02*
X023465Y025385D01*
X023453Y025543D02*
X022997Y025543D01*
X023196Y024275D02*
X023254Y024275D01*
X021773Y024751D02*
X021677Y024751D01*
X020258Y025068D02*
X018725Y025068D01*
X018725Y025226D02*
X019937Y025226D01*
X019771Y025385D02*
X018725Y025385D01*
X018725Y025543D02*
X019654Y025543D01*
X019564Y025702D02*
X018725Y025702D01*
X018725Y025860D02*
X019522Y025860D01*
X019490Y026019D02*
X018725Y026019D01*
X018725Y026177D02*
X019490Y026177D01*
X019507Y026336D02*
X018725Y026336D01*
X018725Y026494D02*
X019550Y026494D01*
X019623Y026653D02*
X018725Y026653D01*
X018725Y026811D02*
X019716Y026811D01*
X019875Y026970D02*
X018725Y026970D01*
X018725Y027128D02*
X020117Y027128D01*
X018725Y027287D02*
X028370Y027287D01*
X028370Y027445D02*
X018725Y027445D01*
X018725Y027604D02*
X028370Y027604D01*
X028370Y027762D02*
X018725Y027762D01*
X018725Y027921D02*
X028370Y027921D01*
X028370Y028079D02*
X018725Y028079D01*
X018725Y028238D02*
X028370Y028238D01*
X028370Y028396D02*
X018725Y028396D01*
X018725Y028555D02*
X028370Y028555D01*
X028370Y028713D02*
X018725Y028713D01*
X018725Y028872D02*
X028370Y028872D01*
X028370Y029030D02*
X018725Y029030D01*
X018725Y029189D02*
X028370Y029189D01*
X028370Y029347D02*
X018725Y029347D01*
X018725Y029506D02*
X028291Y029506D01*
X025773Y024275D02*
X025677Y024275D01*
X025677Y024117D02*
X025773Y024117D01*
X025259Y024275D02*
X025196Y024275D01*
X024960Y022056D02*
X026994Y022056D01*
X026835Y021898D02*
X024950Y021898D01*
X024832Y021739D02*
X026677Y021739D01*
X026518Y021581D02*
X024673Y021581D01*
X024515Y021422D02*
X026360Y021422D01*
X026201Y021264D02*
X024356Y021264D01*
X024198Y021105D02*
X026043Y021105D01*
X025884Y020947D02*
X024039Y020947D01*
X023881Y020788D02*
X025726Y020788D01*
X025567Y020630D02*
X023722Y020630D01*
X023564Y020471D02*
X025409Y020471D01*
X025250Y020313D02*
X023405Y020313D01*
X023467Y020154D02*
X023247Y020154D01*
X023347Y019996D02*
X023088Y019996D01*
X022930Y019837D02*
X023345Y019837D01*
X023387Y019679D02*
X022771Y019679D01*
X022613Y019520D02*
X023545Y019520D01*
X022677Y019362D02*
X022454Y019362D01*
X022597Y019203D02*
X022296Y019203D01*
X022235Y019045D02*
X022597Y019045D01*
X022036Y019679D02*
X021056Y019679D01*
X021128Y019837D02*
X022194Y019837D01*
X022353Y019996D02*
X021150Y019996D01*
X021132Y020154D02*
X022511Y020154D01*
X022670Y020313D02*
X021065Y020313D01*
X020300Y020471D02*
X001900Y020471D01*
X002007Y020630D02*
X020193Y020630D01*
X020092Y020788D02*
X002108Y020788D01*
X002150Y020947D02*
X020050Y020947D01*
X020050Y021105D02*
X002150Y021105D01*
X002086Y021264D02*
X019969Y021264D01*
X019810Y021422D02*
X001956Y021422D01*
X001958Y021581D02*
X019715Y021581D01*
X019715Y021739D02*
X002087Y021739D01*
X002150Y021898D02*
X019715Y021898D01*
X019715Y022056D02*
X002150Y022056D01*
X002106Y022215D02*
X019715Y022215D01*
X019715Y022373D02*
X002005Y022373D01*
X001754Y022532D02*
X019715Y022532D01*
X019715Y022690D02*
X001110Y022690D01*
X001110Y022532D02*
X001446Y022532D01*
X001195Y022373D02*
X001110Y022373D01*
X001110Y022849D02*
X019715Y022849D01*
X019715Y023007D02*
X001110Y023007D01*
X001110Y023166D02*
X019715Y023166D01*
X019616Y023324D02*
X001110Y023324D01*
X001110Y023483D02*
X019597Y023483D01*
X019597Y023641D02*
X001110Y023641D01*
X001110Y023800D02*
X019740Y023800D01*
X022435Y022000D02*
X022975Y022000D01*
X022435Y022000D02*
X022435Y021000D01*
X021877Y019520D02*
X020878Y019520D01*
X021016Y019362D02*
X021740Y019362D01*
X021715Y019203D02*
X021111Y019203D01*
X021150Y019045D02*
X021715Y019045D01*
X021715Y018886D02*
X021148Y018886D01*
X021082Y018728D02*
X021715Y018728D01*
X021715Y018569D02*
X020947Y018569D01*
X020967Y018411D02*
X021715Y018411D01*
X021715Y018252D02*
X021091Y018252D01*
X021150Y018094D02*
X021715Y018094D01*
X021715Y017935D02*
X021150Y017935D01*
X021103Y017777D02*
X021715Y017777D01*
X021715Y017618D02*
X020996Y017618D01*
X020918Y017460D02*
X021715Y017460D01*
X021715Y017301D02*
X021071Y017301D01*
X021136Y017143D02*
X021715Y017143D01*
X021715Y016984D02*
X021150Y016984D01*
X021123Y016826D02*
X021715Y016826D01*
X021715Y016667D02*
X021045Y016667D01*
X020851Y016509D02*
X021715Y016509D01*
X022552Y015082D02*
X022648Y015082D01*
X022648Y014924D02*
X022552Y014924D01*
X022552Y014765D02*
X022648Y014765D01*
X023075Y012863D02*
X023742Y012863D01*
X023742Y012705D02*
X023075Y012705D01*
X023075Y012546D02*
X023742Y012546D01*
X023742Y012388D02*
X023075Y012388D01*
X023075Y012229D02*
X023742Y012229D01*
X023559Y012071D02*
X023075Y012071D01*
X023027Y011912D02*
X023394Y011912D01*
X022215Y010644D02*
X022154Y010644D01*
X022215Y010486D02*
X020865Y010486D01*
X021022Y010644D02*
X021796Y010644D01*
X022215Y010327D02*
X021051Y010327D01*
X021126Y010169D02*
X022215Y010169D01*
X022215Y010010D02*
X021150Y010010D01*
X021134Y009852D02*
X022215Y009852D01*
X022215Y009693D02*
X021068Y009693D01*
X020912Y009535D02*
X022215Y009535D01*
X022215Y009376D02*
X021002Y009376D01*
X021105Y009218D02*
X022215Y009218D01*
X022215Y009059D02*
X021150Y009059D01*
X021150Y008901D02*
X022215Y008901D01*
X022215Y008742D02*
X021088Y008742D01*
X020961Y008584D02*
X022215Y008584D01*
X022215Y008425D02*
X020953Y008425D01*
X021085Y008267D02*
X022215Y008267D01*
X021898Y007791D02*
X021109Y007791D01*
X021010Y007633D02*
X021740Y007633D01*
X021581Y007474D02*
X020767Y007474D01*
X020433Y007474D02*
X017621Y007474D01*
X017621Y007633D02*
X020190Y007633D01*
X020091Y007791D02*
X017233Y007791D01*
X017621Y007950D02*
X020050Y007950D01*
X020050Y008108D02*
X017610Y008108D01*
X017621Y008267D02*
X020115Y008267D01*
X020247Y008425D02*
X017621Y008425D01*
X017621Y008584D02*
X018376Y008584D01*
X018375Y009218D02*
X017468Y009218D01*
X017342Y009376D02*
X018375Y009376D01*
X018375Y009535D02*
X017273Y009535D01*
X017273Y009693D02*
X018375Y009693D01*
X018375Y009852D02*
X018325Y009852D01*
X018765Y010165D02*
X018850Y010250D01*
X018850Y009585D01*
X018765Y010165D02*
X017850Y010165D01*
X017375Y010169D02*
X017273Y010169D01*
X017273Y010327D02*
X017375Y010327D01*
X017375Y010010D02*
X017273Y010010D01*
X017273Y009852D02*
X017375Y009852D01*
X016515Y008625D02*
X015725Y008625D01*
X014975Y009250D02*
X014975Y009851D01*
X014475Y009851D02*
X013975Y009851D01*
X013826Y009851D01*
X013350Y009375D01*
X012890Y009375D01*
X012850Y009415D01*
X012914Y009415D01*
X012375Y009218D02*
X012325Y009218D01*
X012295Y009059D02*
X012401Y009059D01*
X011898Y009059D02*
X011802Y009059D01*
X011802Y008979D02*
X011802Y009367D01*
X011375Y009367D01*
X011375Y009136D01*
X011387Y009090D01*
X011411Y009049D01*
X011444Y009015D01*
X011485Y008992D01*
X011531Y008979D01*
X011802Y008979D01*
X011802Y009218D02*
X011898Y009218D01*
X011405Y009059D02*
X011159Y009059D01*
X011317Y008901D02*
X014258Y008901D01*
X014099Y008742D02*
X013325Y008742D01*
X013325Y008584D02*
X013941Y008584D01*
X013782Y008425D02*
X013325Y008425D01*
X013325Y008267D02*
X013715Y008267D01*
X013454Y008108D02*
X013325Y008108D01*
X014234Y007287D02*
X014234Y007287D01*
X014512Y007316D02*
X014608Y007316D01*
X014608Y007474D02*
X014512Y007474D01*
X014512Y007633D02*
X014608Y007633D01*
X015481Y006999D02*
X011235Y006999D01*
X011235Y007157D02*
X015639Y007157D01*
X015322Y006840D02*
X011235Y006840D01*
X011286Y006682D02*
X015164Y006682D01*
X015005Y006523D02*
X011445Y006523D01*
X009850Y006523D02*
X009850Y006523D01*
X009850Y006682D02*
X009850Y006682D01*
X007850Y006682D02*
X007850Y006682D01*
X007850Y006523D02*
X007850Y006523D01*
X007343Y005889D02*
X005498Y005889D01*
X005495Y006365D02*
X005455Y006365D01*
X005455Y006523D02*
X005495Y006523D01*
X005495Y006682D02*
X005455Y006682D01*
X005455Y006840D02*
X005495Y006840D01*
X005495Y006999D02*
X005455Y006999D01*
X004495Y007316D02*
X004455Y007316D01*
X004455Y007474D02*
X004495Y007474D01*
X004495Y007633D02*
X004455Y007633D01*
X004455Y007791D02*
X004495Y007791D01*
X004495Y007950D02*
X004455Y007950D01*
X004715Y008108D02*
X001986Y008108D01*
X001917Y007950D02*
X003495Y007950D01*
X003495Y007791D02*
X002068Y007791D01*
X002135Y007633D02*
X003495Y007633D01*
X003495Y007474D02*
X002150Y007474D01*
X002118Y007316D02*
X003495Y007316D01*
X003495Y007157D02*
X002031Y007157D01*
X001834Y006999D02*
X003495Y006999D01*
X003495Y006840D02*
X002038Y006840D01*
X002120Y006682D02*
X003495Y006682D01*
X003495Y006523D02*
X002150Y006523D01*
X002139Y006365D02*
X003495Y006365D01*
X003589Y006206D02*
X002074Y006206D01*
X001925Y006048D02*
X003595Y006048D01*
X002765Y004780D02*
X000580Y004780D01*
X000580Y004621D02*
X002669Y004621D01*
X002669Y004463D02*
X000580Y004463D01*
X000580Y004304D02*
X002669Y004304D01*
X002669Y004146D02*
X000580Y004146D01*
X000580Y003987D02*
X001090Y003987D01*
X000859Y003829D02*
X000580Y003829D01*
X000580Y003670D02*
X000705Y003670D01*
X000614Y003512D02*
X000580Y003512D01*
X002110Y003987D02*
X002669Y003987D01*
X002669Y003829D02*
X002341Y003829D01*
X002495Y003670D02*
X002669Y003670D01*
X002669Y003512D02*
X002586Y003512D01*
X002654Y003353D02*
X002669Y003353D01*
X002099Y008267D02*
X004591Y008267D01*
X004451Y008425D02*
X002150Y008425D01*
X002150Y008584D02*
X003626Y008584D01*
X003579Y008742D02*
X002210Y008742D01*
X002368Y008901D02*
X003579Y008901D01*
X003579Y009059D02*
X002527Y009059D01*
X002610Y009218D02*
X003579Y009218D01*
X003314Y009376D02*
X002610Y009376D01*
X002627Y009535D02*
X003222Y009535D01*
X003222Y009693D02*
X002786Y009693D01*
X002944Y009852D02*
X003292Y009852D01*
X003103Y010010D02*
X004722Y010010D01*
X004717Y009852D02*
X003908Y009852D01*
X003978Y009693D02*
X004550Y009693D01*
X004465Y009535D02*
X004058Y009535D01*
X004015Y009210D02*
X003600Y009625D01*
X004015Y009210D02*
X004015Y009000D01*
X004915Y010185D02*
X004725Y010375D01*
X004915Y010185D02*
X005248Y010185D01*
X004660Y010773D02*
X002873Y010773D01*
X001600Y009500D01*
X001600Y010500D02*
X002188Y011088D01*
X004660Y011088D01*
X004660Y011403D02*
X002697Y011403D01*
X001600Y012500D01*
X002288Y013180D02*
X003052Y013180D01*
X002894Y013339D02*
X002129Y013339D01*
X002150Y013497D02*
X002735Y013497D01*
X002577Y013656D02*
X002131Y013656D01*
X002064Y013814D02*
X002418Y013814D01*
X002260Y013973D02*
X001896Y013973D01*
X002225Y014750D02*
X004313Y012662D01*
X004660Y012662D01*
X004660Y012977D02*
X004373Y012977D01*
X002600Y014750D01*
X002600Y017000D01*
X001600Y017000D01*
X002071Y017301D02*
X004204Y017301D01*
X004294Y017460D02*
X001918Y017460D01*
X001996Y017618D02*
X006975Y017618D01*
X006975Y017777D02*
X002103Y017777D01*
X002150Y017935D02*
X006975Y017935D01*
X006975Y018094D02*
X002150Y018094D01*
X002091Y018252D02*
X006975Y018252D01*
X006975Y018411D02*
X001967Y018411D01*
X001947Y018569D02*
X020253Y018569D01*
X020233Y018411D02*
X010474Y018411D01*
X009880Y017935D02*
X009283Y017935D01*
X009441Y017777D02*
X010039Y017777D01*
X008314Y018094D02*
X007886Y018094D01*
X007886Y018252D02*
X008314Y018252D01*
X008314Y018411D02*
X007886Y018411D01*
X007273Y017460D02*
X005656Y017460D01*
X005746Y017301D02*
X006242Y017301D01*
X006666Y017000D02*
X006667Y016999D01*
X006666Y017000D02*
X005310Y017000D01*
X005746Y016667D02*
X006272Y016667D01*
X006221Y016509D02*
X002860Y016509D01*
X002860Y016667D02*
X004204Y016667D01*
X004310Y016350D02*
X002860Y016350D01*
X002860Y016192D02*
X004204Y016192D01*
X004204Y016033D02*
X002860Y016033D01*
X002860Y015875D02*
X004204Y015875D01*
X004204Y015716D02*
X002860Y015716D01*
X002860Y015558D02*
X004204Y015558D01*
X004243Y015399D02*
X002860Y015399D01*
X002860Y015241D02*
X004243Y015241D01*
X004243Y015082D02*
X002860Y015082D01*
X002860Y014924D02*
X004199Y014924D01*
X004185Y014765D02*
X002953Y014765D01*
X003111Y014607D02*
X004185Y014607D01*
X004185Y014448D02*
X003270Y014448D01*
X003428Y014290D02*
X004185Y014290D01*
X004185Y014131D02*
X003587Y014131D01*
X003745Y013973D02*
X004215Y013973D01*
X004293Y013814D02*
X003904Y013814D01*
X004062Y013656D02*
X004452Y013656D01*
X004610Y013497D02*
X004221Y013497D01*
X004379Y013339D02*
X004777Y013339D01*
X004910Y013565D02*
X004475Y014000D01*
X004475Y014472D01*
X004503Y014500D01*
X004503Y015737D01*
X004640Y015875D01*
X004975Y016346D02*
X004971Y016350D01*
X004975Y016346D02*
X004979Y016350D01*
X005640Y016350D02*
X006211Y016350D01*
X006302Y015558D02*
X006398Y015558D01*
X006398Y015399D02*
X006302Y015399D01*
X005875Y015082D02*
X005707Y015082D01*
X005751Y014924D02*
X005876Y014924D01*
X005875Y014765D02*
X005765Y014765D01*
X005765Y014607D02*
X005875Y014607D01*
X005875Y014448D02*
X005818Y014448D01*
X005823Y014290D02*
X005875Y014290D01*
X005823Y014131D02*
X005954Y014131D01*
X006193Y013973D02*
X006193Y013973D01*
X006193Y013814D02*
X006193Y013814D01*
X006193Y013656D02*
X006193Y013656D01*
X006507Y013565D02*
X006507Y013000D01*
X006655Y012562D02*
X006655Y012562D01*
X006062Y012705D02*
X005680Y012705D01*
X005728Y012546D02*
X005903Y012546D01*
X005953Y012595D02*
X005953Y012595D01*
X005840Y012388D02*
X005728Y012388D01*
X005744Y012863D02*
X005522Y012863D01*
X005628Y013022D02*
X005090Y013022D01*
X005090Y012863D02*
X005178Y012863D01*
X005248Y013565D02*
X004910Y013565D01*
X004958Y013885D02*
X004857Y013985D01*
X004975Y013985D01*
X005053Y013985D01*
X004958Y013890D01*
X004958Y013885D01*
X004975Y013985D02*
X004975Y014500D01*
X004975Y014500D01*
X004975Y015015D01*
X004814Y015015D01*
X004768Y015002D01*
X004763Y014999D01*
X004763Y015400D01*
X004971Y015400D01*
X004975Y015404D01*
X004979Y015400D01*
X005187Y015400D01*
X005187Y014999D01*
X005182Y015002D01*
X005136Y015015D01*
X004975Y015015D01*
X004975Y014500D01*
X004975Y013985D01*
X005041Y013973D02*
X004870Y013973D01*
X004975Y014131D02*
X004975Y014131D01*
X004975Y014290D02*
X004975Y014290D01*
X004975Y014448D02*
X004975Y014448D01*
X004975Y014500D02*
X004975Y014500D01*
X004975Y014607D02*
X004975Y014607D01*
X004975Y014765D02*
X004975Y014765D01*
X004975Y014924D02*
X004975Y014924D01*
X004763Y015082D02*
X005187Y015082D01*
X005187Y015241D02*
X004763Y015241D01*
X004763Y015399D02*
X005187Y015399D01*
X004640Y017000D02*
X002600Y017000D01*
X002082Y018728D02*
X020118Y018728D01*
X020052Y018886D02*
X002148Y018886D01*
X002150Y019045D02*
X020050Y019045D01*
X020089Y019203D02*
X002111Y019203D01*
X002016Y019362D02*
X020184Y019362D01*
X020322Y019520D02*
X001878Y019520D01*
X002056Y019679D02*
X020144Y019679D01*
X020072Y019837D02*
X002128Y019837D01*
X002150Y019996D02*
X020050Y019996D01*
X020068Y020154D02*
X002132Y020154D01*
X002065Y020313D02*
X020135Y020313D01*
X020109Y018252D02*
X019197Y018252D01*
X019200Y018094D02*
X020050Y018094D01*
X015411Y014924D02*
X014985Y014924D01*
X015092Y015082D02*
X015275Y015082D01*
X015117Y015241D02*
X015103Y015241D01*
X014725Y013540D02*
X014725Y013375D01*
X015225Y012875D01*
X015200Y013339D02*
X015375Y013339D01*
X015802Y013339D02*
X015898Y013339D01*
X015898Y013180D02*
X015802Y013180D01*
X013600Y010750D02*
X012850Y010750D01*
X012850Y010085D01*
X012375Y010169D02*
X012325Y010169D01*
X012325Y010327D02*
X012375Y010327D01*
X012445Y010486D02*
X012255Y010486D01*
X012110Y010644D02*
X012441Y010644D01*
X012375Y010803D02*
X012145Y010803D01*
X012304Y010961D02*
X012375Y010961D01*
X012850Y011040D02*
X012850Y010750D01*
X013570Y009228D02*
X013570Y009228D01*
X011375Y009218D02*
X011000Y009218D01*
X009972Y009376D02*
X009967Y009376D01*
X009100Y010250D02*
X008577Y010773D01*
X008040Y010773D01*
X008040Y011088D02*
X008637Y011088D01*
X008497Y010486D02*
X008367Y010486D01*
X008655Y010327D02*
X007742Y010327D01*
X007452Y010185D02*
X007452Y009852D01*
X007137Y010185D02*
X007137Y010838D01*
X007100Y010875D01*
X007390Y011120D02*
X007610Y011120D01*
X007610Y010961D02*
X007478Y010961D01*
X007478Y010803D02*
X007610Y010803D01*
X007610Y010644D02*
X007404Y010644D01*
X007568Y012032D02*
X008040Y012032D01*
X008040Y012977D02*
X008040Y014560D01*
X007850Y014750D01*
X007850Y015000D01*
X008350Y015500D01*
X009600Y015500D01*
X009875Y015241D02*
X011598Y015241D01*
X011756Y015399D02*
X009978Y015399D01*
X010501Y013814D02*
X010626Y013814D01*
X010763Y013656D02*
X010452Y013656D01*
X010321Y013497D02*
X010604Y013497D01*
X010480Y013339D02*
X010160Y013339D01*
X010399Y013180D02*
X010465Y013180D01*
X007780Y013339D02*
X007742Y013339D01*
X007742Y013497D02*
X007780Y013497D01*
X007780Y013656D02*
X007742Y013656D01*
X007742Y013814D02*
X007780Y013814D01*
X007780Y013973D02*
X007659Y013973D01*
X007780Y014131D02*
X007397Y014131D01*
X007549Y014290D02*
X007780Y014290D01*
X007780Y014448D02*
X007603Y014448D01*
X007603Y014607D02*
X007628Y014607D01*
X007590Y014765D02*
X007495Y014765D01*
X007165Y016984D02*
X007123Y016984D01*
X007123Y017143D02*
X007273Y017143D01*
X007273Y017301D02*
X007092Y017301D01*
X003211Y013022D02*
X002446Y013022D01*
X002605Y012863D02*
X003369Y012863D01*
X003528Y012705D02*
X002763Y012705D01*
X002922Y012546D02*
X003686Y012546D01*
X003845Y012388D02*
X003080Y012388D01*
X001216Y014607D02*
X001110Y014607D01*
X007927Y003353D02*
X008023Y003353D01*
X009773Y002402D02*
X009927Y002402D01*
X009927Y002244D02*
X009773Y002244D01*
X009773Y002085D02*
X009927Y002085D01*
X009927Y001927D02*
X009773Y001927D01*
X009773Y001768D02*
X009927Y001768D01*
X013845Y001451D02*
X018862Y001451D01*
X019020Y001293D02*
X013845Y001293D01*
X013845Y001134D02*
X019179Y001134D01*
X018703Y001610D02*
X018600Y001610D01*
X019144Y002244D02*
X019520Y002244D01*
X019562Y002085D02*
X019302Y002085D01*
X019461Y001927D02*
X019649Y001927D01*
X019619Y001768D02*
X019762Y001768D01*
X019778Y001610D02*
X019923Y001610D01*
X021277Y001610D02*
X021803Y001610D01*
X021962Y001768D02*
X021438Y001768D01*
X021551Y001927D02*
X022120Y001927D01*
X022279Y002085D02*
X021638Y002085D01*
X021680Y002244D02*
X022437Y002244D01*
X022578Y002402D02*
X021710Y002402D01*
X021710Y002561D02*
X022578Y002561D01*
X022578Y002719D02*
X021690Y002719D01*
X021648Y002878D02*
X022578Y002878D01*
X022578Y003036D02*
X021572Y003036D01*
X021475Y003195D02*
X022647Y003195D01*
X022315Y003553D02*
X022422Y003660D01*
X022424Y003664D01*
X022478Y003718D01*
X022478Y003795D01*
X022480Y003799D01*
X022480Y006093D01*
X022797Y006410D01*
X022799Y006414D01*
X022853Y006468D01*
X022853Y006545D01*
X022855Y006549D01*
X022855Y006701D01*
X022853Y006705D01*
X022853Y006782D01*
X022799Y006836D01*
X022797Y006840D01*
X028370Y006840D01*
X028370Y006682D02*
X022855Y006682D01*
X022853Y006523D02*
X028370Y006523D01*
X028370Y006365D02*
X022752Y006365D01*
X022593Y006206D02*
X028370Y006206D01*
X028370Y006048D02*
X022480Y006048D01*
X022480Y005889D02*
X028370Y005889D01*
X028370Y005731D02*
X022480Y005731D01*
X022480Y005572D02*
X022623Y005572D01*
X022578Y005527D02*
X022684Y005633D01*
X023778Y005633D01*
X023883Y005527D01*
X023883Y004276D01*
X023778Y004170D01*
X022684Y004170D01*
X022578Y004276D01*
X022578Y005527D01*
X022578Y005414D02*
X022480Y005414D01*
X022480Y005255D02*
X022578Y005255D01*
X022578Y005097D02*
X022480Y005097D01*
X022480Y004938D02*
X022578Y004938D01*
X022578Y004780D02*
X022480Y004780D01*
X022480Y004621D02*
X022578Y004621D01*
X022578Y004463D02*
X022480Y004463D01*
X022480Y004304D02*
X022578Y004304D01*
X022480Y004146D02*
X024595Y004146D01*
X024595Y004125D02*
X024729Y003802D01*
X024977Y003554D01*
X025300Y003420D01*
X025650Y003420D01*
X025973Y003554D01*
X026221Y003802D01*
X026355Y004125D01*
X026355Y004475D01*
X026221Y004798D01*
X025973Y005046D01*
X025650Y005180D01*
X025300Y005180D01*
X024977Y005046D01*
X024729Y004798D01*
X024595Y004475D01*
X024595Y004125D01*
X024652Y003987D02*
X022480Y003987D01*
X022480Y003829D02*
X024718Y003829D01*
X024860Y003670D02*
X022430Y003670D01*
X022315Y003553D02*
X022311Y003551D01*
X022257Y003497D01*
X022180Y003497D01*
X022176Y003495D01*
X022024Y003495D01*
X022020Y003497D01*
X021943Y003497D01*
X021889Y003551D01*
X021885Y003553D01*
X021778Y003660D01*
X021776Y003664D01*
X021722Y003718D01*
X021722Y003795D01*
X021720Y003799D01*
X021720Y004730D01*
X021640Y004650D01*
X020979Y004650D01*
X020966Y004662D01*
X020966Y004662D01*
X020920Y004650D01*
X020688Y004650D01*
X020688Y005077D01*
X020592Y005077D01*
X020204Y005077D01*
X020204Y004806D01*
X020217Y004760D01*
X020240Y004719D01*
X020274Y004686D01*
X020315Y004662D01*
X020361Y004650D01*
X020592Y004650D01*
X020592Y005077D01*
X020592Y005173D01*
X020204Y005173D01*
X020204Y005444D01*
X020217Y005490D01*
X020240Y005531D01*
X020274Y005564D01*
X020315Y005588D01*
X020361Y005600D01*
X020592Y005600D01*
X020592Y005173D01*
X020688Y005173D01*
X020688Y005600D01*
X020920Y005600D01*
X020966Y005588D01*
X020966Y005588D01*
X020979Y005600D01*
X021640Y005600D01*
X021720Y005520D01*
X021720Y006326D01*
X021778Y006465D01*
X022260Y006947D01*
X022264Y006949D01*
X022318Y007003D01*
X022395Y007003D01*
X022399Y007005D01*
X022551Y007005D01*
X022555Y007003D01*
X022632Y007003D01*
X022686Y006949D01*
X022690Y006947D01*
X022797Y006840D01*
X022636Y006999D02*
X028370Y006999D01*
X028370Y007157D02*
X022375Y007157D01*
X022314Y006999D02*
X022216Y006999D01*
X022153Y006840D02*
X022058Y006840D01*
X021994Y006682D02*
X021899Y006682D01*
X021836Y006523D02*
X021731Y006523D01*
X021736Y006365D02*
X015957Y006365D01*
X015799Y006206D02*
X021720Y006206D01*
X021720Y006048D02*
X019587Y006048D01*
X019728Y005889D02*
X021720Y005889D01*
X021720Y005731D02*
X019728Y005731D01*
X019707Y005572D02*
X020287Y005572D01*
X020204Y005414D02*
X019548Y005414D01*
X019350Y005750D02*
X018600Y005750D01*
X018996Y005414D02*
X019152Y005414D01*
X018996Y005255D02*
X020204Y005255D01*
X020204Y004938D02*
X018996Y004938D01*
X018996Y004780D02*
X020212Y004780D01*
X020592Y004780D02*
X020688Y004780D01*
X020688Y004938D02*
X020592Y004938D01*
X020592Y005097D02*
X018996Y005097D01*
X018820Y004621D02*
X021720Y004621D01*
X021720Y004463D02*
X018996Y004463D01*
X018996Y004304D02*
X021720Y004304D01*
X021720Y004146D02*
X018996Y004146D01*
X018996Y003987D02*
X021720Y003987D01*
X021720Y003829D02*
X018996Y003829D01*
X018910Y003670D02*
X021770Y003670D01*
X021929Y003512D02*
X021068Y003512D01*
X021317Y003353D02*
X025235Y003353D01*
X025300Y003380D02*
X024977Y003246D01*
X024729Y002998D01*
X024595Y002675D01*
X024595Y002325D01*
X024729Y002002D01*
X024977Y001754D01*
X025300Y001620D01*
X025650Y001620D01*
X025973Y001754D01*
X026221Y002002D01*
X026355Y002325D01*
X026355Y002675D01*
X026221Y002998D01*
X025973Y003246D01*
X025650Y003380D01*
X025300Y003380D01*
X025079Y003512D02*
X022271Y003512D01*
X023815Y003195D02*
X024925Y003195D01*
X024766Y003036D02*
X023883Y003036D01*
X023883Y002878D02*
X024679Y002878D01*
X024613Y002719D02*
X023883Y002719D01*
X023883Y002561D02*
X024595Y002561D01*
X024595Y002402D02*
X023883Y002402D01*
X023883Y002244D02*
X024629Y002244D01*
X024694Y002085D02*
X023883Y002085D01*
X023883Y001927D02*
X024804Y001927D01*
X024962Y001768D02*
X023036Y001768D01*
X022878Y001610D02*
X028370Y001610D01*
X028370Y001768D02*
X025988Y001768D01*
X026146Y001927D02*
X027067Y001927D01*
X027067Y002085D02*
X026256Y002085D01*
X026321Y002244D02*
X027067Y002244D01*
X027067Y002402D02*
X026355Y002402D01*
X026355Y002561D02*
X027639Y002561D01*
X027639Y002719D02*
X027799Y002719D01*
X027799Y002878D02*
X027639Y002878D01*
X027639Y003036D02*
X027799Y003036D01*
X027799Y003195D02*
X027639Y003195D01*
X028303Y003195D02*
X028370Y003195D01*
X028370Y003353D02*
X025715Y003353D01*
X025871Y003512D02*
X028370Y003512D01*
X028370Y003670D02*
X026090Y003670D01*
X026232Y003829D02*
X028370Y003829D01*
X028370Y003987D02*
X026298Y003987D01*
X026355Y004146D02*
X028370Y004146D01*
X028365Y004304D02*
X028370Y004304D01*
X027799Y004304D02*
X027639Y004304D01*
X027639Y004463D02*
X027799Y004463D01*
X027799Y004621D02*
X027639Y004621D01*
X027639Y004780D02*
X027799Y004780D01*
X027639Y004938D02*
X026081Y004938D01*
X026229Y004780D02*
X027067Y004780D01*
X027067Y004621D02*
X026295Y004621D01*
X026355Y004463D02*
X027067Y004463D01*
X027073Y004304D02*
X026355Y004304D01*
X025852Y005097D02*
X027067Y005097D01*
X027067Y005255D02*
X023883Y005255D01*
X023883Y005097D02*
X025098Y005097D01*
X024868Y004938D02*
X023883Y004938D01*
X023883Y004780D02*
X024721Y004780D01*
X024655Y004621D02*
X023883Y004621D01*
X023883Y004463D02*
X024595Y004463D01*
X024595Y004304D02*
X023883Y004304D01*
X023883Y005414D02*
X027067Y005414D01*
X027111Y005572D02*
X023839Y005572D01*
X021720Y005572D02*
X021668Y005572D01*
X020688Y005572D02*
X020592Y005572D01*
X020592Y005414D02*
X020688Y005414D01*
X020688Y005255D02*
X020592Y005255D01*
X021600Y006750D02*
X023350Y008500D01*
X023009Y007791D02*
X028370Y007791D01*
X028370Y007633D02*
X022850Y007633D01*
X022692Y007474D02*
X028370Y007474D01*
X028370Y007316D02*
X022533Y007316D01*
X021600Y006750D02*
X015975Y006750D01*
X015100Y005875D01*
X015640Y006048D02*
X019113Y006048D01*
X016624Y003987D02*
X016326Y003987D01*
X016389Y003829D02*
X016561Y003829D01*
X015835Y004304D02*
X015825Y004304D01*
X018820Y003512D02*
X020132Y003512D01*
X019883Y003353D02*
X018820Y003353D01*
X022402Y001134D02*
X028305Y001134D01*
X028370Y001293D02*
X022561Y001293D01*
X022719Y001451D02*
X028370Y001451D01*
X027799Y001927D02*
X027639Y001927D01*
X027639Y002085D02*
X027799Y002085D01*
X027799Y002244D02*
X027639Y002244D01*
X027639Y002402D02*
X027799Y002402D01*
X027067Y002719D02*
X026337Y002719D01*
X026271Y002878D02*
X027067Y002878D01*
X027067Y003036D02*
X026184Y003036D01*
X026025Y003195D02*
X027135Y003195D01*
X027639Y005097D02*
X027799Y005097D01*
X027799Y005255D02*
X027639Y005255D01*
X027639Y005414D02*
X027799Y005414D01*
X027799Y005572D02*
X027639Y005572D01*
X028327Y005572D02*
X028370Y005572D01*
X028370Y008267D02*
X025341Y008267D01*
X025518Y008425D02*
X028370Y008425D01*
X028370Y008584D02*
X025676Y008584D01*
X025835Y008742D02*
X028370Y008742D01*
X028370Y008901D02*
X025993Y008901D01*
X026152Y009059D02*
X028370Y009059D01*
X028370Y009218D02*
X026310Y009218D01*
X026360Y009376D02*
X028370Y009376D01*
X028370Y009535D02*
X026360Y009535D01*
X026360Y009693D02*
X028370Y009693D01*
X028370Y009852D02*
X026360Y009852D01*
X026371Y010010D02*
X028386Y010010D01*
X028465Y010169D02*
X026371Y010169D01*
X026371Y010327D02*
X028623Y010327D01*
X028725Y010486D02*
X026371Y010486D01*
X026360Y010644D02*
X028725Y010644D01*
X028725Y010803D02*
X026360Y010803D01*
X026360Y010961D02*
X028725Y010961D01*
X028725Y011120D02*
X028414Y011120D01*
X028394Y011114D02*
X028440Y011127D01*
X028481Y011150D01*
X028515Y011184D01*
X028538Y011225D01*
X028551Y011271D01*
X028551Y011432D01*
X028016Y011432D01*
X028016Y011432D01*
X028016Y011114D01*
X028394Y011114D01*
X028551Y011278D02*
X028725Y011278D01*
X028725Y011437D02*
X028551Y011437D01*
X028016Y011432D02*
X028016Y011432D01*
X028016Y011278D02*
X028016Y011278D01*
X028016Y011120D02*
X028016Y011120D01*
X027619Y011120D02*
X026360Y011120D01*
X026360Y011278D02*
X027482Y011278D01*
X027482Y011437D02*
X026360Y011437D01*
X026360Y011595D02*
X027482Y011595D01*
X027482Y011754D02*
X026360Y011754D01*
X026360Y011912D02*
X027482Y011912D01*
X027482Y012071D02*
X026360Y012071D01*
X026360Y012229D02*
X027482Y012229D01*
X028016Y012279D02*
X028016Y012279D01*
X028551Y012279D01*
X028551Y012460D01*
X028546Y012475D01*
X028551Y012480D01*
X028551Y013496D01*
X028578Y013468D01*
X028725Y013321D01*
X028725Y012105D01*
X028551Y012105D01*
X028551Y012279D01*
X028016Y012279D01*
X028016Y011845D02*
X029786Y011845D01*
X029797Y011856D01*
X028725Y012229D02*
X028551Y012229D01*
X028551Y012388D02*
X028725Y012388D01*
X028725Y012546D02*
X028551Y012546D01*
X028551Y012705D02*
X028725Y012705D01*
X028725Y012863D02*
X028551Y012863D01*
X028551Y013022D02*
X028725Y013022D01*
X028725Y013180D02*
X028551Y013180D01*
X028551Y013339D02*
X028708Y013339D01*
X025100Y014625D02*
X025100Y016500D01*
X025350Y016750D01*
X025668Y016750D01*
X025726Y016808D01*
X025726Y017711D01*
X025765Y017750D01*
X019233Y012863D02*
X019137Y012863D01*
X019137Y012705D02*
X019233Y012705D01*
X018850Y010665D02*
X018850Y010250D01*
X000750Y027604D02*
X000580Y027604D01*
X000580Y027762D02*
X000750Y027762D01*
X001157Y029030D02*
X001293Y029030D01*
X001293Y029189D02*
X001157Y029189D01*
D41*
X001975Y028875D03*
X003850Y028125D03*
X004475Y028625D03*
X004475Y029500D03*
X005475Y029250D03*
X003600Y025625D03*
X002725Y024625D03*
X005850Y024625D03*
X002725Y021500D03*
X002725Y018750D03*
X003600Y016000D03*
X004975Y015125D03*
X007225Y014500D03*
X008350Y014875D03*
X009600Y015500D03*
X009975Y014875D03*
X010850Y014125D03*
X012350Y014250D03*
X012975Y013750D03*
X012350Y013250D03*
X012850Y012500D03*
X013600Y010750D03*
X013725Y008875D03*
X015725Y008625D03*
X015725Y007750D03*
X017725Y006250D03*
X018600Y007875D03*
X019350Y005750D03*
X022100Y003875D03*
X023225Y003625D03*
X023225Y001250D03*
X027725Y001250D03*
X027975Y003625D03*
X027975Y007625D03*
X026100Y007625D03*
X025475Y009500D03*
X025225Y010875D03*
X025600Y012000D03*
X025100Y012750D03*
X025600Y013500D03*
X026850Y012750D03*
X026975Y012000D03*
X027975Y010750D03*
X025600Y015125D03*
X023225Y013500D03*
X021975Y013500D03*
X022850Y015625D03*
X022850Y018250D03*
X022975Y019125D03*
X023725Y019875D03*
X025225Y018500D03*
X026475Y019875D03*
X025225Y022250D03*
X024100Y022250D03*
X022975Y022000D03*
X022100Y022750D03*
X021225Y023250D03*
X020600Y023500D03*
X019975Y023500D03*
X019100Y023000D03*
X017725Y021500D03*
X017725Y020125D03*
X017725Y018750D03*
X016475Y018000D03*
X016475Y017375D03*
X016475Y016750D03*
X015225Y016750D03*
X015225Y017375D03*
X014225Y017375D03*
X014225Y018750D03*
X011850Y018750D03*
X010225Y018125D03*
X009475Y018750D03*
X009475Y021500D03*
X011850Y021500D03*
X014225Y021500D03*
X014975Y023000D03*
X012225Y025250D03*
X011850Y024625D03*
X010225Y025125D03*
X009475Y024625D03*
X011100Y027750D03*
X011850Y028000D03*
X013975Y029375D03*
X018975Y029375D03*
X018975Y027375D03*
X018975Y025125D03*
X021850Y025125D03*
X023975Y029375D03*
X027975Y029375D03*
X026725Y022500D03*
X021975Y020125D03*
X016850Y014210D03*
X016850Y013375D03*
X017850Y012000D03*
X016600Y010875D03*
X015225Y012875D03*
X014725Y015250D03*
X012975Y014750D03*
X012600Y016000D03*
X007350Y012500D03*
X006725Y012250D03*
X007225Y011750D03*
X007100Y010875D03*
X008350Y009750D03*
X009225Y009750D03*
X010350Y009500D03*
X009850Y007250D03*
X007850Y007375D03*
X007725Y008625D03*
X006600Y007750D03*
X005600Y008250D03*
X006600Y006250D03*
X008600Y005500D03*
X008850Y004625D03*
X007850Y002875D03*
X007850Y001250D03*
X011600Y001250D03*
X011600Y002875D03*
X015600Y002000D03*
X016475Y002875D03*
X015600Y001250D03*
X015600Y005250D03*
X013350Y006875D03*
X005350Y011250D03*
X005350Y011875D03*
X005350Y012500D03*
X002600Y013250D03*
X003600Y009625D03*
X002725Y008250D03*
X002725Y006250D03*
X001600Y005250D03*
X003975Y005250D03*
X005850Y018750D03*
X021975Y011000D03*
X022975Y011000D03*
X022975Y009125D03*
X021975Y009125D03*
X022475Y006625D03*
D42*
X022100Y006250D01*
X022100Y005125D01*
X021310Y005125D01*
X022100Y005125D02*
X022100Y003875D01*
X023231Y002500D02*
X021856Y001125D01*
X019725Y001125D01*
X018850Y002000D01*
X018196Y002000D01*
X016504Y002000D02*
X015600Y002000D01*
X013350Y001687D02*
X010087Y001687D01*
X009850Y003813D02*
X009850Y004875D01*
X009850Y005000D01*
X009350Y005500D01*
X008600Y005500D01*
X008676Y005500D01*
X008600Y005500D02*
X007975Y005500D01*
X007975Y004335D01*
X007975Y005500D02*
X005350Y005500D01*
X004975Y005875D01*
X004975Y007125D01*
X003975Y007125D02*
X003975Y005250D01*
X023725Y019875D02*
X025350Y019875D01*
X027725Y022250D01*
X027725Y023350D01*
X026725Y023350D02*
X026725Y022500D01*
X011100Y027750D02*
X010500Y027750D01*
X009200Y027750D02*
X008725Y027750D01*
X008475Y027500D01*
X008475Y025875D01*
D43*
X011725Y017500D03*
D44*
X006507Y014448D02*
X006507Y013565D01*
X006507Y014448D02*
X006350Y014540D01*
D45*
X025935Y010250D02*
X026100Y010000D01*
M02*
