%
M48
M72
T01C0.0236
T02C0.0276
T03C0.0354
T04C0.0400
T05C0.0500
T06C0.0700
T07C0.0800
T08C0.1260
%
T01
X3957Y1975
X4707Y3850
X4207Y4475
X3332Y4475
X3582Y5475
X7207Y3600
X8207Y2725
X8207Y5850
X11332Y2725
X14082Y2725
X16832Y3600
X17707Y4975
X18332Y7225
X17957Y8350
X17332Y9600
X17957Y9975
X18707Y10850
X18582Y12350
X19082Y12975
X19582Y12350
X20332Y12850
X22082Y13600
X23957Y13725
X24207Y15725
X25082Y15725
X26582Y17725
X27082Y19350
X24957Y18600
X21957Y16600
X20832Y17850
X19457Y16850
X18622Y16850
X19957Y15225
X17582Y14725
X16082Y15225
X15457Y15225
X15457Y14225
X14082Y14225
X14832Y16475
X15457Y16475
X16082Y16475
X14082Y17725
X12707Y17725
X11332Y17725
X9832Y19100
X9332Y19975
X9332Y20600
X9582Y21225
X10082Y22100
X10832Y22975
X10582Y24100
X10582Y25225
X10332Y26725
X12957Y26475
X14332Y25225
X12957Y23725
X13707Y22975
X14582Y22850
X12707Y21975
X17207Y22850
X19332Y23225
X19332Y21975
X21832Y21975
X21832Y22975
X23707Y22975
X23707Y21975
X26207Y22475
X28957Y22100
X29207Y23225
X31582Y23225
X31582Y27725
X29207Y27975
X25207Y27975
X25207Y26100
X23332Y25475
X21957Y25225
X20832Y25600
X20082Y25100
X19332Y25600
X20082Y26850
X20832Y26975
X22082Y27975
X17707Y25600
X7707Y21850
X7707Y18975
X5457Y18975
X3457Y18975
X3457Y13975
X4832Y11850
X5082Y11100
X7582Y12225
X8207Y11850
X7707Y10225
X8207Y9475
X11332Y9475
X11332Y11850
X11332Y14225
X9832Y14975
X14082Y11850
X15332Y11725
X14707Y10225
X14082Y9475
X16832Y12600
X18082Y12975
X23332Y10350
X23082Y9225
X23082Y8350
X24207Y7725
X25082Y6600
X24582Y5600
X26582Y6600
X25457Y7850
X27332Y8600
X28207Y8850
X29957Y7850
X31582Y7850
X31582Y11600
X29957Y11600
X30832Y15600
X31582Y15600
X29957Y16475
X27582Y15600
X25957Y13350
X25582Y9850
X21957Y7100
X21082Y7225
X20582Y6725
X20332Y7350
X20332Y5350
X20957Y5350
X21582Y5350
X23207Y3600
X24582Y2725
X26582Y2725
X27582Y1600
X27582Y3975
X19582Y2600
X14082Y5850
X3457Y23975
X3457Y27975
T02
X6957Y17475
X6957Y16475
X6957Y15475
X6957Y9475
X6957Y8475
X6957Y7475
X6957Y6475
T03
X16582Y10945
X16582Y13505
T04
X18957Y9725
X19957Y9725
X20957Y9725
X21332Y1600
X22332Y1600
X23332Y1600
X24332Y1600
X25332Y1600
X26332Y1600
X20332Y1600
X19332Y1600
X17832Y1600
X16832Y1600
X15832Y1600
X14832Y1600
X13832Y1600
X12832Y1600
X11832Y1600
X10832Y1600
X10832Y20600
X11832Y20600
X12832Y20600
X13832Y20600
X14832Y20600
X15832Y20600
X17832Y20600
X18832Y20600
X19832Y20600
X20832Y20600
X21832Y20600
X22832Y20600
X23832Y20600
X24832Y20600
X6582Y22725
X6582Y23725
X6582Y24725
X6582Y25725
X6582Y26725
X6582Y27725
T05
X4707Y16475
T06
X5711Y15471
X5711Y17479
X3703Y17479
X3703Y15471
T07
X28532Y25475
X30332Y25475
T08
X30332Y20600
X29832Y1600
X6707Y20600
M30
