G75*
%MOIN*%
%OFA0B0*%
%FSLAX24Y24*%
%IPPOS*%
%LPD*%
%AMOC8*
5,1,8,0,0,1.08239X$1,22.5*
%
%ADD10C,0.0740*%
%ADD11C,0.0600*%
%ADD12C,0.0554*%
%ADD13C,0.0860*%
%ADD14C,0.0750*%
%ADD15C,0.1050*%
%ADD16OC8,0.0396*%
%ADD17C,0.0160*%
%ADD18C,0.0400*%
%ADD19C,0.0396*%
%ADD20C,0.0240*%
D10*
X001600Y006500D03*
X001600Y007500D03*
X001600Y008500D03*
X001600Y009500D03*
X001600Y010500D03*
X001600Y011500D03*
X001600Y012500D03*
X001600Y013500D03*
X001600Y015000D03*
X001600Y016000D03*
X001600Y017000D03*
X001600Y018000D03*
X001600Y019000D03*
X001600Y020000D03*
X001600Y021000D03*
X001600Y022000D03*
X020600Y022000D03*
X020600Y021000D03*
X020600Y020000D03*
X020600Y019000D03*
X020600Y018000D03*
X020600Y017000D03*
X020600Y015000D03*
X020600Y014000D03*
X020600Y013000D03*
X020600Y012000D03*
X020600Y011000D03*
X020600Y010000D03*
X020600Y009000D03*
X020600Y008000D03*
D11*
X010025Y011875D02*
X009425Y011875D01*
X009425Y012875D02*
X010025Y012875D01*
X010025Y013875D02*
X009425Y013875D01*
X022725Y025950D02*
X022725Y026550D01*
X023725Y026550D02*
X023725Y025950D01*
X024725Y025950D02*
X024725Y026550D01*
X025725Y026550D02*
X025725Y025950D01*
X026725Y025950D02*
X026725Y026550D01*
X027725Y026550D02*
X027725Y025950D01*
D12*
X013505Y016250D03*
X010945Y016250D03*
D13*
X009475Y025875D03*
X008475Y025875D03*
X007475Y025875D03*
X006475Y025875D03*
X015475Y025875D03*
X016475Y025875D03*
X017475Y025875D03*
D14*
X016475Y028125D03*
D15*
X015471Y027121D03*
X015471Y029129D03*
X017479Y029129D03*
X017479Y027121D03*
D16*
X018975Y027375D03*
X018975Y029375D03*
X018975Y025125D03*
X019975Y023500D03*
X020600Y023500D03*
X021225Y023250D03*
X022100Y022750D03*
X022975Y022000D03*
X024100Y022250D03*
X025225Y022250D03*
X026725Y022500D03*
X026475Y019875D03*
X025225Y018500D03*
X023725Y019875D03*
X022975Y019125D03*
X022850Y018250D03*
X021975Y020125D03*
X019100Y023000D03*
X017725Y021500D03*
X017725Y020125D03*
X017725Y018750D03*
X016475Y018000D03*
X016475Y017375D03*
X016475Y016750D03*
X015225Y016750D03*
X015225Y017375D03*
X014225Y017375D03*
X014225Y018750D03*
X011850Y018750D03*
X010225Y018125D03*
X009475Y018750D03*
X009475Y021500D03*
X011850Y021500D03*
X014225Y021500D03*
X014975Y023000D03*
X012225Y025250D03*
X011850Y024625D03*
X010225Y025125D03*
X009475Y024625D03*
X011100Y027750D03*
X011850Y028000D03*
X013975Y029375D03*
X021850Y025125D03*
X023975Y029375D03*
X027975Y029375D03*
X022850Y015625D03*
X023225Y013500D03*
X021975Y013500D03*
X021975Y011000D03*
X022975Y011000D03*
X022975Y009125D03*
X021975Y009125D03*
X022475Y006625D03*
X022100Y003875D03*
X023225Y003625D03*
X023225Y001250D03*
X027725Y001250D03*
X027975Y003625D03*
X027975Y007625D03*
X026100Y007625D03*
X025475Y009500D03*
X025225Y010875D03*
X025600Y012000D03*
X025100Y012750D03*
X025600Y013500D03*
X026850Y012750D03*
X026975Y012000D03*
X027975Y010750D03*
X025600Y015125D03*
X017850Y012000D03*
X016600Y010875D03*
X015225Y012875D03*
X016850Y013375D03*
X016850Y014210D03*
X014725Y015250D03*
X012975Y014750D03*
X012350Y014250D03*
X012975Y013750D03*
X012350Y013250D03*
X012850Y012500D03*
X013600Y010750D03*
X013725Y008875D03*
X015725Y008625D03*
X015725Y007750D03*
X017725Y006250D03*
X018600Y007875D03*
X019350Y005750D03*
X016475Y002875D03*
X015600Y002000D03*
X015600Y001250D03*
X015600Y005250D03*
X013350Y006875D03*
X010350Y009500D03*
X009225Y009750D03*
X008350Y009750D03*
X007725Y008625D03*
X006600Y007750D03*
X005600Y008250D03*
X006600Y006250D03*
X007850Y007375D03*
X009850Y007250D03*
X008600Y005500D03*
X008850Y004625D03*
X007850Y002875D03*
X007850Y001250D03*
X011600Y001250D03*
X011600Y002875D03*
X003975Y005250D03*
X002725Y006250D03*
X001600Y005250D03*
X002725Y008250D03*
X003600Y009625D03*
X005350Y011250D03*
X005350Y011875D03*
X005350Y012500D03*
X006725Y012250D03*
X007350Y012500D03*
X007225Y011750D03*
X007100Y010875D03*
X007225Y014500D03*
X008350Y014875D03*
X009600Y015500D03*
X009975Y014875D03*
X010850Y014125D03*
X012600Y016000D03*
X005850Y018750D03*
X002725Y018750D03*
X002725Y021500D03*
X002725Y024625D03*
X003600Y025625D03*
X005850Y024625D03*
X003850Y028125D03*
X004475Y028625D03*
X004475Y029500D03*
X005475Y029250D03*
X001975Y028875D03*
X003600Y016000D03*
X004975Y015125D03*
X002600Y013250D03*
D17*
X000580Y001199D02*
X000799Y000980D01*
X019333Y000980D01*
X018693Y001620D01*
X007149Y001620D01*
X007010Y001678D01*
X003653Y005035D01*
X003651Y005039D01*
X003597Y005093D01*
X003597Y005170D01*
X003595Y005174D01*
X003595Y005326D01*
X003597Y005330D01*
X003597Y005407D01*
X003651Y005461D01*
X003653Y005465D01*
X003760Y005572D01*
X003764Y005574D01*
X003818Y005628D01*
X003895Y005628D01*
X003899Y005630D01*
X004051Y005630D01*
X004055Y005628D01*
X004132Y005628D01*
X004186Y005574D01*
X004190Y005572D01*
X007382Y002380D01*
X018926Y002380D01*
X019065Y002322D01*
X019172Y002215D01*
X019882Y001505D01*
X020104Y001505D01*
X019918Y001612D01*
X019712Y001818D01*
X019566Y002072D01*
X019490Y002354D01*
X019490Y002646D01*
X019566Y002928D01*
X019712Y003182D01*
X019918Y003388D01*
X020172Y003534D01*
X020454Y003610D01*
X020746Y003610D01*
X021028Y003534D01*
X021282Y003388D01*
X021488Y003182D01*
X021634Y002928D01*
X021710Y002646D01*
X021710Y002354D01*
X021634Y002072D01*
X021488Y001818D01*
X021282Y001612D01*
X021096Y001505D01*
X021693Y001505D01*
X021720Y001532D01*
X021720Y003951D01*
X021722Y003955D01*
X021722Y004032D01*
X021776Y004086D01*
X021778Y004090D01*
X021885Y004197D01*
X021889Y004199D01*
X021943Y004253D01*
X022020Y004253D01*
X022024Y004255D01*
X022176Y004255D01*
X022180Y004253D01*
X022257Y004253D01*
X022311Y004199D01*
X022315Y004197D01*
X022422Y004090D01*
X022424Y004086D01*
X022478Y004032D01*
X022478Y003955D01*
X022480Y003951D01*
X022480Y001299D01*
X022422Y001160D01*
X022242Y000980D01*
X028151Y000980D01*
X028370Y001199D01*
X028370Y009970D01*
X028443Y010147D01*
X028578Y010282D01*
X028578Y010282D01*
X028725Y010429D01*
X028725Y013321D01*
X028578Y013468D01*
X028443Y013603D01*
X028370Y013780D01*
X028370Y029426D01*
X028151Y029645D01*
X018725Y029645D01*
X018725Y024750D01*
X014225Y024750D01*
X014225Y029645D01*
X000799Y029645D01*
X000580Y029426D01*
X000580Y003453D01*
X000712Y003682D01*
X000918Y003888D01*
X001172Y004034D01*
X001454Y004110D01*
X001746Y004110D01*
X002028Y004034D01*
X002282Y003888D01*
X002488Y003682D01*
X002634Y003428D01*
X002710Y003146D01*
X002710Y002854D01*
X002634Y002572D01*
X002488Y002318D01*
X002282Y002112D01*
X002028Y001966D01*
X001746Y001890D01*
X001454Y001890D01*
X001172Y001966D01*
X000918Y002112D01*
X000712Y002318D01*
X000580Y002547D01*
X000580Y001199D01*
X000645Y001134D02*
X019179Y001134D01*
X019020Y001293D02*
X000580Y001293D01*
X000580Y001451D02*
X018862Y001451D01*
X018703Y001610D02*
X000580Y001610D01*
X000580Y001768D02*
X006920Y001768D01*
X006761Y001927D02*
X001882Y001927D01*
X002235Y002085D02*
X006603Y002085D01*
X006444Y002244D02*
X002413Y002244D01*
X002536Y002402D02*
X006286Y002402D01*
X006127Y002561D02*
X002628Y002561D01*
X002674Y002719D02*
X005969Y002719D01*
X005810Y002878D02*
X002710Y002878D01*
X002710Y003036D02*
X005652Y003036D01*
X005493Y003195D02*
X002697Y003195D01*
X002654Y003353D02*
X005335Y003353D01*
X005176Y003512D02*
X002586Y003512D01*
X002495Y003670D02*
X005018Y003670D01*
X004859Y003829D02*
X002341Y003829D01*
X002110Y003987D02*
X004701Y003987D01*
X004542Y004146D02*
X000580Y004146D01*
X000580Y004304D02*
X004384Y004304D01*
X004225Y004463D02*
X000580Y004463D01*
X000580Y004621D02*
X004067Y004621D01*
X003908Y004780D02*
X000580Y004780D01*
X000580Y004938D02*
X003750Y004938D01*
X003597Y005097D02*
X000580Y005097D01*
X000580Y005255D02*
X003595Y005255D01*
X003604Y005414D02*
X000580Y005414D01*
X000580Y005572D02*
X003760Y005572D01*
X004190Y005572D02*
X008220Y005572D01*
X008220Y005576D02*
X008220Y005424D01*
X008222Y005420D01*
X008222Y005343D01*
X008276Y005289D01*
X008278Y005285D01*
X008385Y005178D01*
X008389Y005176D01*
X008443Y005122D01*
X008520Y005122D01*
X008524Y005120D01*
X011345Y005120D01*
X011345Y005054D01*
X011339Y005033D01*
X011345Y004979D01*
X011345Y004924D01*
X011353Y004904D01*
X011356Y004883D01*
X011382Y004835D01*
X011403Y004785D01*
X011418Y004769D01*
X011429Y004750D01*
X011471Y004716D01*
X011510Y004678D01*
X011530Y004670D01*
X012096Y004216D01*
X012135Y004178D01*
X012155Y004170D01*
X012172Y004156D01*
X012224Y004141D01*
X012274Y004120D01*
X012296Y004120D01*
X012317Y004114D01*
X012371Y004120D01*
X019426Y004120D01*
X019565Y004178D01*
X019672Y004285D01*
X020757Y005370D01*
X023176Y005370D01*
X023315Y005428D01*
X024922Y007035D01*
X024980Y007174D01*
X024980Y010585D01*
X025068Y010497D01*
X025382Y010497D01*
X025603Y010718D01*
X025603Y011032D01*
X025382Y011253D01*
X025068Y011253D01*
X024980Y011165D01*
X024980Y012372D01*
X025257Y012372D01*
X025375Y012490D01*
X026575Y012490D01*
X026693Y012372D01*
X027007Y012372D01*
X027228Y012593D01*
X027228Y012907D01*
X027007Y013128D01*
X026693Y013128D01*
X026575Y013010D01*
X025375Y013010D01*
X025257Y013128D01*
X024980Y013128D01*
X024980Y020336D01*
X026878Y022122D01*
X026882Y022122D01*
X026944Y022184D01*
X027040Y022275D01*
X027045Y022285D01*
X027103Y022343D01*
X027103Y022432D01*
X027107Y022564D01*
X027103Y022575D01*
X027103Y022657D01*
X027041Y022719D01*
X026950Y022815D01*
X026940Y022820D01*
X026882Y022878D01*
X026793Y022878D01*
X026661Y022882D01*
X026650Y022878D01*
X026568Y022878D01*
X026506Y022816D01*
X024390Y020824D01*
X024385Y020822D01*
X024335Y020773D01*
X024285Y020725D01*
X024282Y020719D01*
X024278Y020715D01*
X024251Y020651D01*
X024222Y020587D01*
X024222Y020581D01*
X024220Y020576D01*
X024220Y020506D01*
X024218Y020436D01*
X024220Y020430D01*
X024220Y007407D01*
X022943Y006130D01*
X021735Y006130D01*
X021735Y010705D01*
X021818Y010622D01*
X022132Y010622D01*
X022250Y010740D01*
X022700Y010740D01*
X022818Y010622D01*
X023132Y010622D01*
X023345Y010835D01*
X023345Y008032D01*
X022153Y006840D01*
X021735Y006840D01*
X021735Y006682D02*
X022095Y006682D01*
X022095Y006701D02*
X022095Y006549D01*
X022097Y006545D01*
X022097Y006468D01*
X022151Y006414D01*
X022153Y006410D01*
X022260Y006303D01*
X022264Y006301D01*
X022318Y006247D01*
X022395Y006247D01*
X022399Y006245D01*
X022551Y006245D01*
X022555Y006247D01*
X022632Y006247D01*
X022686Y006301D01*
X022690Y006303D01*
X024047Y007660D01*
X024105Y007799D01*
X024105Y019951D01*
X024103Y019955D01*
X024103Y020032D01*
X024049Y020086D01*
X024047Y020090D01*
X023940Y020197D01*
X023936Y020199D01*
X023882Y020253D01*
X023805Y020253D01*
X023801Y020255D01*
X023649Y020255D01*
X023645Y020253D01*
X023568Y020253D01*
X023514Y020199D01*
X023510Y020197D01*
X023403Y020090D01*
X023401Y020086D01*
X023347Y020032D01*
X023347Y019955D01*
X023345Y019951D01*
X023345Y019290D01*
X023235Y019400D01*
X023235Y021725D01*
X023353Y021843D01*
X023353Y022157D01*
X023235Y022275D01*
X023235Y023427D01*
X023195Y023522D01*
X022122Y024595D01*
X022027Y024635D01*
X014083Y024635D01*
X013985Y024733D01*
X013985Y028052D01*
X013945Y028147D01*
X012622Y029470D01*
X012527Y029510D01*
X005750Y029510D01*
X005632Y029628D01*
X005318Y029628D01*
X005097Y029407D01*
X005097Y029093D01*
X005305Y028885D01*
X004750Y028885D01*
X004632Y029003D01*
X004318Y029003D01*
X004097Y028782D01*
X004097Y028468D01*
X004180Y028385D01*
X004125Y028385D01*
X004007Y028503D01*
X003693Y028503D01*
X003472Y028282D01*
X003472Y027968D01*
X003693Y027747D01*
X004007Y027747D01*
X004125Y027865D01*
X005527Y027865D01*
X005622Y027905D01*
X005695Y027978D01*
X005958Y028240D01*
X012367Y028240D01*
X012715Y027892D01*
X012715Y024753D01*
X012530Y024937D01*
X012570Y024978D01*
X012610Y025073D01*
X012610Y025177D01*
X012603Y025193D01*
X012603Y025407D01*
X012382Y025628D01*
X012068Y025628D01*
X011847Y025407D01*
X011847Y025093D01*
X011965Y024975D01*
X011965Y024823D01*
X012005Y024728D01*
X012078Y024655D01*
X014465Y022267D01*
X014465Y015525D01*
X014347Y015407D01*
X014347Y015093D01*
X014430Y015010D01*
X013250Y015010D01*
X013132Y015128D01*
X012818Y015128D01*
X012597Y014907D01*
X012597Y014593D01*
X012680Y014510D01*
X012625Y014510D01*
X012507Y014628D01*
X012193Y014628D01*
X012105Y014540D01*
X012105Y017576D01*
X012047Y017715D01*
X011480Y018282D01*
X011480Y027826D01*
X011478Y027830D01*
X011478Y027907D01*
X011424Y027961D01*
X011422Y027965D01*
X011315Y028072D01*
X011311Y028074D01*
X011257Y028128D01*
X011180Y028128D01*
X011176Y028130D01*
X011024Y028130D01*
X011020Y028128D01*
X010943Y028128D01*
X010889Y028074D01*
X010885Y028072D01*
X010778Y027965D01*
X010776Y027961D01*
X010722Y027907D01*
X010722Y027830D01*
X010720Y027826D01*
X010720Y018049D01*
X010778Y017910D01*
X011345Y017343D01*
X011345Y016480D01*
X011333Y016509D01*
X011204Y016638D01*
X011036Y016707D01*
X010855Y016707D01*
X010687Y016638D01*
X010558Y016509D01*
X010488Y016341D01*
X010488Y016159D01*
X010558Y015991D01*
X010687Y015862D01*
X010855Y015793D01*
X011036Y015793D01*
X011204Y015862D01*
X011333Y015991D01*
X011345Y016020D01*
X011345Y005880D01*
X008524Y005880D01*
X008520Y005878D01*
X008443Y005878D01*
X008389Y005824D01*
X008385Y005822D01*
X008278Y005715D01*
X008276Y005711D01*
X008222Y005657D01*
X008222Y005580D01*
X008220Y005576D01*
X008222Y005414D02*
X004349Y005414D01*
X004507Y005255D02*
X008308Y005255D01*
X008293Y005731D02*
X000580Y005731D01*
X000580Y005889D02*
X011345Y005889D01*
X011345Y006048D02*
X001925Y006048D01*
X001912Y006034D02*
X002066Y006188D01*
X002150Y006391D01*
X002150Y006609D01*
X002066Y006812D01*
X001912Y006966D01*
X001830Y007000D01*
X001888Y007030D01*
X001958Y007080D01*
X002020Y007142D01*
X002070Y007212D01*
X002110Y007289D01*
X002136Y007371D01*
X002150Y007457D01*
X002150Y007480D01*
X001620Y007480D01*
X001620Y007520D01*
X002150Y007520D01*
X002150Y007543D01*
X002136Y007629D01*
X002110Y007711D01*
X002070Y007788D01*
X002020Y007858D01*
X001958Y007920D01*
X001888Y007970D01*
X001830Y008000D01*
X001912Y008034D01*
X002066Y008188D01*
X002150Y008391D01*
X002150Y008609D01*
X002066Y008812D01*
X001912Y008966D01*
X001830Y009000D01*
X001912Y009034D01*
X002066Y009188D01*
X002150Y009391D01*
X002150Y009609D01*
X002066Y009812D01*
X001912Y009966D01*
X001830Y010000D01*
X001912Y010034D01*
X002066Y010188D01*
X002150Y010391D01*
X002150Y010609D01*
X002081Y010777D01*
X003222Y009635D01*
X003222Y009468D01*
X003443Y009247D01*
X003757Y009247D01*
X003875Y009365D01*
X005742Y009365D01*
X007524Y007584D01*
X007472Y007532D01*
X007472Y007218D01*
X007693Y006997D01*
X008007Y006997D01*
X008228Y007218D01*
X008228Y007532D01*
X008110Y007650D01*
X008110Y007677D01*
X008070Y007772D01*
X007997Y007845D01*
X006110Y009733D01*
X006110Y010517D01*
X007016Y011424D01*
X007068Y011372D01*
X007382Y011372D01*
X007465Y011455D01*
X007465Y011045D01*
X007257Y011253D01*
X006943Y011253D01*
X006722Y011032D01*
X006722Y010718D01*
X006840Y010600D01*
X006840Y009823D01*
X006880Y009728D01*
X008005Y008603D01*
X008078Y008530D01*
X008173Y008490D01*
X010527Y008490D01*
X010622Y008530D01*
X010997Y008905D01*
X011070Y008978D01*
X011110Y009073D01*
X011110Y013850D01*
X011228Y013968D01*
X011228Y014282D01*
X011007Y014503D01*
X010693Y014503D01*
X010472Y014282D01*
X010472Y014053D01*
X010470Y014059D01*
X010436Y014127D01*
X010391Y014188D01*
X010338Y014241D01*
X010277Y014286D01*
X010209Y014320D01*
X010137Y014343D01*
X010063Y014355D01*
X009745Y014355D01*
X009745Y013895D01*
X009705Y013895D01*
X009705Y014355D01*
X009387Y014355D01*
X009313Y014343D01*
X009241Y014320D01*
X009173Y014286D01*
X009112Y014241D01*
X009110Y014239D01*
X009110Y015177D01*
X009070Y015272D01*
X008820Y015522D01*
X008747Y015595D01*
X008652Y015635D01*
X007708Y015635D01*
X002485Y020858D01*
X002485Y021427D01*
X002445Y021522D01*
X002129Y021839D01*
X002150Y021891D01*
X002150Y022109D01*
X002066Y022312D01*
X001912Y022466D01*
X001709Y022550D01*
X001491Y022550D01*
X001288Y022466D01*
X001134Y022312D01*
X001050Y022109D01*
X001050Y021891D01*
X001134Y021688D01*
X001288Y021534D01*
X001370Y021500D01*
X001288Y021466D01*
X001134Y021312D01*
X001050Y021109D01*
X001050Y020891D01*
X001134Y020688D01*
X001288Y020534D01*
X001370Y020500D01*
X001288Y020466D01*
X001134Y020312D01*
X001050Y020109D01*
X001050Y019891D01*
X001134Y019688D01*
X001288Y019534D01*
X001370Y019500D01*
X001288Y019466D01*
X001134Y019312D01*
X001050Y019109D01*
X001050Y018891D01*
X001134Y018688D01*
X001288Y018534D01*
X001370Y018500D01*
X001288Y018466D01*
X001134Y018312D01*
X001050Y018109D01*
X001050Y017891D01*
X001134Y017688D01*
X001288Y017534D01*
X001370Y017500D01*
X001288Y017466D01*
X001134Y017312D01*
X001050Y017109D01*
X001050Y016891D01*
X001134Y016688D01*
X001288Y016534D01*
X001370Y016500D01*
X001288Y016466D01*
X001134Y016312D01*
X001050Y016109D01*
X001050Y015891D01*
X001134Y015688D01*
X001288Y015534D01*
X001370Y015500D01*
X001288Y015466D01*
X001134Y015312D01*
X001050Y015109D01*
X001050Y014891D01*
X001134Y014688D01*
X001288Y014534D01*
X001491Y014450D01*
X001709Y014450D01*
X001912Y014534D01*
X002066Y014688D01*
X002150Y014891D01*
X002150Y015109D01*
X002066Y015312D01*
X001912Y015466D01*
X001830Y015500D01*
X001912Y015534D01*
X002066Y015688D01*
X002150Y015891D01*
X002150Y016109D01*
X002066Y016312D01*
X001912Y016466D01*
X001830Y016500D01*
X001912Y016534D01*
X002066Y016688D01*
X002150Y016891D01*
X002150Y017109D01*
X002066Y017312D01*
X001912Y017466D01*
X001830Y017500D01*
X001912Y017534D01*
X002066Y017688D01*
X002088Y017740D01*
X004117Y017740D01*
X006965Y014892D01*
X006965Y014775D01*
X006847Y014657D01*
X006847Y014343D01*
X007068Y014122D01*
X007382Y014122D01*
X007603Y014343D01*
X007603Y014644D01*
X007673Y014615D01*
X008075Y014615D01*
X008193Y014497D01*
X008507Y014497D01*
X008590Y014580D01*
X008590Y012753D01*
X007820Y013522D01*
X007747Y013595D01*
X007652Y013635D01*
X006173Y013635D01*
X006078Y013595D01*
X005360Y012878D01*
X005193Y012878D01*
X004972Y012657D01*
X004972Y012343D01*
X005128Y012187D01*
X004972Y012032D01*
X004972Y011718D01*
X005193Y011497D01*
X005507Y011497D01*
X005728Y011718D01*
X005728Y011885D01*
X006583Y012740D01*
X007055Y012740D01*
X006972Y012657D01*
X006972Y012343D01*
X007187Y012128D01*
X007068Y012128D01*
X006950Y012010D01*
X006923Y012010D01*
X006828Y011970D01*
X005703Y010845D01*
X005630Y010772D01*
X005590Y010677D01*
X005590Y009885D01*
X003875Y009885D01*
X003757Y010003D01*
X003590Y010003D01*
X002150Y011443D01*
X002150Y011609D01*
X002066Y011812D01*
X001912Y011966D01*
X001830Y012000D01*
X001912Y012034D01*
X002066Y012188D01*
X002150Y012391D01*
X002150Y012609D01*
X002066Y012812D01*
X001912Y012966D01*
X001830Y013000D01*
X001912Y013034D01*
X002066Y013188D01*
X002150Y013391D01*
X002150Y013609D01*
X002066Y013812D01*
X001912Y013966D01*
X001709Y014050D01*
X001491Y014050D01*
X001288Y013966D01*
X001134Y013812D01*
X001050Y013609D01*
X001050Y013391D01*
X001134Y013188D01*
X001288Y013034D01*
X001370Y013000D01*
X001288Y012966D01*
X001134Y012812D01*
X001050Y012609D01*
X001050Y012391D01*
X001134Y012188D01*
X001288Y012034D01*
X001370Y012000D01*
X001288Y011966D01*
X001134Y011812D01*
X001050Y011609D01*
X001050Y011391D01*
X001134Y011188D01*
X001288Y011034D01*
X001370Y011000D01*
X001288Y010966D01*
X001134Y010812D01*
X001050Y010609D01*
X001050Y010391D01*
X001134Y010188D01*
X001288Y010034D01*
X001370Y010000D01*
X001288Y009966D01*
X001134Y009812D01*
X001050Y009609D01*
X001050Y009391D01*
X001134Y009188D01*
X001288Y009034D01*
X001370Y009000D01*
X001288Y008966D01*
X001134Y008812D01*
X001050Y008609D01*
X001050Y008391D01*
X001134Y008188D01*
X001288Y008034D01*
X001370Y008000D01*
X001312Y007970D01*
X001242Y007920D01*
X001180Y007858D01*
X001130Y007788D01*
X001090Y007711D01*
X001064Y007629D01*
X001050Y007543D01*
X001050Y007520D01*
X001580Y007520D01*
X001580Y007480D01*
X001050Y007480D01*
X001050Y007457D01*
X001064Y007371D01*
X001090Y007289D01*
X001130Y007212D01*
X001180Y007142D01*
X001242Y007080D01*
X001312Y007030D01*
X001370Y007000D01*
X001288Y006966D01*
X001134Y006812D01*
X001050Y006609D01*
X001050Y006391D01*
X001134Y006188D01*
X001288Y006034D01*
X001491Y005950D01*
X001709Y005950D01*
X001912Y006034D01*
X002074Y006206D02*
X011345Y006206D01*
X011345Y006365D02*
X002139Y006365D01*
X002150Y006523D02*
X011345Y006523D01*
X011345Y006682D02*
X002120Y006682D01*
X002038Y006840D02*
X011345Y006840D01*
X011345Y006999D02*
X008008Y006999D01*
X008167Y007157D02*
X011345Y007157D01*
X011345Y007316D02*
X008228Y007316D01*
X008228Y007474D02*
X011345Y007474D01*
X011345Y007633D02*
X008127Y007633D01*
X008052Y007791D02*
X011345Y007791D01*
X011345Y007950D02*
X007893Y007950D01*
X007735Y008108D02*
X011345Y008108D01*
X011345Y008267D02*
X007576Y008267D01*
X007418Y008425D02*
X011345Y008425D01*
X011345Y008584D02*
X010676Y008584D01*
X010835Y008742D02*
X011345Y008742D01*
X011345Y008901D02*
X010993Y008901D01*
X011104Y009059D02*
X011345Y009059D01*
X011345Y009218D02*
X011110Y009218D01*
X011110Y009376D02*
X011345Y009376D01*
X011345Y009535D02*
X011110Y009535D01*
X011110Y009693D02*
X011345Y009693D01*
X011345Y009852D02*
X011110Y009852D01*
X011110Y010010D02*
X011345Y010010D01*
X011345Y010169D02*
X011110Y010169D01*
X011110Y010327D02*
X011345Y010327D01*
X011345Y010486D02*
X011110Y010486D01*
X011110Y010644D02*
X011345Y010644D01*
X011345Y010803D02*
X011110Y010803D01*
X011110Y010961D02*
X011345Y010961D01*
X011345Y011120D02*
X011110Y011120D01*
X011110Y011278D02*
X011345Y011278D01*
X011345Y011437D02*
X011110Y011437D01*
X011110Y011595D02*
X011345Y011595D01*
X011345Y011754D02*
X011110Y011754D01*
X011110Y011912D02*
X011345Y011912D01*
X011345Y012071D02*
X011110Y012071D01*
X011110Y012229D02*
X011345Y012229D01*
X011345Y012388D02*
X011110Y012388D01*
X011110Y012546D02*
X011345Y012546D01*
X011345Y012705D02*
X011110Y012705D01*
X011110Y012863D02*
X011345Y012863D01*
X011345Y013022D02*
X011110Y013022D01*
X011110Y013180D02*
X011345Y013180D01*
X011345Y013339D02*
X011110Y013339D01*
X011110Y013497D02*
X011345Y013497D01*
X011345Y013656D02*
X011110Y013656D01*
X011110Y013814D02*
X011345Y013814D01*
X011345Y013973D02*
X011228Y013973D01*
X011228Y014131D02*
X011345Y014131D01*
X011345Y014290D02*
X011220Y014290D01*
X011345Y014448D02*
X011062Y014448D01*
X011345Y014607D02*
X009110Y014607D01*
X009110Y014765D02*
X011345Y014765D01*
X011345Y014924D02*
X009110Y014924D01*
X009110Y015082D02*
X011345Y015082D01*
X011345Y015241D02*
X009875Y015241D01*
X009978Y015343D02*
X009978Y015657D01*
X009860Y015775D01*
X009860Y017392D01*
X010215Y017747D01*
X010382Y017747D01*
X010603Y017968D01*
X010603Y018282D01*
X010485Y018400D01*
X010485Y024850D01*
X010603Y024968D01*
X010603Y025282D01*
X010382Y025503D01*
X010068Y025503D01*
X009950Y025385D01*
X009848Y025385D01*
X009992Y025529D01*
X010085Y025754D01*
X010085Y025996D01*
X009992Y026221D01*
X009821Y026392D01*
X009596Y026485D01*
X009354Y026485D01*
X009129Y026392D01*
X008975Y026238D01*
X008821Y026392D01*
X008596Y026485D01*
X008354Y026485D01*
X008129Y026392D01*
X007970Y026232D01*
X007940Y026272D01*
X007872Y026340D01*
X007795Y026397D01*
X007709Y026440D01*
X007618Y026470D01*
X007523Y026485D01*
X007475Y026485D01*
X007475Y025875D01*
X007475Y025875D01*
X007475Y026485D01*
X007427Y026485D01*
X007332Y026470D01*
X007241Y026440D01*
X007155Y026397D01*
X007078Y026340D01*
X007010Y026272D01*
X006980Y026232D01*
X006821Y026392D01*
X006596Y026485D01*
X006354Y026485D01*
X006129Y026392D01*
X005958Y026221D01*
X005865Y025996D01*
X005865Y025754D01*
X005958Y025529D01*
X006102Y025385D01*
X004208Y025385D01*
X003978Y025615D01*
X003978Y025782D01*
X003757Y026003D01*
X003443Y026003D01*
X003222Y025782D01*
X003222Y025468D01*
X003443Y025247D01*
X003610Y025247D01*
X003880Y024978D01*
X003880Y024978D01*
X003953Y024905D01*
X004048Y024865D01*
X009950Y024865D01*
X009965Y024850D01*
X009965Y018400D01*
X009847Y018282D01*
X009847Y018115D01*
X009380Y017647D01*
X009340Y017552D01*
X009340Y015775D01*
X009222Y015657D01*
X009222Y015343D01*
X009443Y015122D01*
X009757Y015122D01*
X009978Y015343D01*
X009978Y015399D02*
X011345Y015399D01*
X011345Y015558D02*
X009978Y015558D01*
X009919Y015716D02*
X011345Y015716D01*
X011345Y015875D02*
X011217Y015875D01*
X010674Y015875D02*
X009860Y015875D01*
X009860Y016033D02*
X010541Y016033D01*
X010488Y016192D02*
X009860Y016192D01*
X009860Y016350D02*
X010492Y016350D01*
X010558Y016509D02*
X009860Y016509D01*
X009860Y016667D02*
X010758Y016667D01*
X011133Y016667D02*
X011345Y016667D01*
X011333Y016509D02*
X011345Y016509D01*
X011345Y016826D02*
X009860Y016826D01*
X009860Y016984D02*
X011345Y016984D01*
X011345Y017143D02*
X009860Y017143D01*
X009860Y017301D02*
X011345Y017301D01*
X011228Y017460D02*
X009927Y017460D01*
X010086Y017618D02*
X011070Y017618D01*
X010911Y017777D02*
X010411Y017777D01*
X010570Y017935D02*
X010767Y017935D01*
X010720Y018094D02*
X010603Y018094D01*
X010603Y018252D02*
X010720Y018252D01*
X010720Y018411D02*
X010485Y018411D01*
X010485Y018569D02*
X010720Y018569D01*
X010720Y018728D02*
X010485Y018728D01*
X010485Y018886D02*
X010720Y018886D01*
X010720Y019045D02*
X010485Y019045D01*
X010485Y019203D02*
X010720Y019203D01*
X010720Y019362D02*
X010485Y019362D01*
X010485Y019520D02*
X010720Y019520D01*
X010720Y019679D02*
X010485Y019679D01*
X010485Y019837D02*
X010720Y019837D01*
X010720Y019996D02*
X010485Y019996D01*
X010485Y020154D02*
X010720Y020154D01*
X010720Y020313D02*
X010485Y020313D01*
X010485Y020471D02*
X010720Y020471D01*
X010720Y020630D02*
X010485Y020630D01*
X010485Y020788D02*
X010720Y020788D01*
X010720Y020947D02*
X010485Y020947D01*
X010485Y021105D02*
X010720Y021105D01*
X010720Y021264D02*
X010485Y021264D01*
X010485Y021422D02*
X010720Y021422D01*
X010720Y021581D02*
X010485Y021581D01*
X010485Y021739D02*
X010720Y021739D01*
X010720Y021898D02*
X010485Y021898D01*
X010485Y022056D02*
X010720Y022056D01*
X010720Y022215D02*
X010485Y022215D01*
X010485Y022373D02*
X010720Y022373D01*
X010720Y022532D02*
X010485Y022532D01*
X010485Y022690D02*
X010720Y022690D01*
X010720Y022849D02*
X010485Y022849D01*
X010485Y023007D02*
X010720Y023007D01*
X010720Y023166D02*
X010485Y023166D01*
X010485Y023324D02*
X010720Y023324D01*
X010720Y023483D02*
X010485Y023483D01*
X010485Y023641D02*
X010720Y023641D01*
X010720Y023800D02*
X010485Y023800D01*
X010485Y023958D02*
X010720Y023958D01*
X010720Y024117D02*
X010485Y024117D01*
X010485Y024275D02*
X010720Y024275D01*
X010720Y024434D02*
X010485Y024434D01*
X010485Y024592D02*
X010720Y024592D01*
X010720Y024751D02*
X010485Y024751D01*
X010544Y024909D02*
X010720Y024909D01*
X010720Y025068D02*
X010603Y025068D01*
X010603Y025226D02*
X010720Y025226D01*
X010720Y025385D02*
X010500Y025385D01*
X010720Y025543D02*
X009998Y025543D01*
X010063Y025702D02*
X010720Y025702D01*
X010720Y025860D02*
X010085Y025860D01*
X010076Y026019D02*
X010720Y026019D01*
X010720Y026177D02*
X010010Y026177D01*
X009877Y026336D02*
X010720Y026336D01*
X010720Y026494D02*
X000580Y026494D01*
X000580Y026336D02*
X006073Y026336D01*
X005940Y026177D02*
X000580Y026177D01*
X000580Y026019D02*
X005874Y026019D01*
X005865Y025860D02*
X003900Y025860D01*
X003978Y025702D02*
X005887Y025702D01*
X005952Y025543D02*
X004050Y025543D01*
X004100Y025125D02*
X010225Y025125D01*
X010225Y018125D01*
X009600Y017500D01*
X009600Y015500D01*
X009325Y015241D02*
X009084Y015241D01*
X009222Y015399D02*
X008944Y015399D01*
X008785Y015558D02*
X009222Y015558D01*
X009281Y015716D02*
X007627Y015716D01*
X007468Y015875D02*
X009340Y015875D01*
X009340Y016033D02*
X007310Y016033D01*
X007151Y016192D02*
X009340Y016192D01*
X009340Y016350D02*
X006993Y016350D01*
X006834Y016509D02*
X009340Y016509D01*
X009340Y016667D02*
X006676Y016667D01*
X006517Y016826D02*
X009340Y016826D01*
X009340Y016984D02*
X006359Y016984D01*
X006200Y017143D02*
X009340Y017143D01*
X009340Y017301D02*
X006042Y017301D01*
X005883Y017460D02*
X009340Y017460D01*
X009367Y017618D02*
X005725Y017618D01*
X005566Y017777D02*
X009509Y017777D01*
X009667Y017935D02*
X005408Y017935D01*
X005249Y018094D02*
X009826Y018094D01*
X009847Y018252D02*
X005091Y018252D01*
X004932Y018411D02*
X009965Y018411D01*
X009965Y018569D02*
X004774Y018569D01*
X004615Y018728D02*
X009965Y018728D01*
X009965Y018886D02*
X004457Y018886D01*
X004298Y019045D02*
X009965Y019045D01*
X009965Y019203D02*
X004140Y019203D01*
X003981Y019362D02*
X009965Y019362D01*
X009965Y019520D02*
X003823Y019520D01*
X003664Y019679D02*
X009965Y019679D01*
X009965Y019837D02*
X003506Y019837D01*
X003347Y019996D02*
X009965Y019996D01*
X009965Y020154D02*
X003189Y020154D01*
X003030Y020313D02*
X009965Y020313D01*
X009965Y020471D02*
X002872Y020471D01*
X002713Y020630D02*
X009965Y020630D01*
X009965Y020788D02*
X002555Y020788D01*
X002485Y020947D02*
X009965Y020947D01*
X009965Y021105D02*
X002485Y021105D01*
X002485Y021264D02*
X009965Y021264D01*
X009965Y021422D02*
X002485Y021422D01*
X002387Y021581D02*
X009965Y021581D01*
X009965Y021739D02*
X002229Y021739D01*
X002150Y021898D02*
X009965Y021898D01*
X009965Y022056D02*
X002150Y022056D01*
X002106Y022215D02*
X009965Y022215D01*
X009965Y022373D02*
X002005Y022373D01*
X001754Y022532D02*
X009965Y022532D01*
X009965Y022690D02*
X000580Y022690D01*
X000580Y022532D02*
X001446Y022532D01*
X001195Y022373D02*
X000580Y022373D01*
X000580Y022215D02*
X001094Y022215D01*
X001050Y022056D02*
X000580Y022056D01*
X000580Y021898D02*
X001050Y021898D01*
X001113Y021739D02*
X000580Y021739D01*
X000580Y021581D02*
X001242Y021581D01*
X001244Y021422D02*
X000580Y021422D01*
X000580Y021264D02*
X001114Y021264D01*
X001050Y021105D02*
X000580Y021105D01*
X000580Y020947D02*
X001050Y020947D01*
X001092Y020788D02*
X000580Y020788D01*
X000580Y020630D02*
X001193Y020630D01*
X001300Y020471D02*
X000580Y020471D01*
X000580Y020313D02*
X001135Y020313D01*
X001068Y020154D02*
X000580Y020154D01*
X000580Y019996D02*
X001050Y019996D01*
X001072Y019837D02*
X000580Y019837D01*
X000580Y019679D02*
X001144Y019679D01*
X001322Y019520D02*
X000580Y019520D01*
X000580Y019362D02*
X001184Y019362D01*
X001089Y019203D02*
X000580Y019203D01*
X000580Y019045D02*
X001050Y019045D01*
X001052Y018886D02*
X000580Y018886D01*
X000580Y018728D02*
X001118Y018728D01*
X001253Y018569D02*
X000580Y018569D01*
X000580Y018411D02*
X001233Y018411D01*
X001109Y018252D02*
X000580Y018252D01*
X000580Y018094D02*
X001050Y018094D01*
X001050Y017935D02*
X000580Y017935D01*
X000580Y017777D02*
X001097Y017777D01*
X001204Y017618D02*
X000580Y017618D01*
X000580Y017460D02*
X001282Y017460D01*
X001129Y017301D02*
X000580Y017301D01*
X000580Y017143D02*
X001064Y017143D01*
X001050Y016984D02*
X000580Y016984D01*
X000580Y016826D02*
X001077Y016826D01*
X001155Y016667D02*
X000580Y016667D01*
X000580Y016509D02*
X001349Y016509D01*
X001172Y016350D02*
X000580Y016350D01*
X000580Y016192D02*
X001084Y016192D01*
X001050Y016033D02*
X000580Y016033D01*
X000580Y015875D02*
X001057Y015875D01*
X001122Y015716D02*
X000580Y015716D01*
X000580Y015558D02*
X001265Y015558D01*
X001221Y015399D02*
X000580Y015399D01*
X000580Y015241D02*
X001104Y015241D01*
X001050Y015082D02*
X000580Y015082D01*
X000580Y014924D02*
X001050Y014924D01*
X001102Y014765D02*
X000580Y014765D01*
X000580Y014607D02*
X001216Y014607D01*
X001304Y013973D02*
X000580Y013973D01*
X000580Y014131D02*
X007059Y014131D01*
X006901Y014290D02*
X000580Y014290D01*
X000580Y014448D02*
X006847Y014448D01*
X006847Y014607D02*
X001984Y014607D01*
X002098Y014765D02*
X006955Y014765D01*
X006934Y014924D02*
X002150Y014924D01*
X002150Y015082D02*
X006775Y015082D01*
X006617Y015241D02*
X002096Y015241D01*
X001979Y015399D02*
X006458Y015399D01*
X006300Y015558D02*
X001935Y015558D01*
X002078Y015716D02*
X006141Y015716D01*
X005983Y015875D02*
X002143Y015875D01*
X002150Y016033D02*
X005824Y016033D01*
X005666Y016192D02*
X002116Y016192D01*
X002028Y016350D02*
X005507Y016350D01*
X005349Y016509D02*
X001851Y016509D01*
X002045Y016667D02*
X005190Y016667D01*
X005032Y016826D02*
X002123Y016826D01*
X002150Y016984D02*
X004873Y016984D01*
X004715Y017143D02*
X002136Y017143D01*
X002071Y017301D02*
X004556Y017301D01*
X004398Y017460D02*
X001918Y017460D01*
X001996Y017618D02*
X004239Y017618D01*
X004225Y018000D02*
X001600Y018000D01*
X001830Y018500D02*
X001912Y018534D01*
X002066Y018688D01*
X002150Y018891D01*
X002150Y019109D01*
X002066Y019312D01*
X001912Y019466D01*
X001830Y019500D01*
X001912Y019534D01*
X002066Y019688D01*
X002150Y019891D01*
X002150Y020082D01*
X003972Y018260D01*
X002088Y018260D01*
X002066Y018312D01*
X001912Y018466D01*
X001830Y018500D01*
X001947Y018569D02*
X003663Y018569D01*
X003505Y018728D02*
X002082Y018728D01*
X002148Y018886D02*
X003346Y018886D01*
X003188Y019045D02*
X002150Y019045D01*
X002111Y019203D02*
X003029Y019203D01*
X002871Y019362D02*
X002016Y019362D01*
X001878Y019520D02*
X002712Y019520D01*
X002554Y019679D02*
X002056Y019679D01*
X002128Y019837D02*
X002395Y019837D01*
X002237Y019996D02*
X002150Y019996D01*
X002225Y020750D02*
X002225Y021375D01*
X001600Y022000D01*
X000580Y022849D02*
X009965Y022849D01*
X009965Y023007D02*
X000580Y023007D01*
X000580Y023166D02*
X009965Y023166D01*
X009965Y023324D02*
X000580Y023324D01*
X000580Y023483D02*
X009965Y023483D01*
X009965Y023641D02*
X000580Y023641D01*
X000580Y023800D02*
X009965Y023800D01*
X009965Y023958D02*
X000580Y023958D01*
X000580Y024117D02*
X009965Y024117D01*
X009965Y024275D02*
X000580Y024275D01*
X000580Y024434D02*
X009965Y024434D01*
X009965Y024592D02*
X000580Y024592D01*
X000580Y024751D02*
X009965Y024751D01*
X011480Y024751D02*
X011995Y024751D01*
X011965Y024909D02*
X011480Y024909D01*
X011480Y025068D02*
X011873Y025068D01*
X011847Y025226D02*
X011480Y025226D01*
X011480Y025385D02*
X011847Y025385D01*
X011983Y025543D02*
X011480Y025543D01*
X011480Y025702D02*
X012715Y025702D01*
X012715Y025860D02*
X011480Y025860D01*
X011480Y026019D02*
X012715Y026019D01*
X012715Y026177D02*
X011480Y026177D01*
X011480Y026336D02*
X012715Y026336D01*
X012715Y026494D02*
X011480Y026494D01*
X011480Y026653D02*
X012715Y026653D01*
X012715Y026811D02*
X011480Y026811D01*
X011480Y026970D02*
X012715Y026970D01*
X012715Y027128D02*
X011480Y027128D01*
X011480Y027287D02*
X012715Y027287D01*
X012715Y027445D02*
X011480Y027445D01*
X011480Y027604D02*
X012715Y027604D01*
X012715Y027762D02*
X011480Y027762D01*
X011464Y027921D02*
X012687Y027921D01*
X012528Y028079D02*
X011306Y028079D01*
X010894Y028079D02*
X005797Y028079D01*
X005955Y028238D02*
X012370Y028238D01*
X012475Y028500D02*
X005850Y028500D01*
X005475Y028125D01*
X003850Y028125D01*
X003586Y028396D02*
X000580Y028396D01*
X000580Y028238D02*
X003472Y028238D01*
X003472Y028079D02*
X000580Y028079D01*
X000580Y027921D02*
X003520Y027921D01*
X003678Y027762D02*
X000580Y027762D01*
X000580Y027604D02*
X010720Y027604D01*
X010720Y027762D02*
X004022Y027762D01*
X004114Y028396D02*
X004169Y028396D01*
X004097Y028555D02*
X000580Y028555D01*
X000580Y028713D02*
X004097Y028713D01*
X004187Y028872D02*
X000580Y028872D01*
X000580Y029030D02*
X005160Y029030D01*
X005097Y029189D02*
X000580Y029189D01*
X000580Y029347D02*
X005097Y029347D01*
X005196Y029506D02*
X000659Y029506D01*
X000580Y027445D02*
X010720Y027445D01*
X010720Y027287D02*
X000580Y027287D01*
X000580Y027128D02*
X010720Y027128D01*
X010720Y026970D02*
X000580Y026970D01*
X000580Y026811D02*
X010720Y026811D01*
X010720Y026653D02*
X000580Y026653D01*
X000580Y025860D02*
X003300Y025860D01*
X003222Y025702D02*
X000580Y025702D01*
X000580Y025543D02*
X003222Y025543D01*
X003306Y025385D02*
X000580Y025385D01*
X000580Y025226D02*
X003631Y025226D01*
X003790Y025068D02*
X000580Y025068D01*
X000580Y024909D02*
X003948Y024909D01*
X004100Y025125D02*
X003600Y025625D01*
X005638Y027921D02*
X010736Y027921D01*
X009073Y026336D02*
X008877Y026336D01*
X008073Y026336D02*
X007877Y026336D01*
X007475Y026336D02*
X007475Y026336D01*
X007475Y026177D02*
X007475Y026177D01*
X007475Y026019D02*
X007475Y026019D01*
X007073Y026336D02*
X006877Y026336D01*
X005600Y028625D02*
X004475Y028625D01*
X005600Y028625D02*
X005850Y028875D01*
X012475Y028875D01*
X013350Y028000D01*
X013350Y024625D01*
X013975Y024000D01*
X020100Y024000D01*
X020600Y023500D01*
X020590Y023878D02*
X020353Y024115D01*
X021867Y024115D01*
X022715Y023267D01*
X022715Y022275D01*
X022597Y022157D01*
X022597Y021843D01*
X022715Y021725D01*
X022715Y019400D01*
X022597Y019282D01*
X022597Y018968D01*
X022818Y018747D01*
X023132Y018747D01*
X023345Y018960D01*
X023345Y015380D01*
X020998Y015380D01*
X020912Y015466D01*
X020709Y015550D01*
X020491Y015550D01*
X020288Y015466D01*
X020134Y015312D01*
X020050Y015109D01*
X020050Y014891D01*
X020134Y014688D01*
X020288Y014534D01*
X020370Y014500D01*
X020312Y014470D01*
X020242Y014420D01*
X020180Y014358D01*
X020130Y014288D01*
X020090Y014211D01*
X020064Y014129D01*
X020050Y014043D01*
X020050Y014020D01*
X020580Y014020D01*
X020580Y013980D01*
X020050Y013980D01*
X020050Y013957D01*
X020064Y013871D01*
X020090Y013789D01*
X020130Y013712D01*
X020180Y013642D01*
X020242Y013580D01*
X020312Y013530D01*
X020370Y013500D01*
X020312Y013470D01*
X020242Y013420D01*
X020180Y013358D01*
X020130Y013288D01*
X020090Y013211D01*
X020064Y013129D01*
X020050Y013043D01*
X020050Y013020D01*
X020580Y013020D01*
X020580Y013980D01*
X020620Y013980D01*
X020620Y014020D01*
X021150Y014020D01*
X021150Y014043D01*
X021136Y014129D01*
X021110Y014211D01*
X021070Y014288D01*
X021020Y014358D01*
X020958Y014420D01*
X020888Y014470D01*
X020830Y014500D01*
X020912Y014534D01*
X020998Y014620D01*
X023345Y014620D01*
X023345Y011165D01*
X023132Y011378D01*
X022818Y011378D01*
X022700Y011260D01*
X022250Y011260D01*
X022132Y011378D01*
X021818Y011378D01*
X021735Y011295D01*
X021735Y011677D01*
X021695Y011772D01*
X021622Y011845D01*
X021247Y012220D01*
X021152Y012260D01*
X021088Y012260D01*
X021066Y012312D01*
X020912Y012466D01*
X020830Y012500D01*
X020888Y012530D01*
X020958Y012580D01*
X021020Y012642D01*
X021070Y012712D01*
X021110Y012789D01*
X021136Y012871D01*
X021150Y012957D01*
X021150Y012980D01*
X020620Y012980D01*
X020620Y013020D01*
X021150Y013020D01*
X021150Y013043D01*
X021136Y013129D01*
X021110Y013211D01*
X021070Y013288D01*
X021020Y013358D01*
X020958Y013420D01*
X020888Y013470D01*
X020830Y013500D01*
X020888Y013530D01*
X020958Y013580D01*
X021020Y013642D01*
X021070Y013712D01*
X021110Y013789D01*
X021136Y013871D01*
X021150Y013957D01*
X021150Y013980D01*
X020620Y013980D01*
X020620Y013450D01*
X020620Y013020D01*
X020580Y013020D01*
X020580Y012980D01*
X020050Y012980D01*
X020050Y012957D01*
X020064Y012871D01*
X020090Y012789D01*
X020130Y012712D01*
X020180Y012642D01*
X020242Y012580D01*
X020312Y012530D01*
X020370Y012500D01*
X020288Y012466D01*
X020134Y012312D01*
X020050Y012109D01*
X020050Y011891D01*
X020134Y011688D01*
X020288Y011534D01*
X020370Y011500D01*
X020288Y011466D01*
X020134Y011312D01*
X020050Y011109D01*
X020050Y010891D01*
X020134Y010688D01*
X020288Y010534D01*
X020370Y010500D01*
X020288Y010466D01*
X020134Y010312D01*
X020050Y010109D01*
X020050Y009891D01*
X020134Y009688D01*
X020288Y009534D01*
X020370Y009500D01*
X020288Y009466D01*
X020134Y009312D01*
X020050Y009109D01*
X020050Y008891D01*
X020134Y008688D01*
X020288Y008534D01*
X020370Y008500D01*
X020288Y008466D01*
X020134Y008312D01*
X020050Y008109D01*
X020050Y007891D01*
X020134Y007688D01*
X020288Y007534D01*
X020491Y007450D01*
X020709Y007450D01*
X020912Y007534D01*
X021066Y007688D01*
X021150Y007891D01*
X021150Y008109D01*
X021066Y008312D01*
X020912Y008466D01*
X020830Y008500D01*
X020912Y008534D01*
X021066Y008688D01*
X021150Y008891D01*
X021150Y009109D01*
X021066Y009312D01*
X020912Y009466D01*
X020830Y009500D01*
X020912Y009534D01*
X021066Y009688D01*
X021150Y009891D01*
X021150Y010109D01*
X021066Y010312D01*
X020912Y010466D01*
X020830Y010500D01*
X020912Y010534D01*
X021066Y010688D01*
X021150Y010891D01*
X021150Y011109D01*
X021066Y011312D01*
X020912Y011466D01*
X020830Y011500D01*
X020912Y011534D01*
X021055Y011677D01*
X021215Y011517D01*
X021215Y006130D01*
X020524Y006130D01*
X020385Y006072D01*
X019193Y004880D01*
X012483Y004880D01*
X012105Y005183D01*
X012105Y007490D01*
X015450Y007490D01*
X015568Y007372D01*
X015882Y007372D01*
X016103Y007593D01*
X016103Y007907D01*
X015882Y008128D01*
X015568Y008128D01*
X015450Y008010D01*
X012105Y008010D01*
X012105Y012960D01*
X012193Y012872D01*
X012507Y012872D01*
X012625Y012990D01*
X014847Y012990D01*
X014847Y012718D01*
X015068Y012497D01*
X015235Y012497D01*
X015953Y011780D01*
X016048Y011740D01*
X017575Y011740D01*
X017693Y011622D01*
X018007Y011622D01*
X018228Y011843D01*
X018228Y012157D01*
X018007Y012378D01*
X017693Y012378D01*
X017575Y012260D01*
X016208Y012260D01*
X015603Y012865D01*
X015603Y013032D01*
X015382Y013253D01*
X015346Y013253D01*
X020050Y017957D01*
X020050Y017891D01*
X020134Y017688D01*
X020288Y017534D01*
X020370Y017500D01*
X020288Y017466D01*
X020134Y017312D01*
X020112Y017260D01*
X019548Y017260D01*
X019453Y017220D01*
X019380Y017147D01*
X016820Y014588D01*
X016693Y014588D01*
X016472Y014366D01*
X016472Y014053D01*
X016693Y013832D01*
X017007Y013832D01*
X017078Y013903D01*
X017082Y013905D01*
X017155Y013978D01*
X017157Y013982D01*
X017228Y014053D01*
X017228Y014260D01*
X019708Y016740D01*
X020112Y016740D01*
X020134Y016688D01*
X020187Y016635D01*
X020173Y016635D01*
X020078Y016595D01*
X019453Y015970D01*
X019380Y015897D01*
X019340Y015802D01*
X019340Y006128D01*
X019193Y006128D01*
X018972Y005907D01*
X018972Y005593D01*
X019193Y005372D01*
X019507Y005372D01*
X019728Y005593D01*
X019728Y005760D01*
X019820Y005853D01*
X019860Y005948D01*
X019860Y015642D01*
X020333Y016115D01*
X021027Y016115D01*
X021122Y016155D01*
X021195Y016228D01*
X021445Y016478D01*
X021485Y016573D01*
X021485Y017552D01*
X021445Y017647D01*
X021372Y017720D01*
X021150Y017943D01*
X021150Y018109D01*
X021066Y018312D01*
X020912Y018466D01*
X020830Y018500D01*
X020912Y018534D01*
X021066Y018688D01*
X021150Y018891D01*
X021150Y019109D01*
X021066Y019312D01*
X020912Y019466D01*
X020830Y019500D01*
X020912Y019534D01*
X021066Y019688D01*
X021150Y019891D01*
X021150Y020109D01*
X021066Y020312D01*
X020912Y020466D01*
X020830Y020500D01*
X020912Y020534D01*
X021066Y020688D01*
X021150Y020891D01*
X021150Y021109D01*
X021066Y021312D01*
X020912Y021466D01*
X020830Y021500D01*
X020912Y021534D01*
X021066Y021688D01*
X021150Y021891D01*
X021150Y022109D01*
X021066Y022312D01*
X021013Y022365D01*
X022027Y022365D01*
X022043Y022372D01*
X022257Y022372D01*
X022478Y022593D01*
X022478Y022907D01*
X022257Y023128D01*
X021943Y023128D01*
X021722Y022907D01*
X021722Y022885D01*
X021395Y022885D01*
X021603Y023093D01*
X021603Y023407D01*
X021382Y023628D01*
X021068Y023628D01*
X020978Y023538D01*
X020978Y023657D01*
X020757Y023878D01*
X020590Y023878D01*
X020510Y023958D02*
X022024Y023958D01*
X022183Y023800D02*
X020835Y023800D01*
X020978Y023641D02*
X022341Y023641D01*
X022500Y023483D02*
X021527Y023483D01*
X021603Y023324D02*
X022658Y023324D01*
X022715Y023166D02*
X021603Y023166D01*
X021517Y023007D02*
X021822Y023007D01*
X022100Y022750D02*
X021975Y022625D01*
X020225Y022625D01*
X018850Y021250D01*
X018850Y018625D01*
X017475Y017250D01*
X016600Y017250D01*
X016475Y017375D01*
X016183Y017618D02*
X014985Y017618D01*
X014985Y017740D02*
X016200Y017740D01*
X016253Y017688D01*
X016097Y017532D01*
X016097Y017218D01*
X016253Y017062D01*
X016200Y017010D01*
X015500Y017010D01*
X015382Y017128D01*
X015068Y017128D01*
X014985Y017045D01*
X014985Y017740D01*
X014985Y017460D02*
X016097Y017460D01*
X016097Y017301D02*
X014985Y017301D01*
X014985Y017143D02*
X016173Y017143D01*
X016475Y016750D02*
X015225Y016750D01*
X014465Y016826D02*
X012105Y016826D01*
X012105Y016984D02*
X014465Y016984D01*
X014465Y017143D02*
X012105Y017143D01*
X012105Y017301D02*
X014465Y017301D01*
X014465Y017460D02*
X012105Y017460D01*
X012087Y017618D02*
X014465Y017618D01*
X014465Y017777D02*
X011986Y017777D01*
X011827Y017935D02*
X014465Y017935D01*
X014465Y018094D02*
X011669Y018094D01*
X011510Y018252D02*
X014465Y018252D01*
X014465Y018411D02*
X011480Y018411D01*
X011480Y018569D02*
X014465Y018569D01*
X014465Y018728D02*
X011480Y018728D01*
X011480Y018886D02*
X014465Y018886D01*
X014465Y019045D02*
X011480Y019045D01*
X011480Y019203D02*
X014465Y019203D01*
X014465Y019362D02*
X011480Y019362D01*
X011480Y019520D02*
X014465Y019520D01*
X014465Y019679D02*
X011480Y019679D01*
X011480Y019837D02*
X014465Y019837D01*
X014465Y019996D02*
X011480Y019996D01*
X011480Y020154D02*
X014465Y020154D01*
X014465Y020313D02*
X011480Y020313D01*
X011480Y020471D02*
X014465Y020471D01*
X014465Y020630D02*
X011480Y020630D01*
X011480Y020788D02*
X014465Y020788D01*
X014465Y020947D02*
X011480Y020947D01*
X011480Y021105D02*
X014465Y021105D01*
X014465Y021264D02*
X011480Y021264D01*
X011480Y021422D02*
X014465Y021422D01*
X014465Y021581D02*
X011480Y021581D01*
X011480Y021739D02*
X014465Y021739D01*
X014465Y021898D02*
X011480Y021898D01*
X011480Y022056D02*
X014465Y022056D01*
X014465Y022215D02*
X011480Y022215D01*
X011480Y022373D02*
X014359Y022373D01*
X014201Y022532D02*
X011480Y022532D01*
X011480Y022690D02*
X014042Y022690D01*
X013884Y022849D02*
X011480Y022849D01*
X011480Y023007D02*
X013725Y023007D01*
X013567Y023166D02*
X011480Y023166D01*
X011480Y023324D02*
X013408Y023324D01*
X013250Y023483D02*
X011480Y023483D01*
X011480Y023641D02*
X013091Y023641D01*
X012933Y023800D02*
X011480Y023800D01*
X011480Y023958D02*
X012774Y023958D01*
X012616Y024117D02*
X011480Y024117D01*
X011480Y024275D02*
X012457Y024275D01*
X012299Y024434D02*
X011480Y024434D01*
X011480Y024592D02*
X012140Y024592D01*
X012225Y024875D02*
X012225Y025250D01*
X012350Y025125D01*
X012608Y025068D02*
X012715Y025068D01*
X012715Y025226D02*
X012603Y025226D01*
X012603Y025385D02*
X012715Y025385D01*
X012715Y025543D02*
X012467Y025543D01*
X012559Y024909D02*
X012715Y024909D01*
X012975Y024625D02*
X013975Y023625D01*
X019850Y023625D01*
X019975Y023500D01*
X019979Y023122D02*
X019818Y023122D01*
X019597Y023343D01*
X019597Y023365D01*
X014103Y023365D01*
X014945Y022522D01*
X014985Y022427D01*
X014985Y018260D01*
X016200Y018260D01*
X016318Y018378D01*
X016632Y018378D01*
X016750Y018260D01*
X017742Y018260D01*
X018215Y018733D01*
X018215Y021302D01*
X018255Y021397D01*
X019979Y023122D01*
X019864Y023007D02*
X014461Y023007D01*
X014619Y022849D02*
X019706Y022849D01*
X019547Y022690D02*
X014778Y022690D01*
X014936Y022532D02*
X019389Y022532D01*
X019230Y022373D02*
X014985Y022373D01*
X014985Y022215D02*
X019072Y022215D01*
X018913Y022056D02*
X014985Y022056D01*
X014985Y021898D02*
X018755Y021898D01*
X018596Y021739D02*
X014985Y021739D01*
X014985Y021581D02*
X018438Y021581D01*
X018279Y021422D02*
X014985Y021422D01*
X014985Y021264D02*
X018215Y021264D01*
X018215Y021105D02*
X014985Y021105D01*
X014985Y020947D02*
X018215Y020947D01*
X018215Y020788D02*
X014985Y020788D01*
X014985Y020630D02*
X018215Y020630D01*
X018215Y020471D02*
X014985Y020471D01*
X014985Y020313D02*
X018215Y020313D01*
X018215Y020154D02*
X014985Y020154D01*
X014985Y019996D02*
X018215Y019996D01*
X018215Y019837D02*
X014985Y019837D01*
X014985Y019679D02*
X018215Y019679D01*
X018215Y019520D02*
X014985Y019520D01*
X014985Y019362D02*
X018215Y019362D01*
X018215Y019203D02*
X014985Y019203D01*
X014985Y019045D02*
X018215Y019045D01*
X018215Y018886D02*
X014985Y018886D01*
X014985Y018728D02*
X018210Y018728D01*
X018051Y018569D02*
X014985Y018569D01*
X014985Y018411D02*
X017893Y018411D01*
X017850Y018000D02*
X018475Y018625D01*
X018475Y021250D01*
X020225Y023000D01*
X020975Y023000D01*
X021225Y023250D01*
X021106Y022215D02*
X022655Y022215D01*
X022715Y022373D02*
X022258Y022373D01*
X022416Y022532D02*
X022715Y022532D01*
X022715Y022690D02*
X022478Y022690D01*
X022478Y022849D02*
X022715Y022849D01*
X022715Y023007D02*
X022378Y023007D01*
X022975Y023375D02*
X021975Y024375D01*
X013975Y024375D01*
X013725Y024625D01*
X013725Y028000D01*
X012475Y029250D01*
X005475Y029250D01*
X012225Y024875D02*
X014725Y022375D01*
X014725Y018000D01*
X016475Y018000D01*
X017850Y018000D01*
X017725Y017125D02*
X015225Y014750D01*
X012975Y014750D01*
X012597Y014765D02*
X012105Y014765D01*
X012105Y014607D02*
X012172Y014607D01*
X012105Y014924D02*
X012614Y014924D01*
X012772Y015082D02*
X012105Y015082D01*
X012105Y015241D02*
X014347Y015241D01*
X014347Y015399D02*
X012105Y015399D01*
X012105Y015558D02*
X014465Y015558D01*
X014465Y015716D02*
X012105Y015716D01*
X012105Y015875D02*
X013233Y015875D01*
X013246Y015862D02*
X013414Y015793D01*
X013595Y015793D01*
X013763Y015862D01*
X013892Y015991D01*
X013962Y016159D01*
X013962Y016341D01*
X013892Y016509D01*
X013763Y016638D01*
X013595Y016707D01*
X013414Y016707D01*
X013246Y016638D01*
X013117Y016509D01*
X013047Y016341D01*
X013047Y016159D01*
X013117Y015991D01*
X013246Y015862D01*
X013100Y016033D02*
X012105Y016033D01*
X012105Y016192D02*
X013047Y016192D01*
X013051Y016350D02*
X012105Y016350D01*
X012105Y016509D02*
X013117Y016509D01*
X013317Y016667D02*
X012105Y016667D01*
X013692Y016667D02*
X014465Y016667D01*
X014465Y016509D02*
X013892Y016509D01*
X013958Y016350D02*
X014465Y016350D01*
X014465Y016192D02*
X013962Y016192D01*
X013909Y016033D02*
X014465Y016033D01*
X014465Y015875D02*
X013776Y015875D01*
X014358Y015082D02*
X013178Y015082D01*
X012597Y014607D02*
X012528Y014607D01*
X012350Y014250D02*
X015100Y014250D01*
X017975Y017000D01*
X019600Y018625D01*
X019600Y020000D01*
X020600Y021000D01*
X021108Y020788D02*
X022715Y020788D01*
X022715Y020630D02*
X021007Y020630D01*
X020900Y020471D02*
X022715Y020471D01*
X022715Y020313D02*
X021065Y020313D01*
X021132Y020154D02*
X022715Y020154D01*
X022715Y019996D02*
X021150Y019996D01*
X021128Y019837D02*
X022715Y019837D01*
X022715Y019679D02*
X021056Y019679D01*
X020878Y019520D02*
X022715Y019520D01*
X022677Y019362D02*
X021016Y019362D01*
X021111Y019203D02*
X022597Y019203D01*
X022597Y019045D02*
X021150Y019045D01*
X021148Y018886D02*
X022679Y018886D01*
X022975Y019125D02*
X022975Y022000D01*
X022975Y023375D01*
X023212Y023483D02*
X028370Y023483D01*
X028370Y023641D02*
X023077Y023641D01*
X022918Y023800D02*
X028370Y023800D01*
X028370Y023958D02*
X022760Y023958D01*
X022601Y024117D02*
X028370Y024117D01*
X028370Y024275D02*
X022443Y024275D01*
X022284Y024434D02*
X028370Y024434D01*
X028370Y024592D02*
X022126Y024592D01*
X021282Y025237D02*
X021488Y025443D01*
X021634Y025697D01*
X021710Y025979D01*
X021710Y026271D01*
X021634Y026553D01*
X021488Y026807D01*
X021282Y027013D01*
X021028Y027159D01*
X020746Y027235D01*
X020454Y027235D01*
X020172Y027159D01*
X019918Y027013D01*
X019712Y026807D01*
X019566Y026553D01*
X019490Y026271D01*
X019490Y025979D01*
X019566Y025697D01*
X019712Y025443D01*
X019918Y025237D01*
X020172Y025091D01*
X020454Y025015D01*
X020746Y025015D01*
X021028Y025091D01*
X021282Y025237D01*
X021263Y025226D02*
X028370Y025226D01*
X028370Y025068D02*
X020942Y025068D01*
X021429Y025385D02*
X028370Y025385D01*
X028370Y025543D02*
X027997Y025543D01*
X028132Y025678D01*
X028205Y025855D01*
X028205Y026645D01*
X028132Y026822D01*
X027997Y026957D01*
X027820Y027030D01*
X027630Y027030D01*
X027453Y026957D01*
X027318Y026822D01*
X027245Y026645D01*
X027245Y025855D01*
X027318Y025678D01*
X027453Y025543D01*
X027630Y025470D01*
X027820Y025470D01*
X027997Y025543D01*
X028142Y025702D02*
X028370Y025702D01*
X028370Y025860D02*
X028205Y025860D01*
X028205Y026019D02*
X028370Y026019D01*
X028370Y026177D02*
X028205Y026177D01*
X028205Y026336D02*
X028370Y026336D01*
X028370Y026494D02*
X028205Y026494D01*
X028202Y026653D02*
X028370Y026653D01*
X028370Y026811D02*
X028136Y026811D01*
X027966Y026970D02*
X028370Y026970D01*
X028370Y027128D02*
X021083Y027128D01*
X021325Y026970D02*
X022484Y026970D01*
X022453Y026957D02*
X022318Y026822D01*
X022245Y026645D01*
X022245Y025855D01*
X022318Y025678D01*
X022453Y025543D01*
X022630Y025470D01*
X022820Y025470D01*
X022997Y025543D01*
X023132Y025678D01*
X023205Y025855D01*
X023205Y026645D01*
X023132Y026822D01*
X022997Y026957D01*
X022820Y027030D01*
X022630Y027030D01*
X022453Y026957D01*
X022314Y026811D02*
X021484Y026811D01*
X021577Y026653D02*
X022248Y026653D01*
X022245Y026494D02*
X021650Y026494D01*
X021693Y026336D02*
X022245Y026336D01*
X022245Y026177D02*
X021710Y026177D01*
X021710Y026019D02*
X022245Y026019D01*
X022245Y025860D02*
X021678Y025860D01*
X021636Y025702D02*
X022308Y025702D01*
X022453Y025543D02*
X021546Y025543D01*
X020258Y025068D02*
X018725Y025068D01*
X018725Y025226D02*
X019937Y025226D01*
X019771Y025385D02*
X018725Y025385D01*
X018725Y025543D02*
X019654Y025543D01*
X019564Y025702D02*
X018725Y025702D01*
X018725Y025860D02*
X019522Y025860D01*
X019490Y026019D02*
X018725Y026019D01*
X018725Y026177D02*
X019490Y026177D01*
X019507Y026336D02*
X018725Y026336D01*
X018725Y026494D02*
X019550Y026494D01*
X019623Y026653D02*
X018725Y026653D01*
X018725Y026811D02*
X019716Y026811D01*
X019875Y026970D02*
X018725Y026970D01*
X018725Y027128D02*
X020117Y027128D01*
X018725Y027287D02*
X028370Y027287D01*
X028370Y027445D02*
X018725Y027445D01*
X018725Y027604D02*
X028370Y027604D01*
X028370Y027762D02*
X018725Y027762D01*
X018725Y027921D02*
X028370Y027921D01*
X028370Y028079D02*
X018725Y028079D01*
X018725Y028238D02*
X028370Y028238D01*
X028370Y028396D02*
X018725Y028396D01*
X018725Y028555D02*
X028370Y028555D01*
X028370Y028713D02*
X018725Y028713D01*
X018725Y028872D02*
X028370Y028872D01*
X028370Y029030D02*
X018725Y029030D01*
X018725Y029189D02*
X028370Y029189D01*
X028370Y029347D02*
X018725Y029347D01*
X018725Y029506D02*
X028291Y029506D01*
X027484Y026970D02*
X026966Y026970D01*
X026997Y026957D02*
X026820Y027030D01*
X026630Y027030D01*
X026453Y026957D01*
X026318Y026822D01*
X026245Y026645D01*
X026245Y025855D01*
X026318Y025678D01*
X026453Y025543D01*
X026630Y025470D01*
X026820Y025470D01*
X026997Y025543D01*
X027132Y025678D01*
X027205Y025855D01*
X027205Y026645D01*
X027132Y026822D01*
X026997Y026957D01*
X027136Y026811D02*
X027314Y026811D01*
X027248Y026653D02*
X027202Y026653D01*
X027205Y026494D02*
X027245Y026494D01*
X027245Y026336D02*
X027205Y026336D01*
X027205Y026177D02*
X027245Y026177D01*
X027245Y026019D02*
X027205Y026019D01*
X027205Y025860D02*
X027245Y025860D01*
X027308Y025702D02*
X027142Y025702D01*
X026997Y025543D02*
X027453Y025543D01*
X026453Y025543D02*
X025981Y025543D01*
X025977Y025539D02*
X026038Y025584D01*
X026091Y025637D01*
X026136Y025698D01*
X026170Y025766D01*
X026193Y025838D01*
X026205Y025912D01*
X026205Y026230D01*
X025745Y026230D01*
X025745Y026270D01*
X025705Y026270D01*
X025705Y027030D01*
X025687Y027030D01*
X025613Y027018D01*
X025541Y026995D01*
X025473Y026961D01*
X025412Y026916D01*
X025359Y026863D01*
X025314Y026802D01*
X025280Y026734D01*
X025257Y026662D01*
X025245Y026588D01*
X025245Y026270D01*
X025705Y026270D01*
X025705Y026230D01*
X025245Y026230D01*
X025245Y025912D01*
X025257Y025838D01*
X025280Y025766D01*
X025314Y025698D01*
X025359Y025637D01*
X025412Y025584D01*
X025473Y025539D01*
X025541Y025505D01*
X025613Y025482D01*
X025687Y025470D01*
X025705Y025470D01*
X025705Y026230D01*
X025745Y026230D01*
X025745Y025470D01*
X025763Y025470D01*
X025837Y025482D01*
X025909Y025505D01*
X025977Y025539D01*
X026137Y025702D02*
X026308Y025702D01*
X026245Y025860D02*
X026197Y025860D01*
X026205Y026019D02*
X026245Y026019D01*
X026245Y026177D02*
X026205Y026177D01*
X026205Y026270D02*
X025745Y026270D01*
X025745Y027030D01*
X025763Y027030D01*
X025837Y027018D01*
X025909Y026995D01*
X025977Y026961D01*
X026038Y026916D01*
X026091Y026863D01*
X026136Y026802D01*
X026170Y026734D01*
X026193Y026662D01*
X026205Y026588D01*
X026205Y026270D01*
X026205Y026336D02*
X026245Y026336D01*
X026245Y026494D02*
X026205Y026494D01*
X026195Y026653D02*
X026248Y026653D01*
X026314Y026811D02*
X026129Y026811D01*
X025959Y026970D02*
X026484Y026970D01*
X025745Y026970D02*
X025705Y026970D01*
X025705Y026811D02*
X025745Y026811D01*
X025745Y026653D02*
X025705Y026653D01*
X025705Y026494D02*
X025745Y026494D01*
X025745Y026336D02*
X025705Y026336D01*
X025705Y026177D02*
X025745Y026177D01*
X025745Y026019D02*
X025705Y026019D01*
X025705Y025860D02*
X025745Y025860D01*
X025745Y025702D02*
X025705Y025702D01*
X025705Y025543D02*
X025745Y025543D01*
X025469Y025543D02*
X024997Y025543D01*
X025132Y025678D01*
X025205Y025855D01*
X025205Y026645D01*
X025132Y026822D01*
X024997Y026957D01*
X024820Y027030D01*
X024630Y027030D01*
X024453Y026957D01*
X024318Y026822D01*
X024245Y026645D01*
X024245Y025855D01*
X024318Y025678D01*
X024453Y025543D01*
X024630Y025470D01*
X024820Y025470D01*
X024997Y025543D01*
X025142Y025702D02*
X025313Y025702D01*
X025253Y025860D02*
X025205Y025860D01*
X025205Y026019D02*
X025245Y026019D01*
X025245Y026177D02*
X025205Y026177D01*
X025205Y026336D02*
X025245Y026336D01*
X025245Y026494D02*
X025205Y026494D01*
X025202Y026653D02*
X025255Y026653D01*
X025321Y026811D02*
X025136Y026811D01*
X024966Y026970D02*
X025491Y026970D01*
X024484Y026970D02*
X023966Y026970D01*
X023997Y026957D02*
X023820Y027030D01*
X023630Y027030D01*
X023453Y026957D01*
X023318Y026822D01*
X023245Y026645D01*
X023245Y025855D01*
X023318Y025678D01*
X023453Y025543D01*
X023630Y025470D01*
X023820Y025470D01*
X023997Y025543D01*
X024132Y025678D01*
X024205Y025855D01*
X024205Y026645D01*
X024132Y026822D01*
X023997Y026957D01*
X024136Y026811D02*
X024314Y026811D01*
X024248Y026653D02*
X024202Y026653D01*
X024205Y026494D02*
X024245Y026494D01*
X024245Y026336D02*
X024205Y026336D01*
X024205Y026177D02*
X024245Y026177D01*
X024245Y026019D02*
X024205Y026019D01*
X024205Y025860D02*
X024245Y025860D01*
X024308Y025702D02*
X024142Y025702D01*
X023997Y025543D02*
X024453Y025543D01*
X023453Y025543D02*
X022997Y025543D01*
X023142Y025702D02*
X023308Y025702D01*
X023245Y025860D02*
X023205Y025860D01*
X023205Y026019D02*
X023245Y026019D01*
X023245Y026177D02*
X023205Y026177D01*
X023205Y026336D02*
X023245Y026336D01*
X023245Y026494D02*
X023205Y026494D01*
X023202Y026653D02*
X023248Y026653D01*
X023314Y026811D02*
X023136Y026811D01*
X022966Y026970D02*
X023484Y026970D01*
X023235Y023324D02*
X028370Y023324D01*
X028370Y023166D02*
X023235Y023166D01*
X023235Y023007D02*
X028370Y023007D01*
X028370Y022849D02*
X026911Y022849D01*
X027070Y022690D02*
X028370Y022690D01*
X028370Y022532D02*
X027106Y022532D01*
X027103Y022373D02*
X028370Y022373D01*
X028370Y022215D02*
X026976Y022215D01*
X026808Y022056D02*
X028370Y022056D01*
X028370Y021898D02*
X026639Y021898D01*
X026471Y021739D02*
X028370Y021739D01*
X028370Y021581D02*
X026303Y021581D01*
X026134Y021422D02*
X028370Y021422D01*
X028370Y021264D02*
X025966Y021264D01*
X025797Y021105D02*
X028370Y021105D01*
X028370Y020947D02*
X025629Y020947D01*
X025460Y020788D02*
X028370Y020788D01*
X028370Y020630D02*
X025292Y020630D01*
X025124Y020471D02*
X028370Y020471D01*
X028370Y020313D02*
X024980Y020313D01*
X024980Y020154D02*
X028370Y020154D01*
X028370Y019996D02*
X024980Y019996D01*
X024980Y019837D02*
X028370Y019837D01*
X028370Y019679D02*
X024980Y019679D01*
X024980Y019520D02*
X028370Y019520D01*
X028370Y019362D02*
X024980Y019362D01*
X024980Y019203D02*
X028370Y019203D01*
X028370Y019045D02*
X024980Y019045D01*
X024980Y018886D02*
X028370Y018886D01*
X028370Y018728D02*
X024980Y018728D01*
X024980Y018569D02*
X028370Y018569D01*
X028370Y018411D02*
X024980Y018411D01*
X024980Y018252D02*
X028370Y018252D01*
X028370Y018094D02*
X024980Y018094D01*
X024980Y017935D02*
X028370Y017935D01*
X028370Y017777D02*
X024980Y017777D01*
X024980Y017618D02*
X028370Y017618D01*
X028370Y017460D02*
X024980Y017460D01*
X024980Y017301D02*
X028370Y017301D01*
X028370Y017143D02*
X024980Y017143D01*
X024980Y016984D02*
X028370Y016984D01*
X028370Y016826D02*
X024980Y016826D01*
X024980Y016667D02*
X028370Y016667D01*
X028370Y016509D02*
X024980Y016509D01*
X024980Y016350D02*
X028370Y016350D01*
X028370Y016192D02*
X024980Y016192D01*
X024980Y016033D02*
X028370Y016033D01*
X028370Y015875D02*
X024980Y015875D01*
X024980Y015716D02*
X028370Y015716D01*
X028370Y015558D02*
X024980Y015558D01*
X024980Y015399D02*
X028370Y015399D01*
X028370Y015241D02*
X024980Y015241D01*
X024980Y015082D02*
X028370Y015082D01*
X028370Y014924D02*
X024980Y014924D01*
X024980Y014765D02*
X028370Y014765D01*
X028370Y014607D02*
X024980Y014607D01*
X024980Y014448D02*
X028370Y014448D01*
X028370Y014290D02*
X024980Y014290D01*
X024980Y014131D02*
X028370Y014131D01*
X028370Y013973D02*
X024980Y013973D01*
X024980Y013814D02*
X028370Y013814D01*
X028421Y013656D02*
X024980Y013656D01*
X024980Y013497D02*
X028549Y013497D01*
X028708Y013339D02*
X024980Y013339D01*
X024980Y013180D02*
X028725Y013180D01*
X028725Y013022D02*
X027113Y013022D01*
X027228Y012863D02*
X028725Y012863D01*
X028725Y012705D02*
X027228Y012705D01*
X027181Y012546D02*
X028725Y012546D01*
X028725Y012388D02*
X027022Y012388D01*
X026678Y012388D02*
X025272Y012388D01*
X024980Y012229D02*
X028725Y012229D01*
X028725Y012071D02*
X024980Y012071D01*
X024980Y011912D02*
X028725Y011912D01*
X028725Y011754D02*
X024980Y011754D01*
X024980Y011595D02*
X028725Y011595D01*
X028725Y011437D02*
X024980Y011437D01*
X024980Y011278D02*
X028725Y011278D01*
X028725Y011120D02*
X025515Y011120D01*
X025603Y010961D02*
X028725Y010961D01*
X028725Y010803D02*
X025603Y010803D01*
X025529Y010644D02*
X028725Y010644D01*
X028725Y010486D02*
X024980Y010486D01*
X024980Y010327D02*
X028623Y010327D01*
X028465Y010169D02*
X024980Y010169D01*
X024980Y010010D02*
X028386Y010010D01*
X028370Y009852D02*
X025658Y009852D01*
X025632Y009878D02*
X025318Y009878D01*
X025097Y009657D01*
X025097Y009343D01*
X025215Y009225D01*
X025215Y007108D01*
X023242Y005135D01*
X020798Y005135D01*
X020703Y005095D01*
X018742Y003135D01*
X016750Y003135D01*
X016632Y003253D01*
X016318Y003253D01*
X016097Y003032D01*
X016097Y002718D01*
X016318Y002497D01*
X016632Y002497D01*
X016750Y002615D01*
X018902Y002615D01*
X018997Y002655D01*
X019070Y002728D01*
X020958Y004615D01*
X023402Y004615D01*
X023497Y004655D01*
X023570Y004728D01*
X025695Y006853D01*
X025735Y006948D01*
X025735Y009225D01*
X025853Y009343D01*
X025853Y009657D01*
X025632Y009878D01*
X025817Y009693D02*
X028370Y009693D01*
X028370Y009535D02*
X025853Y009535D01*
X025853Y009376D02*
X028370Y009376D01*
X028370Y009218D02*
X025735Y009218D01*
X025735Y009059D02*
X028370Y009059D01*
X028370Y008901D02*
X025735Y008901D01*
X025735Y008742D02*
X028370Y008742D01*
X028370Y008584D02*
X025735Y008584D01*
X025735Y008425D02*
X028370Y008425D01*
X028370Y008267D02*
X025735Y008267D01*
X025735Y008108D02*
X028370Y008108D01*
X028370Y007950D02*
X025735Y007950D01*
X025735Y007791D02*
X028370Y007791D01*
X028370Y007633D02*
X025735Y007633D01*
X025735Y007474D02*
X028370Y007474D01*
X028370Y007316D02*
X025735Y007316D01*
X025735Y007157D02*
X028370Y007157D01*
X028370Y006999D02*
X025735Y006999D01*
X025683Y006840D02*
X028370Y006840D01*
X028370Y006682D02*
X025524Y006682D01*
X025366Y006523D02*
X028370Y006523D01*
X028370Y006365D02*
X025207Y006365D01*
X025049Y006206D02*
X028370Y006206D01*
X028370Y006048D02*
X024890Y006048D01*
X024732Y005889D02*
X028370Y005889D01*
X028370Y005731D02*
X024573Y005731D01*
X024415Y005572D02*
X028370Y005572D01*
X028370Y005414D02*
X024256Y005414D01*
X024098Y005255D02*
X028370Y005255D01*
X028370Y005097D02*
X025852Y005097D01*
X025973Y005046D02*
X025650Y005180D01*
X025300Y005180D01*
X024977Y005046D01*
X024729Y004798D01*
X024595Y004475D01*
X024595Y004125D01*
X024729Y003802D01*
X024977Y003554D01*
X025300Y003420D01*
X025650Y003420D01*
X025973Y003554D01*
X026221Y003802D01*
X026355Y004125D01*
X026355Y004475D01*
X026221Y004798D01*
X025973Y005046D01*
X026081Y004938D02*
X028370Y004938D01*
X028370Y004780D02*
X026229Y004780D01*
X026295Y004621D02*
X028370Y004621D01*
X028370Y004463D02*
X026355Y004463D01*
X026355Y004304D02*
X028370Y004304D01*
X028370Y004146D02*
X026355Y004146D01*
X026298Y003987D02*
X028370Y003987D01*
X028370Y003829D02*
X026232Y003829D01*
X026090Y003670D02*
X028370Y003670D01*
X028370Y003512D02*
X025871Y003512D01*
X025715Y003353D02*
X028370Y003353D01*
X028370Y003195D02*
X026025Y003195D01*
X025973Y003246D02*
X025650Y003380D01*
X025300Y003380D01*
X024977Y003246D01*
X024729Y002998D01*
X024595Y002675D01*
X024595Y002325D01*
X024729Y002002D01*
X024977Y001754D01*
X025300Y001620D01*
X025650Y001620D01*
X025973Y001754D01*
X026221Y002002D01*
X026355Y002325D01*
X026355Y002675D01*
X026221Y002998D01*
X025973Y003246D01*
X026184Y003036D02*
X028370Y003036D01*
X028370Y002878D02*
X026271Y002878D01*
X026337Y002719D02*
X028370Y002719D01*
X028370Y002561D02*
X026355Y002561D01*
X026355Y002402D02*
X028370Y002402D01*
X028370Y002244D02*
X026321Y002244D01*
X026256Y002085D02*
X028370Y002085D01*
X028370Y001927D02*
X026146Y001927D01*
X025988Y001768D02*
X028370Y001768D01*
X028370Y001610D02*
X022480Y001610D01*
X022480Y001768D02*
X024962Y001768D01*
X024804Y001927D02*
X022480Y001927D01*
X022480Y002085D02*
X024694Y002085D01*
X024629Y002244D02*
X022480Y002244D01*
X022480Y002402D02*
X024595Y002402D01*
X024595Y002561D02*
X022480Y002561D01*
X022480Y002719D02*
X024613Y002719D01*
X024679Y002878D02*
X022480Y002878D01*
X022480Y003036D02*
X024766Y003036D01*
X024925Y003195D02*
X022480Y003195D01*
X022480Y003353D02*
X025235Y003353D01*
X025079Y003512D02*
X022480Y003512D01*
X022480Y003670D02*
X024860Y003670D01*
X024718Y003829D02*
X022480Y003829D01*
X022478Y003987D02*
X024652Y003987D01*
X024595Y004146D02*
X022367Y004146D01*
X021833Y004146D02*
X020488Y004146D01*
X020647Y004304D02*
X024595Y004304D01*
X024595Y004463D02*
X020805Y004463D01*
X020850Y004875D02*
X018850Y002875D01*
X016475Y002875D01*
X016097Y002878D02*
X006885Y002878D01*
X006726Y003036D02*
X016101Y003036D01*
X016260Y003195D02*
X006568Y003195D01*
X006409Y003353D02*
X018960Y003353D01*
X018802Y003195D02*
X016690Y003195D01*
X016695Y002561D02*
X019490Y002561D01*
X019490Y002402D02*
X007360Y002402D01*
X007202Y002561D02*
X016255Y002561D01*
X016097Y002719D02*
X007043Y002719D01*
X006251Y003512D02*
X019119Y003512D01*
X019277Y003670D02*
X006092Y003670D01*
X005934Y003829D02*
X019436Y003829D01*
X019594Y003987D02*
X005775Y003987D01*
X005617Y004146D02*
X012208Y004146D01*
X011987Y004304D02*
X005458Y004304D01*
X005300Y004463D02*
X011789Y004463D01*
X011590Y004621D02*
X005141Y004621D01*
X004983Y004780D02*
X011408Y004780D01*
X011345Y004938D02*
X004824Y004938D01*
X004666Y005097D02*
X011345Y005097D01*
X012105Y005255D02*
X019568Y005255D01*
X019548Y005414D02*
X019726Y005414D01*
X019707Y005572D02*
X019885Y005572D01*
X019728Y005731D02*
X020043Y005731D01*
X020202Y005889D02*
X019835Y005889D01*
X019860Y006048D02*
X020360Y006048D01*
X019860Y006206D02*
X021215Y006206D01*
X021215Y006365D02*
X019860Y006365D01*
X019860Y006523D02*
X021215Y006523D01*
X021215Y006682D02*
X019860Y006682D01*
X019860Y006840D02*
X021215Y006840D01*
X021215Y006999D02*
X019860Y006999D01*
X019860Y007157D02*
X021215Y007157D01*
X021215Y007316D02*
X019860Y007316D01*
X019860Y007474D02*
X020433Y007474D01*
X020190Y007633D02*
X019860Y007633D01*
X019860Y007791D02*
X020091Y007791D01*
X020050Y007950D02*
X019860Y007950D01*
X019860Y008108D02*
X020050Y008108D01*
X020115Y008267D02*
X019860Y008267D01*
X019860Y008425D02*
X020247Y008425D01*
X020239Y008584D02*
X019860Y008584D01*
X019860Y008742D02*
X020112Y008742D01*
X020050Y008901D02*
X019860Y008901D01*
X019860Y009059D02*
X020050Y009059D01*
X020095Y009218D02*
X019860Y009218D01*
X019860Y009376D02*
X020198Y009376D01*
X020288Y009535D02*
X019860Y009535D01*
X019860Y009693D02*
X020132Y009693D01*
X020066Y009852D02*
X019860Y009852D01*
X019860Y010010D02*
X020050Y010010D01*
X020074Y010169D02*
X019860Y010169D01*
X019860Y010327D02*
X020149Y010327D01*
X020335Y010486D02*
X019860Y010486D01*
X019860Y010644D02*
X020178Y010644D01*
X020086Y010803D02*
X019860Y010803D01*
X019860Y010961D02*
X020050Y010961D01*
X020054Y011120D02*
X019860Y011120D01*
X019860Y011278D02*
X020120Y011278D01*
X020259Y011437D02*
X019860Y011437D01*
X019860Y011595D02*
X020227Y011595D01*
X020107Y011754D02*
X019860Y011754D01*
X019860Y011912D02*
X020050Y011912D01*
X020050Y012071D02*
X019860Y012071D01*
X019860Y012229D02*
X020100Y012229D01*
X020210Y012388D02*
X019860Y012388D01*
X019860Y012546D02*
X020289Y012546D01*
X020135Y012705D02*
X019860Y012705D01*
X019860Y012863D02*
X020066Y012863D01*
X020050Y013022D02*
X019860Y013022D01*
X019860Y013180D02*
X020080Y013180D01*
X020166Y013339D02*
X019860Y013339D01*
X019860Y013497D02*
X020364Y013497D01*
X020580Y013497D02*
X020620Y013497D01*
X020620Y013339D02*
X020580Y013339D01*
X020580Y013180D02*
X020620Y013180D01*
X020620Y013022D02*
X020580Y013022D01*
X021034Y013339D02*
X023345Y013339D01*
X023345Y013497D02*
X020836Y013497D01*
X021030Y013656D02*
X023345Y013656D01*
X023345Y013814D02*
X021118Y013814D01*
X021150Y013973D02*
X023345Y013973D01*
X023345Y014131D02*
X021136Y014131D01*
X021069Y014290D02*
X023345Y014290D01*
X023345Y014448D02*
X020919Y014448D01*
X020984Y014607D02*
X023345Y014607D01*
X024105Y014607D02*
X024220Y014607D01*
X024220Y014765D02*
X024105Y014765D01*
X024105Y014924D02*
X024220Y014924D01*
X024220Y015082D02*
X024105Y015082D01*
X024105Y015241D02*
X024220Y015241D01*
X024220Y015399D02*
X024105Y015399D01*
X024105Y015558D02*
X024220Y015558D01*
X024220Y015716D02*
X024105Y015716D01*
X024105Y015875D02*
X024220Y015875D01*
X024220Y016033D02*
X024105Y016033D01*
X024105Y016192D02*
X024220Y016192D01*
X024220Y016350D02*
X024105Y016350D01*
X024105Y016509D02*
X024220Y016509D01*
X024220Y016667D02*
X024105Y016667D01*
X024105Y016826D02*
X024220Y016826D01*
X024220Y016984D02*
X024105Y016984D01*
X024105Y017143D02*
X024220Y017143D01*
X024220Y017301D02*
X024105Y017301D01*
X024105Y017460D02*
X024220Y017460D01*
X024220Y017618D02*
X024105Y017618D01*
X024105Y017777D02*
X024220Y017777D01*
X024220Y017935D02*
X024105Y017935D01*
X024105Y018094D02*
X024220Y018094D01*
X024220Y018252D02*
X024105Y018252D01*
X024105Y018411D02*
X024220Y018411D01*
X024220Y018569D02*
X024105Y018569D01*
X024105Y018728D02*
X024220Y018728D01*
X024220Y018886D02*
X024105Y018886D01*
X024105Y019045D02*
X024220Y019045D01*
X024220Y019203D02*
X024105Y019203D01*
X024105Y019362D02*
X024220Y019362D01*
X024220Y019520D02*
X024105Y019520D01*
X024105Y019679D02*
X024220Y019679D01*
X024220Y019837D02*
X024105Y019837D01*
X024103Y019996D02*
X024220Y019996D01*
X024220Y020154D02*
X023983Y020154D01*
X024220Y020313D02*
X023235Y020313D01*
X023235Y020471D02*
X024219Y020471D01*
X024242Y020630D02*
X023235Y020630D01*
X023235Y020788D02*
X024351Y020788D01*
X024520Y020947D02*
X023235Y020947D01*
X023235Y021105D02*
X024688Y021105D01*
X024857Y021264D02*
X023235Y021264D01*
X023235Y021422D02*
X025025Y021422D01*
X025194Y021581D02*
X023235Y021581D01*
X023249Y021739D02*
X025362Y021739D01*
X025530Y021898D02*
X023353Y021898D01*
X023353Y022056D02*
X025699Y022056D01*
X025867Y022215D02*
X023295Y022215D01*
X023235Y022373D02*
X026036Y022373D01*
X026204Y022532D02*
X023235Y022532D01*
X023235Y022690D02*
X026372Y022690D01*
X026539Y022849D02*
X023235Y022849D01*
X022597Y022056D02*
X021150Y022056D01*
X021150Y021898D02*
X022597Y021898D01*
X022701Y021739D02*
X021087Y021739D01*
X020958Y021581D02*
X022715Y021581D01*
X022715Y021422D02*
X020956Y021422D01*
X021086Y021264D02*
X022715Y021264D01*
X022715Y021105D02*
X021150Y021105D01*
X021150Y020947D02*
X022715Y020947D01*
X023235Y020154D02*
X023467Y020154D01*
X023347Y019996D02*
X023235Y019996D01*
X023235Y019837D02*
X023345Y019837D01*
X023345Y019679D02*
X023235Y019679D01*
X023235Y019520D02*
X023345Y019520D01*
X023345Y019362D02*
X023273Y019362D01*
X023271Y018886D02*
X023345Y018886D01*
X023345Y018728D02*
X021082Y018728D01*
X020947Y018569D02*
X023345Y018569D01*
X023345Y018411D02*
X020967Y018411D01*
X021091Y018252D02*
X023345Y018252D01*
X023345Y018094D02*
X021150Y018094D01*
X021158Y017935D02*
X023345Y017935D01*
X023345Y017777D02*
X021316Y017777D01*
X021458Y017618D02*
X023345Y017618D01*
X023345Y017460D02*
X021485Y017460D01*
X021485Y017301D02*
X023345Y017301D01*
X023345Y017143D02*
X021485Y017143D01*
X021485Y016984D02*
X023345Y016984D01*
X023345Y016826D02*
X021485Y016826D01*
X021485Y016667D02*
X023345Y016667D01*
X023345Y016509D02*
X021458Y016509D01*
X021318Y016350D02*
X023345Y016350D01*
X023345Y016192D02*
X021159Y016192D01*
X020975Y016375D02*
X020225Y016375D01*
X019600Y015750D01*
X019600Y006000D01*
X019350Y005750D01*
X018972Y005731D02*
X012105Y005731D01*
X012105Y005889D02*
X018972Y005889D01*
X019113Y006048D02*
X012105Y006048D01*
X012105Y006206D02*
X019340Y006206D01*
X019340Y006365D02*
X012105Y006365D01*
X012105Y006523D02*
X019340Y006523D01*
X019340Y006682D02*
X012105Y006682D01*
X012105Y006840D02*
X019340Y006840D01*
X019340Y006999D02*
X012105Y006999D01*
X012105Y007157D02*
X019340Y007157D01*
X019340Y007316D02*
X012105Y007316D01*
X012105Y007474D02*
X015466Y007474D01*
X015725Y007750D02*
X011725Y007750D01*
X012105Y008108D02*
X015548Y008108D01*
X015568Y008247D02*
X015347Y008468D01*
X015347Y008635D01*
X013610Y010372D01*
X013443Y010372D01*
X013222Y010593D01*
X013222Y010907D01*
X013443Y011128D01*
X013757Y011128D01*
X013978Y010907D01*
X013978Y010740D01*
X015715Y009003D01*
X015882Y009003D01*
X016103Y008782D01*
X016103Y008468D01*
X015882Y008247D01*
X015568Y008247D01*
X015549Y008267D02*
X012105Y008267D01*
X012105Y008425D02*
X015390Y008425D01*
X015347Y008584D02*
X012105Y008584D01*
X012105Y008742D02*
X015240Y008742D01*
X015082Y008901D02*
X012105Y008901D01*
X012105Y009059D02*
X014923Y009059D01*
X014765Y009218D02*
X012105Y009218D01*
X012105Y009376D02*
X014606Y009376D01*
X014448Y009535D02*
X012105Y009535D01*
X012105Y009693D02*
X014289Y009693D01*
X014131Y009852D02*
X012105Y009852D01*
X012105Y010010D02*
X013972Y010010D01*
X013814Y010169D02*
X012105Y010169D01*
X012105Y010327D02*
X013655Y010327D01*
X013330Y010486D02*
X012105Y010486D01*
X012105Y010644D02*
X013222Y010644D01*
X013222Y010803D02*
X012105Y010803D01*
X012105Y010961D02*
X013276Y010961D01*
X013435Y011120D02*
X012105Y011120D01*
X012105Y011278D02*
X019340Y011278D01*
X019340Y011120D02*
X013765Y011120D01*
X013924Y010961D02*
X019340Y010961D01*
X019340Y010803D02*
X013978Y010803D01*
X014074Y010644D02*
X019340Y010644D01*
X019340Y010486D02*
X014232Y010486D01*
X014391Y010327D02*
X019340Y010327D01*
X019340Y010169D02*
X014549Y010169D01*
X014708Y010010D02*
X019340Y010010D01*
X019340Y009852D02*
X014866Y009852D01*
X015025Y009693D02*
X019340Y009693D01*
X019340Y009535D02*
X015183Y009535D01*
X015342Y009376D02*
X019340Y009376D01*
X019340Y009218D02*
X015500Y009218D01*
X015659Y009059D02*
X019340Y009059D01*
X019340Y008901D02*
X015984Y008901D01*
X016103Y008742D02*
X019340Y008742D01*
X019340Y008584D02*
X016103Y008584D01*
X016060Y008425D02*
X019340Y008425D01*
X019340Y008267D02*
X015901Y008267D01*
X015902Y008108D02*
X019340Y008108D01*
X019340Y007950D02*
X016060Y007950D01*
X016103Y007791D02*
X019340Y007791D01*
X019340Y007633D02*
X016103Y007633D01*
X015984Y007474D02*
X019340Y007474D01*
X020767Y007474D02*
X021215Y007474D01*
X021215Y007633D02*
X021010Y007633D01*
X021109Y007791D02*
X021215Y007791D01*
X021215Y007950D02*
X021150Y007950D01*
X021150Y008108D02*
X021215Y008108D01*
X021215Y008267D02*
X021085Y008267D01*
X021215Y008425D02*
X020953Y008425D01*
X020961Y008584D02*
X021215Y008584D01*
X021215Y008742D02*
X021088Y008742D01*
X021150Y008901D02*
X021215Y008901D01*
X021215Y009059D02*
X021150Y009059D01*
X021105Y009218D02*
X021215Y009218D01*
X021215Y009376D02*
X021002Y009376D01*
X020912Y009535D02*
X021215Y009535D01*
X021215Y009693D02*
X021068Y009693D01*
X021134Y009852D02*
X021215Y009852D01*
X021215Y010010D02*
X021150Y010010D01*
X021126Y010169D02*
X021215Y010169D01*
X021215Y010327D02*
X021051Y010327D01*
X021215Y010486D02*
X020865Y010486D01*
X021022Y010644D02*
X021215Y010644D01*
X021215Y010803D02*
X021114Y010803D01*
X021150Y010961D02*
X021215Y010961D01*
X021215Y011120D02*
X021146Y011120D01*
X021080Y011278D02*
X021215Y011278D01*
X021215Y011437D02*
X020941Y011437D01*
X020973Y011595D02*
X021137Y011595D01*
X021475Y011625D02*
X021100Y012000D01*
X020600Y012000D01*
X020990Y012388D02*
X023345Y012388D01*
X023345Y012546D02*
X020911Y012546D01*
X021065Y012705D02*
X023345Y012705D01*
X023345Y012863D02*
X021134Y012863D01*
X021150Y013022D02*
X023345Y013022D01*
X023345Y013180D02*
X021120Y013180D01*
X020620Y013656D02*
X020580Y013656D01*
X020580Y013814D02*
X020620Y013814D01*
X020620Y013973D02*
X020580Y013973D01*
X020170Y013656D02*
X019860Y013656D01*
X019860Y013814D02*
X020082Y013814D01*
X020050Y013973D02*
X019860Y013973D01*
X019860Y014131D02*
X020064Y014131D01*
X020131Y014290D02*
X019860Y014290D01*
X019860Y014448D02*
X020281Y014448D01*
X020216Y014607D02*
X019860Y014607D01*
X019860Y014765D02*
X020102Y014765D01*
X020050Y014924D02*
X019860Y014924D01*
X019860Y015082D02*
X020050Y015082D01*
X020104Y015241D02*
X019860Y015241D01*
X019860Y015399D02*
X020221Y015399D01*
X019934Y015716D02*
X023345Y015716D01*
X023345Y015558D02*
X019860Y015558D01*
X020092Y015875D02*
X023345Y015875D01*
X023345Y016033D02*
X020251Y016033D01*
X019832Y016350D02*
X019318Y016350D01*
X019476Y016509D02*
X019991Y016509D01*
X020155Y016667D02*
X019635Y016667D01*
X019600Y017000D02*
X016850Y014250D01*
X016850Y014210D01*
X016935Y014125D01*
X017150Y013973D02*
X019340Y013973D01*
X019340Y014131D02*
X017228Y014131D01*
X017257Y014290D02*
X019340Y014290D01*
X019340Y014448D02*
X017416Y014448D01*
X017574Y014607D02*
X019340Y014607D01*
X019340Y014765D02*
X017733Y014765D01*
X017891Y014924D02*
X019340Y014924D01*
X019340Y015082D02*
X018050Y015082D01*
X018208Y015241D02*
X019340Y015241D01*
X019340Y015399D02*
X018367Y015399D01*
X018525Y015558D02*
X019340Y015558D01*
X019340Y015716D02*
X018684Y015716D01*
X018842Y015875D02*
X019370Y015875D01*
X019515Y016033D02*
X019001Y016033D01*
X019159Y016192D02*
X019674Y016192D01*
X019600Y017000D02*
X020600Y017000D01*
X021225Y016625D02*
X020975Y016375D01*
X021225Y016625D02*
X021225Y017500D01*
X020725Y018000D01*
X020600Y018000D01*
X020282Y017460D02*
X019552Y017460D01*
X019711Y017618D02*
X020204Y017618D01*
X020097Y017777D02*
X019869Y017777D01*
X020028Y017935D02*
X020050Y017935D01*
X020129Y017301D02*
X019394Y017301D01*
X019380Y017147D02*
X019380Y017147D01*
X019375Y017143D02*
X019235Y017143D01*
X019216Y016984D02*
X019077Y016984D01*
X019058Y016826D02*
X018918Y016826D01*
X018899Y016667D02*
X018760Y016667D01*
X018741Y016509D02*
X018601Y016509D01*
X018582Y016350D02*
X018443Y016350D01*
X018424Y016192D02*
X018284Y016192D01*
X018265Y016033D02*
X018126Y016033D01*
X018107Y015875D02*
X017967Y015875D01*
X017948Y015716D02*
X017809Y015716D01*
X017790Y015558D02*
X017650Y015558D01*
X017631Y015399D02*
X017492Y015399D01*
X017473Y015241D02*
X017333Y015241D01*
X017314Y015082D02*
X017175Y015082D01*
X017156Y014924D02*
X017016Y014924D01*
X016997Y014765D02*
X016858Y014765D01*
X016839Y014607D02*
X016699Y014607D01*
X016554Y014448D02*
X016541Y014448D01*
X016472Y014290D02*
X016382Y014290D01*
X016472Y014131D02*
X016224Y014131D01*
X016065Y013973D02*
X016552Y013973D01*
X015907Y013814D02*
X019340Y013814D01*
X019340Y013656D02*
X015748Y013656D01*
X015590Y013497D02*
X019340Y013497D01*
X019340Y013339D02*
X015431Y013339D01*
X015455Y013180D02*
X019340Y013180D01*
X019340Y013022D02*
X015603Y013022D01*
X015605Y012863D02*
X019340Y012863D01*
X019340Y012705D02*
X015763Y012705D01*
X015922Y012546D02*
X019340Y012546D01*
X019340Y012388D02*
X016080Y012388D01*
X016100Y012000D02*
X015225Y012875D01*
X014847Y012863D02*
X012105Y012863D01*
X012105Y012705D02*
X014861Y012705D01*
X015019Y012546D02*
X012105Y012546D01*
X012105Y012388D02*
X015345Y012388D01*
X015503Y012229D02*
X012105Y012229D01*
X012105Y012071D02*
X015662Y012071D01*
X015820Y011912D02*
X012105Y011912D01*
X012105Y011754D02*
X016016Y011754D01*
X016100Y012000D02*
X017850Y012000D01*
X018138Y011754D02*
X019340Y011754D01*
X019340Y011912D02*
X018228Y011912D01*
X018228Y012071D02*
X019340Y012071D01*
X019340Y012229D02*
X018156Y012229D01*
X019340Y011595D02*
X012105Y011595D01*
X012105Y011437D02*
X019340Y011437D01*
X021227Y012229D02*
X023345Y012229D01*
X023345Y012071D02*
X021397Y012071D01*
X021556Y011912D02*
X023345Y011912D01*
X023345Y011754D02*
X021703Y011754D01*
X021735Y011595D02*
X023345Y011595D01*
X023345Y011437D02*
X021735Y011437D01*
X021475Y011625D02*
X021475Y005750D01*
X021735Y006206D02*
X023019Y006206D01*
X023177Y006365D02*
X022752Y006365D01*
X022910Y006523D02*
X023336Y006523D01*
X023494Y006682D02*
X023069Y006682D01*
X023227Y006840D02*
X023653Y006840D01*
X023811Y006999D02*
X023386Y006999D01*
X023544Y007157D02*
X023970Y007157D01*
X024128Y007316D02*
X023703Y007316D01*
X023861Y007474D02*
X024220Y007474D01*
X024220Y007633D02*
X024020Y007633D01*
X024102Y007791D02*
X024220Y007791D01*
X024220Y007950D02*
X024105Y007950D01*
X024105Y008108D02*
X024220Y008108D01*
X024220Y008267D02*
X024105Y008267D01*
X024105Y008425D02*
X024220Y008425D01*
X024220Y008584D02*
X024105Y008584D01*
X024105Y008742D02*
X024220Y008742D01*
X024220Y008901D02*
X024105Y008901D01*
X024105Y009059D02*
X024220Y009059D01*
X024220Y009218D02*
X024105Y009218D01*
X024105Y009376D02*
X024220Y009376D01*
X024220Y009535D02*
X024105Y009535D01*
X024105Y009693D02*
X024220Y009693D01*
X024220Y009852D02*
X024105Y009852D01*
X024105Y010010D02*
X024220Y010010D01*
X024220Y010169D02*
X024105Y010169D01*
X024105Y010327D02*
X024220Y010327D01*
X024220Y010486D02*
X024105Y010486D01*
X024105Y010644D02*
X024220Y010644D01*
X024220Y010803D02*
X024105Y010803D01*
X024105Y010961D02*
X024220Y010961D01*
X024220Y011120D02*
X024105Y011120D01*
X024105Y011278D02*
X024220Y011278D01*
X024220Y011437D02*
X024105Y011437D01*
X024105Y011595D02*
X024220Y011595D01*
X024220Y011754D02*
X024105Y011754D01*
X024105Y011912D02*
X024220Y011912D01*
X024220Y012071D02*
X024105Y012071D01*
X024105Y012229D02*
X024220Y012229D01*
X024220Y012388D02*
X024105Y012388D01*
X024105Y012546D02*
X024220Y012546D01*
X024220Y012705D02*
X024105Y012705D01*
X024105Y012863D02*
X024220Y012863D01*
X024220Y013022D02*
X024105Y013022D01*
X024105Y013180D02*
X024220Y013180D01*
X024220Y013339D02*
X024105Y013339D01*
X024105Y013497D02*
X024220Y013497D01*
X024220Y013656D02*
X024105Y013656D01*
X024105Y013814D02*
X024220Y013814D01*
X024220Y013973D02*
X024105Y013973D01*
X024105Y014131D02*
X024220Y014131D01*
X024220Y014290D02*
X024105Y014290D01*
X024105Y014448D02*
X024220Y014448D01*
X023345Y015399D02*
X020979Y015399D01*
X019975Y018625D02*
X019975Y019375D01*
X020600Y020000D01*
X020600Y019000D02*
X020600Y018875D01*
X014975Y013250D01*
X012350Y013250D01*
X012975Y013750D02*
X015100Y013750D01*
X019975Y018625D01*
X019225Y018625D02*
X019225Y020625D01*
X020600Y022000D01*
X019775Y023166D02*
X014302Y023166D01*
X014144Y023324D02*
X019616Y023324D01*
X018725Y024751D02*
X028370Y024751D01*
X028370Y024909D02*
X018725Y024909D01*
X018350Y025250D02*
X014600Y025250D01*
X014600Y029645D01*
X014990Y029645D01*
X014940Y029595D01*
X014884Y029521D01*
X014837Y029441D01*
X014802Y029356D01*
X014778Y029267D01*
X014771Y029209D01*
X015391Y029209D01*
X015391Y029049D01*
X014771Y029049D01*
X014778Y028991D01*
X014802Y028902D01*
X014837Y028816D01*
X014884Y028736D01*
X014940Y028663D01*
X015005Y028598D01*
X015079Y028541D01*
X015159Y028495D01*
X015244Y028460D01*
X015333Y028436D01*
X015391Y028428D01*
X015391Y029049D01*
X015551Y029049D01*
X015551Y028428D01*
X015609Y028436D01*
X015698Y028460D01*
X015784Y028495D01*
X015864Y028541D01*
X015937Y028598D01*
X016002Y028663D01*
X016059Y028736D01*
X016105Y028816D01*
X016140Y028902D01*
X016164Y028991D01*
X016172Y029049D01*
X015551Y029049D01*
X015551Y029209D01*
X016172Y029209D01*
X016164Y029267D01*
X016140Y029356D01*
X016105Y029441D01*
X016059Y029521D01*
X016002Y029595D01*
X015952Y029645D01*
X016998Y029645D01*
X016948Y029595D01*
X016891Y029521D01*
X016845Y029441D01*
X016810Y029356D01*
X016786Y029267D01*
X016778Y029209D01*
X017399Y029209D01*
X017399Y029049D01*
X016778Y029049D01*
X016786Y028991D01*
X016810Y028902D01*
X016845Y028816D01*
X016891Y028736D01*
X016948Y028663D01*
X017013Y028598D01*
X017086Y028541D01*
X017166Y028495D01*
X017252Y028460D01*
X017341Y028436D01*
X017399Y028428D01*
X017399Y029049D01*
X017559Y029049D01*
X017559Y029209D01*
X018179Y029209D01*
X018172Y029267D01*
X018148Y029356D01*
X018113Y029441D01*
X018066Y029521D01*
X018010Y029595D01*
X017960Y029645D01*
X018350Y029645D01*
X018350Y025250D01*
X018350Y025385D02*
X017838Y025385D01*
X017872Y025410D02*
X017795Y025353D01*
X017709Y025310D01*
X017618Y025280D01*
X017523Y025265D01*
X017475Y025265D01*
X017475Y025875D01*
X018085Y025875D01*
X018085Y025923D01*
X018070Y026018D01*
X018040Y026109D01*
X017997Y026195D01*
X017940Y026272D01*
X017872Y026340D01*
X017795Y026397D01*
X017709Y026440D01*
X017688Y026447D01*
X017706Y026452D01*
X017791Y026487D01*
X017871Y026534D01*
X017945Y026590D01*
X018010Y026655D01*
X018066Y026729D01*
X018113Y026809D01*
X018148Y026894D01*
X018172Y026983D01*
X018179Y027041D01*
X017559Y027041D01*
X017559Y027201D01*
X018179Y027201D01*
X018172Y027259D01*
X018148Y027348D01*
X018113Y027434D01*
X018066Y027514D01*
X018010Y027587D01*
X017945Y027652D01*
X017871Y027709D01*
X017791Y027755D01*
X017706Y027790D01*
X017617Y027814D01*
X017559Y027822D01*
X017559Y027201D01*
X017399Y027201D01*
X017399Y027041D01*
X017559Y027041D01*
X017559Y026479D01*
X017523Y026485D01*
X017475Y026485D01*
X017475Y025875D01*
X017475Y025875D01*
X017475Y025875D01*
X018085Y025875D01*
X018085Y025827D01*
X018070Y025732D01*
X018040Y025641D01*
X017997Y025555D01*
X017940Y025478D01*
X017872Y025410D01*
X017988Y025543D02*
X018350Y025543D01*
X018350Y025702D02*
X018060Y025702D01*
X018085Y025860D02*
X018350Y025860D01*
X018350Y026019D02*
X018070Y026019D01*
X018006Y026177D02*
X018350Y026177D01*
X018350Y026336D02*
X017877Y026336D01*
X017803Y026494D02*
X018350Y026494D01*
X018350Y026653D02*
X018007Y026653D01*
X018114Y026811D02*
X018350Y026811D01*
X018350Y026970D02*
X018168Y026970D01*
X018350Y027128D02*
X017559Y027128D01*
X017559Y026970D02*
X017399Y026970D01*
X017399Y027041D02*
X017399Y026481D01*
X017427Y026485D01*
X017475Y026485D01*
X017475Y025875D01*
X017475Y025875D01*
X017475Y025265D01*
X017427Y025265D01*
X017332Y025280D01*
X017241Y025310D01*
X017155Y025353D01*
X017078Y025410D01*
X017010Y025478D01*
X016980Y025518D01*
X016821Y025358D01*
X016596Y025265D01*
X016354Y025265D01*
X016129Y025358D01*
X015970Y025518D01*
X015940Y025478D01*
X015872Y025410D01*
X015795Y025353D01*
X015709Y025310D01*
X015618Y025280D01*
X015523Y025265D01*
X015475Y025265D01*
X015475Y025875D01*
X015475Y025875D01*
X015475Y026485D01*
X015523Y026485D01*
X015551Y026481D01*
X015551Y027041D01*
X015391Y027041D01*
X014771Y027041D01*
X014778Y026983D01*
X014802Y026894D01*
X014837Y026809D01*
X014884Y026729D01*
X014940Y026655D01*
X015005Y026590D01*
X015079Y026534D01*
X015159Y026487D01*
X015244Y026452D01*
X015262Y026447D01*
X015241Y026440D01*
X015155Y026397D01*
X015078Y026340D01*
X015010Y026272D01*
X014953Y026195D01*
X014910Y026109D01*
X014880Y026018D01*
X014865Y025923D01*
X014865Y025875D01*
X015475Y025875D01*
X015475Y025875D01*
X015475Y025875D01*
X015475Y026485D01*
X015427Y026485D01*
X015391Y026479D01*
X015391Y027041D01*
X015391Y027201D01*
X014771Y027201D01*
X014778Y027259D01*
X014802Y027348D01*
X014837Y027434D01*
X014884Y027514D01*
X014940Y027587D01*
X015005Y027652D01*
X015079Y027709D01*
X015159Y027755D01*
X015244Y027790D01*
X015333Y027814D01*
X015391Y027822D01*
X015391Y027201D01*
X015551Y027201D01*
X015551Y027822D01*
X015609Y027814D01*
X015698Y027790D01*
X015784Y027755D01*
X015864Y027709D01*
X015937Y027652D01*
X016002Y027587D01*
X016059Y027514D01*
X016105Y027434D01*
X016140Y027348D01*
X016164Y027259D01*
X016172Y027201D01*
X015551Y027201D01*
X015551Y027041D01*
X016172Y027041D01*
X016164Y026983D01*
X016140Y026894D01*
X016105Y026809D01*
X016059Y026729D01*
X016002Y026655D01*
X015937Y026590D01*
X015864Y026534D01*
X015784Y026487D01*
X015698Y026452D01*
X015684Y026448D01*
X015709Y026440D01*
X015795Y026397D01*
X015872Y026340D01*
X015940Y026272D01*
X015970Y026232D01*
X016129Y026392D01*
X016175Y026411D01*
X016175Y027649D01*
X016161Y027654D01*
X016004Y027811D01*
X015920Y028015D01*
X015920Y028235D01*
X016004Y028439D01*
X016161Y028596D01*
X016365Y028680D01*
X016585Y028680D01*
X016789Y028596D01*
X016946Y028439D01*
X017030Y028235D01*
X017030Y028015D01*
X016946Y027811D01*
X016789Y027654D01*
X016775Y027649D01*
X016775Y026411D01*
X016821Y026392D01*
X016980Y026232D01*
X017010Y026272D01*
X017078Y026340D01*
X017155Y026397D01*
X017241Y026440D01*
X017266Y026448D01*
X017252Y026452D01*
X017166Y026487D01*
X017086Y026534D01*
X017013Y026590D01*
X016948Y026655D01*
X016891Y026729D01*
X016845Y026809D01*
X016810Y026894D01*
X016786Y026983D01*
X016778Y027041D01*
X017399Y027041D01*
X017399Y027128D02*
X016775Y027128D01*
X016778Y027201D02*
X017399Y027201D01*
X017399Y027822D01*
X017341Y027814D01*
X017252Y027790D01*
X017166Y027755D01*
X017086Y027709D01*
X017013Y027652D01*
X016948Y027587D01*
X016891Y027514D01*
X016845Y027434D01*
X016810Y027348D01*
X016786Y027259D01*
X016778Y027201D01*
X016775Y027287D02*
X016793Y027287D01*
X016775Y027445D02*
X016852Y027445D01*
X016775Y027604D02*
X016964Y027604D01*
X016897Y027762D02*
X017184Y027762D01*
X017399Y027762D02*
X017559Y027762D01*
X017559Y027604D02*
X017399Y027604D01*
X017399Y027445D02*
X017559Y027445D01*
X017559Y027287D02*
X017399Y027287D01*
X017774Y027762D02*
X018350Y027762D01*
X018350Y027604D02*
X017993Y027604D01*
X018106Y027445D02*
X018350Y027445D01*
X018350Y027287D02*
X018164Y027287D01*
X018350Y027921D02*
X016991Y027921D01*
X017030Y028079D02*
X018350Y028079D01*
X018350Y028238D02*
X017029Y028238D01*
X016963Y028396D02*
X018350Y028396D01*
X018350Y028555D02*
X017888Y028555D01*
X017871Y028541D02*
X017945Y028598D01*
X018010Y028663D01*
X018066Y028736D01*
X018113Y028816D01*
X018148Y028902D01*
X018172Y028991D01*
X018179Y029049D01*
X017559Y029049D01*
X017559Y028428D01*
X017617Y028436D01*
X017706Y028460D01*
X017791Y028495D01*
X017871Y028541D01*
X018048Y028713D02*
X018350Y028713D01*
X018350Y028872D02*
X018135Y028872D01*
X018177Y029030D02*
X018350Y029030D01*
X018350Y029189D02*
X017559Y029189D01*
X017559Y029030D02*
X017399Y029030D01*
X017399Y028872D02*
X017559Y028872D01*
X017559Y028713D02*
X017399Y028713D01*
X017399Y028555D02*
X017559Y028555D01*
X017069Y028555D02*
X016830Y028555D01*
X016909Y028713D02*
X016041Y028713D01*
X016120Y028555D02*
X015881Y028555D01*
X015987Y028396D02*
X014600Y028396D01*
X014600Y028238D02*
X015921Y028238D01*
X015920Y028079D02*
X014600Y028079D01*
X014600Y027921D02*
X015959Y027921D01*
X016053Y027762D02*
X015766Y027762D01*
X015551Y027762D02*
X015391Y027762D01*
X015391Y027604D02*
X015551Y027604D01*
X015551Y027445D02*
X015391Y027445D01*
X015391Y027287D02*
X015551Y027287D01*
X015551Y027128D02*
X016175Y027128D01*
X016160Y026970D02*
X016175Y026970D01*
X016175Y026811D02*
X016106Y026811D01*
X016175Y026653D02*
X016000Y026653D01*
X016175Y026494D02*
X015795Y026494D01*
X015877Y026336D02*
X016073Y026336D01*
X015551Y026494D02*
X015391Y026494D01*
X015391Y026653D02*
X015551Y026653D01*
X015551Y026811D02*
X015391Y026811D01*
X015391Y026970D02*
X015551Y026970D01*
X015391Y027128D02*
X014600Y027128D01*
X014600Y026970D02*
X014782Y026970D01*
X014836Y026811D02*
X014600Y026811D01*
X014600Y026653D02*
X014943Y026653D01*
X015147Y026494D02*
X014600Y026494D01*
X014600Y026336D02*
X015073Y026336D01*
X014944Y026177D02*
X014600Y026177D01*
X014600Y026019D02*
X014880Y026019D01*
X014865Y025875D02*
X014865Y025827D01*
X014880Y025732D01*
X014910Y025641D01*
X014953Y025555D01*
X015010Y025478D01*
X015078Y025410D01*
X015155Y025353D01*
X015241Y025310D01*
X015332Y025280D01*
X015427Y025265D01*
X015475Y025265D01*
X015475Y025875D01*
X014865Y025875D01*
X014865Y025860D02*
X014600Y025860D01*
X014600Y025702D02*
X014890Y025702D01*
X014962Y025543D02*
X014600Y025543D01*
X014600Y025385D02*
X015112Y025385D01*
X015475Y025385D02*
X015475Y025385D01*
X015475Y025543D02*
X015475Y025543D01*
X015475Y025702D02*
X015475Y025702D01*
X015475Y025860D02*
X015475Y025860D01*
X015475Y026019D02*
X015475Y026019D01*
X015475Y026177D02*
X015475Y026177D01*
X015475Y026336D02*
X015475Y026336D01*
X015838Y025385D02*
X016103Y025385D01*
X016847Y025385D02*
X017112Y025385D01*
X017475Y025385D02*
X017475Y025385D01*
X017475Y025543D02*
X017475Y025543D01*
X017475Y025702D02*
X017475Y025702D01*
X017475Y025860D02*
X017475Y025860D01*
X017475Y026019D02*
X017475Y026019D01*
X017475Y026177D02*
X017475Y026177D01*
X017475Y026336D02*
X017475Y026336D01*
X017399Y026494D02*
X017559Y026494D01*
X017559Y026653D02*
X017399Y026653D01*
X017399Y026811D02*
X017559Y026811D01*
X017155Y026494D02*
X016775Y026494D01*
X016775Y026653D02*
X016950Y026653D01*
X016844Y026811D02*
X016775Y026811D01*
X016775Y026970D02*
X016790Y026970D01*
X016877Y026336D02*
X017073Y026336D01*
X016175Y027287D02*
X016157Y027287D01*
X016175Y027445D02*
X016098Y027445D01*
X016175Y027604D02*
X015986Y027604D01*
X015176Y027762D02*
X014600Y027762D01*
X014600Y027604D02*
X014957Y027604D01*
X014844Y027445D02*
X014600Y027445D01*
X014600Y027287D02*
X014786Y027287D01*
X014225Y027287D02*
X013985Y027287D01*
X013985Y027445D02*
X014225Y027445D01*
X014225Y027604D02*
X013985Y027604D01*
X013985Y027762D02*
X014225Y027762D01*
X014225Y027921D02*
X013985Y027921D01*
X013974Y028079D02*
X014225Y028079D01*
X014225Y028238D02*
X013855Y028238D01*
X013697Y028396D02*
X014225Y028396D01*
X014225Y028555D02*
X013538Y028555D01*
X013380Y028713D02*
X014225Y028713D01*
X014225Y028872D02*
X013221Y028872D01*
X013063Y029030D02*
X014225Y029030D01*
X014225Y029189D02*
X012904Y029189D01*
X012746Y029347D02*
X014225Y029347D01*
X014225Y029506D02*
X012537Y029506D01*
X012475Y028500D02*
X012975Y028000D01*
X012975Y024625D01*
X013985Y024751D02*
X014225Y024751D01*
X014225Y024909D02*
X013985Y024909D01*
X013985Y025068D02*
X014225Y025068D01*
X014225Y025226D02*
X013985Y025226D01*
X013985Y025385D02*
X014225Y025385D01*
X014225Y025543D02*
X013985Y025543D01*
X013985Y025702D02*
X014225Y025702D01*
X014225Y025860D02*
X013985Y025860D01*
X013985Y026019D02*
X014225Y026019D01*
X014225Y026177D02*
X013985Y026177D01*
X013985Y026336D02*
X014225Y026336D01*
X014225Y026494D02*
X013985Y026494D01*
X013985Y026653D02*
X014225Y026653D01*
X014225Y026811D02*
X013985Y026811D01*
X013985Y026970D02*
X014225Y026970D01*
X014225Y027128D02*
X013985Y027128D01*
X014600Y028555D02*
X015062Y028555D01*
X014902Y028713D02*
X014600Y028713D01*
X014600Y028872D02*
X014815Y028872D01*
X014773Y029030D02*
X014600Y029030D01*
X014600Y029189D02*
X015391Y029189D01*
X015391Y029030D02*
X015551Y029030D01*
X015551Y028872D02*
X015391Y028872D01*
X015391Y028713D02*
X015551Y028713D01*
X015551Y028555D02*
X015391Y028555D01*
X015551Y029189D02*
X017399Y029189D01*
X016882Y029506D02*
X016068Y029506D01*
X016143Y029347D02*
X016807Y029347D01*
X016781Y029030D02*
X016169Y029030D01*
X016128Y028872D02*
X016822Y028872D01*
X018076Y029506D02*
X018350Y029506D01*
X018350Y029347D02*
X018150Y029347D01*
X014874Y029506D02*
X014600Y029506D01*
X014600Y029347D02*
X014800Y029347D01*
X019225Y018625D02*
X017725Y017125D01*
X014725Y018000D02*
X014725Y015250D01*
X010850Y014125D02*
X010850Y009125D01*
X010475Y008750D01*
X008225Y008750D01*
X007100Y009875D01*
X007100Y010875D01*
X007390Y011120D02*
X007465Y011120D01*
X007465Y011278D02*
X006871Y011278D01*
X006810Y011120D02*
X006712Y011120D01*
X006722Y010961D02*
X006554Y010961D01*
X006395Y010803D02*
X006722Y010803D01*
X006796Y010644D02*
X006237Y010644D01*
X006110Y010486D02*
X006840Y010486D01*
X006840Y010327D02*
X006110Y010327D01*
X006110Y010169D02*
X006840Y010169D01*
X006840Y010010D02*
X006110Y010010D01*
X006110Y009852D02*
X006840Y009852D01*
X006914Y009693D02*
X006150Y009693D01*
X006308Y009535D02*
X007073Y009535D01*
X007231Y009376D02*
X006467Y009376D01*
X006625Y009218D02*
X007390Y009218D01*
X007548Y009059D02*
X006784Y009059D01*
X006942Y008901D02*
X007707Y008901D01*
X007865Y008742D02*
X007101Y008742D01*
X007259Y008584D02*
X008024Y008584D01*
X008225Y009125D02*
X009975Y009125D01*
X010350Y009500D01*
X009972Y009490D02*
X009972Y009657D01*
X010193Y009878D01*
X010507Y009878D01*
X010590Y009795D01*
X010590Y013850D01*
X010501Y013940D01*
X010505Y013913D01*
X010505Y013895D01*
X009745Y013895D01*
X009745Y013855D01*
X010505Y013855D01*
X010505Y013837D01*
X010493Y013763D01*
X010470Y013691D01*
X010436Y013623D01*
X010391Y013562D01*
X010338Y013509D01*
X010277Y013464D01*
X010209Y013430D01*
X010137Y013407D01*
X010063Y013395D01*
X009745Y013395D01*
X009745Y013855D01*
X009705Y013855D01*
X009705Y013395D01*
X009387Y013395D01*
X009313Y013407D01*
X009241Y013430D01*
X009173Y013464D01*
X009112Y013509D01*
X009110Y013511D01*
X009110Y013239D01*
X009153Y013282D01*
X009330Y013355D01*
X010120Y013355D01*
X010297Y013282D01*
X010432Y013147D01*
X010505Y012970D01*
X010505Y012780D01*
X010432Y012603D01*
X010297Y012468D01*
X010120Y012395D01*
X009330Y012395D01*
X009153Y012468D01*
X009110Y012511D01*
X009110Y012358D01*
X009176Y012291D01*
X009330Y012355D01*
X010120Y012355D01*
X010297Y012282D01*
X010432Y012147D01*
X010505Y011970D01*
X010505Y011780D01*
X010432Y011603D01*
X010297Y011468D01*
X010120Y011395D01*
X009330Y011395D01*
X009153Y011468D01*
X009018Y011603D01*
X008945Y011780D01*
X008945Y011787D01*
X008735Y011997D01*
X008735Y010608D01*
X009215Y010128D01*
X009382Y010128D01*
X009603Y009907D01*
X009603Y009593D01*
X009395Y009385D01*
X009867Y009385D01*
X009972Y009490D01*
X009972Y009535D02*
X009544Y009535D01*
X009603Y009693D02*
X010008Y009693D01*
X010167Y009852D02*
X009603Y009852D01*
X009500Y010010D02*
X010590Y010010D01*
X010590Y009852D02*
X010533Y009852D01*
X010590Y010169D02*
X009174Y010169D01*
X009016Y010327D02*
X010590Y010327D01*
X010590Y010486D02*
X008857Y010486D01*
X008735Y010644D02*
X010590Y010644D01*
X010590Y010803D02*
X008735Y010803D01*
X008735Y010961D02*
X010590Y010961D01*
X010590Y011120D02*
X008735Y011120D01*
X008735Y011278D02*
X010590Y011278D01*
X010590Y011437D02*
X010221Y011437D01*
X010424Y011595D02*
X010590Y011595D01*
X010590Y011754D02*
X010494Y011754D01*
X010505Y011912D02*
X010590Y011912D01*
X010590Y012071D02*
X010464Y012071D01*
X010350Y012229D02*
X010590Y012229D01*
X010590Y012388D02*
X009110Y012388D01*
X008850Y012250D02*
X009225Y011875D01*
X009725Y011875D01*
X009229Y011437D02*
X008735Y011437D01*
X008735Y011595D02*
X009026Y011595D01*
X008956Y011754D02*
X008735Y011754D01*
X008735Y011912D02*
X008820Y011912D01*
X008850Y012250D02*
X008850Y015125D01*
X008600Y015375D01*
X007600Y015375D01*
X002225Y020750D01*
X001600Y021000D02*
X007725Y014875D01*
X008350Y014875D01*
X008084Y014607D02*
X007603Y014607D01*
X007603Y014448D02*
X008590Y014448D01*
X008590Y014290D02*
X007549Y014290D01*
X007391Y014131D02*
X008590Y014131D01*
X008590Y013973D02*
X001896Y013973D01*
X002064Y013814D02*
X008590Y013814D01*
X008590Y013656D02*
X002131Y013656D01*
X002150Y013497D02*
X005979Y013497D01*
X005821Y013339D02*
X002128Y013339D01*
X002058Y013180D02*
X005662Y013180D01*
X005504Y013022D02*
X001882Y013022D01*
X002015Y012863D02*
X005178Y012863D01*
X005020Y012705D02*
X002111Y012705D01*
X002150Y012546D02*
X004972Y012546D01*
X004972Y012388D02*
X002149Y012388D01*
X002083Y012229D02*
X005086Y012229D01*
X005011Y012071D02*
X001948Y012071D01*
X001966Y011912D02*
X004972Y011912D01*
X004972Y011754D02*
X002090Y011754D01*
X002150Y011595D02*
X005095Y011595D01*
X005350Y011875D02*
X006475Y013000D01*
X007600Y013000D01*
X008100Y012500D01*
X008100Y010000D01*
X008350Y009750D01*
X007725Y009625D02*
X008225Y009125D01*
X007725Y009625D02*
X007725Y012125D01*
X007350Y012500D01*
X007086Y012229D02*
X006072Y012229D01*
X006230Y012388D02*
X006972Y012388D01*
X006972Y012546D02*
X006389Y012546D01*
X006547Y012705D02*
X007020Y012705D01*
X007011Y012071D02*
X005913Y012071D01*
X005755Y011912D02*
X006769Y011912D01*
X006611Y011754D02*
X005728Y011754D01*
X005605Y011595D02*
X006452Y011595D01*
X006294Y011437D02*
X002156Y011437D01*
X002315Y011278D02*
X006135Y011278D01*
X005977Y011120D02*
X002473Y011120D01*
X002632Y010961D02*
X005818Y010961D01*
X005660Y010803D02*
X002790Y010803D01*
X002949Y010644D02*
X005590Y010644D01*
X005590Y010486D02*
X003107Y010486D01*
X003266Y010327D02*
X005590Y010327D01*
X005590Y010169D02*
X003424Y010169D01*
X003583Y010010D02*
X005590Y010010D01*
X005850Y009625D02*
X007850Y007625D01*
X007850Y007375D01*
X007472Y007316D02*
X002118Y007316D01*
X002150Y007474D02*
X007472Y007474D01*
X007475Y007633D02*
X002135Y007633D01*
X002068Y007791D02*
X007316Y007791D01*
X007158Y007950D02*
X001917Y007950D01*
X001986Y008108D02*
X006999Y008108D01*
X006841Y008267D02*
X002099Y008267D01*
X002150Y008425D02*
X006682Y008425D01*
X006524Y008584D02*
X002150Y008584D01*
X002095Y008742D02*
X006365Y008742D01*
X006207Y008901D02*
X001977Y008901D01*
X001937Y009059D02*
X006048Y009059D01*
X005890Y009218D02*
X002078Y009218D01*
X002144Y009376D02*
X003314Y009376D01*
X003222Y009535D02*
X002150Y009535D01*
X002115Y009693D02*
X003164Y009693D01*
X003006Y009852D02*
X002026Y009852D01*
X001854Y010010D02*
X002847Y010010D01*
X002689Y010169D02*
X002046Y010169D01*
X002124Y010327D02*
X002530Y010327D01*
X002372Y010486D02*
X002150Y010486D01*
X002136Y010644D02*
X002213Y010644D01*
X001283Y010961D02*
X000580Y010961D01*
X000580Y010803D02*
X001130Y010803D01*
X001064Y010644D02*
X000580Y010644D01*
X000580Y010486D02*
X001050Y010486D01*
X001076Y010327D02*
X000580Y010327D01*
X000580Y010169D02*
X001154Y010169D01*
X001346Y010010D02*
X000580Y010010D01*
X000580Y009852D02*
X001174Y009852D01*
X001085Y009693D02*
X000580Y009693D01*
X000580Y009535D02*
X001050Y009535D01*
X001056Y009376D02*
X000580Y009376D01*
X000580Y009218D02*
X001122Y009218D01*
X001263Y009059D02*
X000580Y009059D01*
X000580Y008901D02*
X001223Y008901D01*
X001105Y008742D02*
X000580Y008742D01*
X000580Y008584D02*
X001050Y008584D01*
X001050Y008425D02*
X000580Y008425D01*
X000580Y008267D02*
X001101Y008267D01*
X001214Y008108D02*
X000580Y008108D01*
X000580Y007950D02*
X001283Y007950D01*
X001132Y007791D02*
X000580Y007791D01*
X000580Y007633D02*
X001065Y007633D01*
X001050Y007474D02*
X000580Y007474D01*
X000580Y007316D02*
X001082Y007316D01*
X001169Y007157D02*
X000580Y007157D01*
X000580Y006999D02*
X001366Y006999D01*
X001162Y006840D02*
X000580Y006840D01*
X000580Y006682D02*
X001080Y006682D01*
X001050Y006523D02*
X000580Y006523D01*
X000580Y006365D02*
X001061Y006365D01*
X001126Y006206D02*
X000580Y006206D01*
X000580Y006048D02*
X001275Y006048D01*
X001834Y006999D02*
X007692Y006999D01*
X007533Y007157D02*
X002031Y007157D01*
X003600Y009625D02*
X005850Y009625D01*
X005850Y010625D01*
X006975Y011750D01*
X007225Y011750D01*
X007446Y011437D02*
X007465Y011437D01*
X008475Y010500D02*
X008475Y012500D01*
X007600Y013375D01*
X006225Y013375D01*
X005350Y012500D01*
X007225Y014500D02*
X007225Y015000D01*
X004225Y018000D01*
X003822Y018411D02*
X001967Y018411D01*
X001136Y013814D02*
X000580Y013814D01*
X000580Y013656D02*
X001069Y013656D01*
X001050Y013497D02*
X000580Y013497D01*
X000580Y013339D02*
X001072Y013339D01*
X001142Y013180D02*
X000580Y013180D01*
X000580Y013022D02*
X001318Y013022D01*
X001185Y012863D02*
X000580Y012863D01*
X000580Y012705D02*
X001089Y012705D01*
X001050Y012546D02*
X000580Y012546D01*
X000580Y012388D02*
X001051Y012388D01*
X001117Y012229D02*
X000580Y012229D01*
X000580Y012071D02*
X001252Y012071D01*
X001234Y011912D02*
X000580Y011912D01*
X000580Y011754D02*
X001110Y011754D01*
X001050Y011595D02*
X000580Y011595D01*
X000580Y011437D02*
X001050Y011437D01*
X001097Y011278D02*
X000580Y011278D01*
X000580Y011120D02*
X001203Y011120D01*
X001600Y011500D02*
X001725Y011500D01*
X003600Y009625D01*
X007846Y013497D02*
X008590Y013497D01*
X008590Y013339D02*
X008004Y013339D01*
X008163Y013180D02*
X008590Y013180D01*
X008590Y013022D02*
X008321Y013022D01*
X008480Y012863D02*
X008590Y012863D01*
X009110Y013339D02*
X009290Y013339D01*
X009129Y013497D02*
X009110Y013497D01*
X009705Y013497D02*
X009745Y013497D01*
X009745Y013656D02*
X009705Y013656D01*
X009705Y013814D02*
X009745Y013814D01*
X009745Y013973D02*
X009705Y013973D01*
X009705Y014131D02*
X009745Y014131D01*
X009745Y014290D02*
X009705Y014290D01*
X009181Y014290D02*
X009110Y014290D01*
X009110Y014448D02*
X010638Y014448D01*
X010480Y014290D02*
X010269Y014290D01*
X010432Y014131D02*
X010472Y014131D01*
X010501Y013814D02*
X010590Y013814D01*
X010590Y013656D02*
X010452Y013656D01*
X010321Y013497D02*
X010590Y013497D01*
X010590Y013339D02*
X010160Y013339D01*
X010399Y013180D02*
X010590Y013180D01*
X010590Y013022D02*
X010484Y013022D01*
X010505Y012863D02*
X010590Y012863D01*
X010590Y012705D02*
X010474Y012705D01*
X010375Y012546D02*
X010590Y012546D01*
X008475Y010500D02*
X009225Y009750D01*
X013600Y010750D02*
X015725Y008625D01*
X018993Y005572D02*
X012105Y005572D01*
X012105Y005414D02*
X019152Y005414D01*
X019409Y005097D02*
X012213Y005097D01*
X012411Y004938D02*
X019251Y004938D01*
X019850Y004463D02*
X020070Y004463D01*
X020008Y004621D02*
X020228Y004621D01*
X020167Y004780D02*
X020387Y004780D01*
X020325Y004938D02*
X020545Y004938D01*
X020484Y005097D02*
X020705Y005097D01*
X020642Y005255D02*
X023362Y005255D01*
X023281Y005414D02*
X023521Y005414D01*
X023459Y005572D02*
X023679Y005572D01*
X023618Y005731D02*
X023838Y005731D01*
X023776Y005889D02*
X023996Y005889D01*
X023935Y006048D02*
X024155Y006048D01*
X024093Y006206D02*
X024313Y006206D01*
X024252Y006365D02*
X024472Y006365D01*
X024410Y006523D02*
X024630Y006523D01*
X024569Y006682D02*
X024789Y006682D01*
X024727Y006840D02*
X024947Y006840D01*
X024886Y006999D02*
X025106Y006999D01*
X025215Y007157D02*
X024973Y007157D01*
X024980Y007316D02*
X025215Y007316D01*
X025215Y007474D02*
X024980Y007474D01*
X024980Y007633D02*
X025215Y007633D01*
X025215Y007791D02*
X024980Y007791D01*
X024980Y007950D02*
X025215Y007950D01*
X025215Y008108D02*
X024980Y008108D01*
X024980Y008267D02*
X025215Y008267D01*
X025215Y008425D02*
X024980Y008425D01*
X024980Y008584D02*
X025215Y008584D01*
X025215Y008742D02*
X024980Y008742D01*
X024980Y008901D02*
X025215Y008901D01*
X025215Y009059D02*
X024980Y009059D01*
X024980Y009218D02*
X025215Y009218D01*
X025097Y009376D02*
X024980Y009376D01*
X024980Y009535D02*
X025097Y009535D01*
X025133Y009693D02*
X024980Y009693D01*
X024980Y009852D02*
X025292Y009852D01*
X025475Y009500D02*
X025475Y007000D01*
X023350Y004875D01*
X020850Y004875D01*
X020330Y003987D02*
X021722Y003987D01*
X021720Y003829D02*
X020171Y003829D01*
X020013Y003670D02*
X021720Y003670D01*
X021720Y003512D02*
X021068Y003512D01*
X021317Y003353D02*
X021720Y003353D01*
X021720Y003195D02*
X021475Y003195D01*
X021572Y003036D02*
X021720Y003036D01*
X021720Y002878D02*
X021648Y002878D01*
X021690Y002719D02*
X021720Y002719D01*
X021710Y002561D02*
X021720Y002561D01*
X021710Y002402D02*
X021720Y002402D01*
X021720Y002244D02*
X021680Y002244D01*
X021720Y002085D02*
X021638Y002085D01*
X021720Y001927D02*
X021551Y001927D01*
X021438Y001768D02*
X021720Y001768D01*
X021720Y001610D02*
X021277Y001610D01*
X022480Y001451D02*
X028370Y001451D01*
X028370Y001293D02*
X022477Y001293D01*
X022396Y001134D02*
X028305Y001134D01*
X024655Y004621D02*
X023416Y004621D01*
X023622Y004780D02*
X024721Y004780D01*
X024868Y004938D02*
X023781Y004938D01*
X023939Y005097D02*
X025098Y005097D01*
X022787Y007474D02*
X021735Y007474D01*
X021735Y007316D02*
X022628Y007316D01*
X022470Y007157D02*
X021735Y007157D01*
X021735Y006999D02*
X022311Y006999D01*
X022153Y006840D02*
X022151Y006836D01*
X022097Y006782D01*
X022097Y006705D01*
X022095Y006701D01*
X022097Y006523D02*
X021735Y006523D01*
X021735Y006365D02*
X022198Y006365D01*
X021735Y007633D02*
X022945Y007633D01*
X023104Y007791D02*
X021735Y007791D01*
X021735Y007950D02*
X023262Y007950D01*
X023345Y008108D02*
X021735Y008108D01*
X021735Y008267D02*
X023345Y008267D01*
X023345Y008425D02*
X021735Y008425D01*
X021735Y008584D02*
X023345Y008584D01*
X023345Y008742D02*
X021735Y008742D01*
X021735Y008901D02*
X023345Y008901D01*
X023345Y009059D02*
X021735Y009059D01*
X021735Y009218D02*
X023345Y009218D01*
X023345Y009376D02*
X021735Y009376D01*
X021735Y009535D02*
X023345Y009535D01*
X023345Y009693D02*
X021735Y009693D01*
X021735Y009852D02*
X023345Y009852D01*
X023345Y010010D02*
X021735Y010010D01*
X021735Y010169D02*
X023345Y010169D01*
X023345Y010327D02*
X021735Y010327D01*
X021735Y010486D02*
X023345Y010486D01*
X023345Y010644D02*
X023154Y010644D01*
X023312Y010803D02*
X023345Y010803D01*
X022975Y011000D02*
X021975Y011000D01*
X022232Y011278D02*
X022718Y011278D01*
X023232Y011278D02*
X023345Y011278D01*
X022796Y010644D02*
X022154Y010644D01*
X021796Y010644D02*
X021735Y010644D01*
X024600Y010875D02*
X025225Y010875D01*
X025100Y012750D02*
X026850Y012750D01*
X026587Y013022D02*
X025363Y013022D01*
X019911Y004304D02*
X019691Y004304D01*
X019753Y004146D02*
X019487Y004146D01*
X019854Y003512D02*
X020132Y003512D01*
X019883Y003353D02*
X019696Y003353D01*
X019725Y003195D02*
X019537Y003195D01*
X019628Y003036D02*
X019379Y003036D01*
X019220Y002878D02*
X019552Y002878D01*
X019510Y002719D02*
X019062Y002719D01*
X019144Y002244D02*
X019520Y002244D01*
X019562Y002085D02*
X019302Y002085D01*
X019461Y001927D02*
X019649Y001927D01*
X019619Y001768D02*
X019762Y001768D01*
X019778Y001610D02*
X019923Y001610D01*
X001318Y001927D02*
X000580Y001927D01*
X000580Y002085D02*
X000965Y002085D01*
X000787Y002244D02*
X000580Y002244D01*
X000580Y002402D02*
X000664Y002402D01*
X000614Y003512D02*
X000580Y003512D01*
X000580Y003670D02*
X000705Y003670D01*
X000580Y003829D02*
X000859Y003829D01*
X001090Y003987D02*
X000580Y003987D01*
D18*
X003975Y005250D02*
X007225Y002000D01*
X015600Y002000D01*
X018850Y002000D01*
X019725Y001125D01*
X021850Y001125D01*
X022100Y001375D01*
X022100Y003875D01*
X021475Y005750D02*
X020600Y005750D01*
X019350Y004500D01*
X012350Y004500D01*
X011725Y005000D01*
X011725Y005500D01*
X008600Y005500D01*
X011725Y005500D02*
X011725Y007750D01*
X011725Y017500D01*
X011100Y018125D01*
X011100Y027750D01*
X023725Y019875D02*
X023725Y015000D01*
X020600Y015000D01*
X023725Y015000D02*
X023725Y007875D01*
X022475Y006625D01*
X023100Y005750D02*
X021475Y005750D01*
X023100Y005750D02*
X024600Y007250D01*
X024600Y010875D01*
X024600Y020500D01*
X026725Y022500D01*
D19*
X011725Y017500D03*
D20*
X016475Y025875D02*
X016475Y028125D01*
M02*
